<svg width="120" height="40" viewBox="0 0 120 40" fill="none" xmlns="http://www.w3.org/2000/svg">
<path d="M8.5648 39.1251C8.26012 39.1251 7.9628 39.1212 7.66051 39.1144C7.03429 39.1063 6.40954 39.0517 5.79137 38.9513C5.21496 38.852 4.65658 38.6674 4.13463 38.4034C3.61747 38.1416 3.14578 37.7984 2.73763 37.3868C2.32357 36.9801 1.97885 36.5084 1.71712 35.9903C1.45251 35.4689 1.26938 34.91 1.17412 34.3331C1.07125 33.7132 1.01559 33.0864 1.00762 32.4581C1.00128 32.2472 0.992981 31.545 0.992981 31.545V8.44446C0.992981 8.44446 1.00182 7.75305 1.00767 7.54992C1.0153 6.9226 1.07063 6.29678 1.1732 5.67785C1.26864 5.09937 1.45191 4.53887 1.71666 4.01575C1.97743 3.49807 2.32024 3.02598 2.7318 2.6178C3.1429 2.20574 3.6161 1.86073 4.13414 1.59533C4.65489 1.33222 5.21222 1.14885 5.78746 1.05139C6.40766 0.949958 7.03458 0.895118 7.66297 0.887332L8.56529 0.875122H111.334L112.247 0.887822C112.87 0.895221 113.491 0.949572 114.105 1.05041C114.686 1.1491 115.25 1.33374 115.776 1.59826C116.814 2.13311 117.659 2.97929 118.191 4.01819C118.452 4.5377 118.632 5.09363 118.726 5.66711C118.83 6.29111 118.888 6.92186 118.9 7.55432C118.903 7.83752 118.903 8.14172 118.903 8.44446C118.911 8.81946 118.911 9.17639 118.911 9.53625V30.4649C118.911 30.8282 118.911 31.1827 118.903 31.5401C118.903 31.8653 118.903 32.1632 118.899 32.4698C118.888 33.091 118.83 33.7105 118.728 34.3233C118.635 34.9044 118.453 35.4676 118.188 35.9933C117.925 36.5057 117.582 36.9734 117.173 37.379C116.764 37.7928 116.292 38.1381 115.773 38.4015C115.248 38.6675 114.686 38.8529 114.105 38.9513C113.487 39.0523 112.862 39.1068 112.236 39.1144C111.943 39.1212 111.637 39.1251 111.339 39.1251L110.255 39.1271L8.5648 39.1251Z" fill="white"/>
<path d="M25.1167 19.8895C25.1278 19.0215 25.3584 18.1705 25.7869 17.4156C26.2153 16.6607 26.8278 16.0264 27.5672 15.5718C27.0975 14.9009 26.4778 14.3487 25.7573 13.9593C25.0368 13.5698 24.2355 13.3536 23.4169 13.328C21.6706 13.1447 19.9777 14.3729 19.0879 14.3729C18.1808 14.3729 16.8107 13.3462 15.3354 13.3766C14.3811 13.4074 13.4511 13.6849 12.6359 14.182C11.8208 14.6792 11.1483 15.379 10.684 16.2133C8.6729 19.6953 10.173 24.8126 12.0995 27.6273C13.0634 29.0055 14.1899 30.545 15.6639 30.4904C17.1063 30.4306 17.645 29.5706 19.3861 29.5706C21.111 29.5706 21.6165 30.4904 23.1204 30.4557C24.6681 30.4306 25.6433 29.0713 26.5734 27.6801C27.2659 26.698 27.7988 25.6127 28.1524 24.4642C27.2532 24.0839 26.4858 23.4473 25.946 22.6337C25.4061 21.8202 25.1177 20.8658 25.1167 19.8895Z" fill="#606060"/>
<path d="M22.2761 11.4769C23.12 10.4639 23.5358 9.16172 23.4351 7.84705C22.1458 7.98246 20.9548 8.59866 20.0995 9.57287C19.6814 10.0488 19.3611 10.6025 19.157 11.2023C18.9529 11.802 18.8691 12.4362 18.9102 13.0684C19.5551 13.075 20.1931 12.9352 20.7761 12.6596C21.3591 12.3839 21.872 11.9795 22.2761 11.4769Z" fill="#606060"/>
<path d="M42.4218 27.1398H37.6884L36.5516 30.4962H34.5468L39.0302 18.0782H41.1132L45.5966 30.4962H43.5575L42.4218 27.1398ZM38.1786 25.5909H41.9306L40.081 20.1437H40.0292L38.1786 25.5909Z" fill="#606060"/>
<path d="M55.2792 25.9698C55.2792 28.7833 53.7733 30.5909 51.5009 30.5909C50.9252 30.6211 50.3527 30.4884 49.8489 30.2083C49.3451 29.9282 48.9304 29.5118 48.6523 29.0069H48.6093V33.4913H46.7509V21.4425H48.5497V22.9484H48.5839C48.8748 22.4459 49.2965 22.0317 49.8042 21.7499C50.3118 21.468 50.8863 21.3291 51.4667 21.3478C53.7646 21.3478 55.2792 23.1642 55.2792 25.9698ZM53.369 25.9698C53.369 24.1368 52.4218 22.9318 50.9765 22.9318C49.5565 22.9318 48.6015 24.1622 48.6015 25.9698C48.6015 27.7941 49.5565 29.0157 50.9765 29.0157C52.4218 29.0157 53.369 27.8195 53.369 25.9698H53.369Z" fill="#606060"/>
<path d="M65.2445 25.9698C65.2445 28.7833 63.7382 30.5909 61.4657 30.5909C60.8901 30.6211 60.3176 30.4884 59.8138 30.2083C59.31 29.9282 58.8953 29.5118 58.6171 29.0069H58.5741V33.4913H56.7157V21.4425H58.5145V22.9484H58.5487C58.8397 22.4459 59.2614 22.0317 59.769 21.7499C60.2767 21.468 60.8512 21.3291 61.4315 21.3478C63.7294 21.3478 65.2445 23.1642 65.2445 25.9698ZM63.3339 25.9698C63.3339 24.1368 62.3866 22.9318 60.9413 22.9318C59.5214 22.9318 58.5663 24.1622 58.5663 25.9698C58.5663 27.7941 59.5214 29.0157 60.9413 29.0157C62.3866 29.0157 63.3339 27.8195 63.3339 25.9698Z" fill="#606060"/>
<path d="M71.8295 27.0362C71.9672 28.2677 73.1635 29.0762 74.7983 29.0762C76.3647 29.0762 77.4916 28.2677 77.4916 27.1573C77.4916 26.1934 76.8119 25.6163 75.2026 25.2208L73.5932 24.8331C71.3129 24.2823 70.2543 23.2159 70.2543 21.4854C70.2543 19.3428 72.1215 17.8712 74.7719 17.8712C77.3969 17.8712 79.1957 19.3428 79.2563 21.4854H77.3803C77.268 20.2462 76.2436 19.4981 74.7465 19.4981C73.2494 19.4981 72.225 20.255 72.225 21.3565C72.225 22.2344 72.8793 22.751 74.4799 23.1465L75.8481 23.4825C78.3959 24.085 79.4535 25.1085 79.4535 26.9248C79.4535 29.2481 77.6039 30.7032 74.6605 30.7032C71.9066 30.7032 70.0472 29.2823 69.9271 27.0362L71.8295 27.0362Z" fill="#606060"/>
<path d="M83.4662 19.2999V21.4425H85.1879V22.9142H83.4662V27.9054C83.4662 28.6808 83.8109 29.0421 84.5677 29.0421C84.7721 29.0386 84.9762 29.0242 85.1791 28.9991V30.462C84.8388 30.5256 84.4929 30.5544 84.1468 30.5479C82.3138 30.5479 81.599 29.8595 81.599 28.1036V22.9142H80.2826V21.4425H81.599V19.2999H83.4662Z" fill="#606060"/>
<path d="M86.184 25.9698C86.184 23.1212 87.8617 21.3312 90.4779 21.3312C93.1029 21.3312 94.7728 23.1212 94.7728 25.9698C94.7728 28.8263 93.1117 30.6085 90.4779 30.6085C87.8451 30.6085 86.184 28.8263 86.184 25.9698ZM92.8793 25.9698C92.8793 24.0157 91.9838 22.8624 90.4779 22.8624C88.972 22.8624 88.0765 24.0245 88.0765 25.9698C88.0765 27.9318 88.972 29.0763 90.4779 29.0763C91.9838 29.0763 92.8793 27.9318 92.8793 25.9698H92.8793Z" fill="#606060"/>
<path d="M96.3051 21.4425H98.0775V22.9835H98.1205C98.2404 22.5022 98.5224 22.0769 98.919 21.779C99.3156 21.4811 99.8026 21.3288 100.298 21.3478C100.512 21.347 100.726 21.3703 100.935 21.4171V23.1554C100.665 23.0728 100.383 23.0348 100.1 23.0431C99.83 23.0321 99.5608 23.0797 99.311 23.1826C99.0612 23.2855 98.8365 23.4412 98.6526 23.6391C98.4686 23.837 98.3296 24.0724 98.2452 24.3291C98.1608 24.5857 98.1329 24.8576 98.1635 25.1261V30.4962H96.3051L96.3051 21.4425Z" fill="#606060"/>
<path d="M109.503 27.837C109.253 29.4806 107.653 30.6085 105.605 30.6085C102.971 30.6085 101.336 28.8439 101.336 26.0128C101.336 23.173 102.98 21.3312 105.527 21.3312C108.032 21.3312 109.607 23.0519 109.607 25.797V26.4337H103.212V26.546C103.183 26.8792 103.224 27.2149 103.335 27.5307C103.445 27.8466 103.621 28.1353 103.851 28.3779C104.082 28.6204 104.361 28.8112 104.671 28.9375C104.98 29.0638 105.314 29.1228 105.648 29.1105C106.087 29.1516 106.528 29.0499 106.904 28.8205C107.281 28.591 107.574 28.2461 107.739 27.837L109.503 27.837ZM103.221 25.1349H107.747C107.764 24.8353 107.719 24.5355 107.614 24.2543C107.509 23.9731 107.348 23.7165 107.139 23.5008C106.931 23.285 106.68 23.1147 106.402 23.0004C106.125 22.8862 105.827 22.8306 105.527 22.837C105.224 22.8352 104.924 22.8934 104.644 23.0081C104.364 23.1229 104.109 23.2919 103.895 23.5056C103.681 23.7192 103.511 23.9732 103.395 24.2528C103.279 24.5325 103.22 24.8323 103.221 25.1349V25.1349Z" fill="#606060"/>
<path d="M37.9462 8.73114C38.3358 8.70318 38.7267 8.76204 39.0909 8.90347C39.455 9.0449 39.7831 9.26538 40.0517 9.54901C40.3203 9.83263 40.5226 10.1723 40.644 10.5436C40.7654 10.9149 40.8029 11.3085 40.7538 11.696C40.7538 13.6022 39.7235 14.698 37.9462 14.698H35.7909V8.73114H37.9462ZM36.7176 13.8541H37.8426C38.121 13.8708 38.3997 13.8251 38.6582 13.7205C38.9167 13.6159 39.1487 13.455 39.3372 13.2494C39.5257 13.0438 39.666 12.7988 39.7478 12.5322C39.8297 12.2656 39.8511 11.9841 39.8104 11.7081C39.8481 11.4333 39.8246 11.1535 39.7415 10.8889C39.6583 10.6242 39.5177 10.3812 39.3296 10.1773C39.1416 9.97334 38.9107 9.81353 38.6537 9.70929C38.3966 9.60506 38.1196 9.55897 37.8426 9.57435H36.7176V13.8541Z" fill="#606060"/>
<path d="M41.8007 12.4445C41.7724 12.1486 41.8062 11.85 41.9001 11.5679C41.9939 11.2858 42.1457 11.0265 42.3456 10.8065C42.5456 10.5865 42.7893 10.4108 43.0611 10.2905C43.333 10.1702 43.627 10.1081 43.9242 10.1081C44.2215 10.1081 44.5155 10.1702 44.7873 10.2905C45.0592 10.4108 45.3029 10.5865 45.5028 10.8065C45.7028 11.0265 45.8545 11.2858 45.9484 11.5679C46.0422 11.85 46.0761 12.1486 46.0478 12.4445C46.0766 12.7407 46.0432 13.0397 45.9496 13.3222C45.856 13.6047 45.7043 13.8645 45.5043 14.085C45.3043 14.3054 45.0604 14.4815 44.7883 14.602C44.5162 14.7226 44.2219 14.7848 43.9242 14.7848C43.6266 14.7848 43.3323 14.7226 43.0602 14.602C42.788 14.4815 42.5441 14.3054 42.3441 14.085C42.1441 13.8645 41.9925 13.6047 41.8989 13.3222C41.8053 13.0397 41.7718 12.7407 41.8007 12.4445ZM45.1337 12.4445C45.1337 11.4684 44.6952 10.8976 43.9257 10.8976C43.1532 10.8976 42.7187 11.4684 42.7187 12.4445C42.7187 13.4284 43.1533 13.9948 43.9257 13.9948C44.6952 13.9948 45.1337 13.4245 45.1337 12.4445H45.1337Z" fill="#606060"/>
<path d="M51.6932 14.6979H50.7714L49.8407 11.3815H49.7704L48.8436 14.6979H47.9305L46.6893 10.1949H47.5907L48.3973 13.6309H48.4638L49.3895 10.1949H50.2421L51.1679 13.6309H51.2382L52.0409 10.1949H52.9296L51.6932 14.6979Z" fill="#606060"/>
<path d="M53.9735 10.195H54.829V10.9103H54.8954C55.008 10.6534 55.198 10.438 55.4389 10.2942C55.6798 10.1504 55.9595 10.0853 56.2391 10.108C56.4582 10.0916 56.6782 10.1246 56.8828 10.2047C57.0874 10.2848 57.2714 10.4099 57.4211 10.5707C57.5708 10.7316 57.6823 10.924 57.7475 11.1339C57.8127 11.3437 57.8299 11.5655 57.7977 11.7828V14.6978H56.9091V12.006C56.9091 11.2824 56.5946 10.9225 55.9374 10.9225C55.7886 10.9156 55.6401 10.9409 55.5021 10.9967C55.364 11.0526 55.2397 11.1376 55.1375 11.246C55.0354 11.3543 54.9579 11.4835 54.9104 11.6247C54.8629 11.7658 54.8464 11.9155 54.8622 12.0636V14.6979H53.9735L53.9735 10.195Z" fill="#606060"/>
<path d="M59.2137 8.43713H60.1024V14.6979H59.2137V8.43713Z" fill="#606060"/>
<path d="M61.3378 12.4445C61.3095 12.1485 61.3434 11.8499 61.4372 11.5679C61.5311 11.2858 61.6829 11.0264 61.8828 10.8064C62.0828 10.5865 62.3265 10.4107 62.5984 10.2904C62.8703 10.1701 63.1643 10.108 63.4616 10.108C63.7588 10.108 64.0529 10.1701 64.3247 10.2904C64.5966 10.4107 64.8403 10.5865 65.0403 10.8064C65.2402 11.0264 65.392 11.2858 65.4859 11.5679C65.5798 11.8499 65.6136 12.1485 65.5853 12.4445C65.6141 12.7407 65.5807 13.0397 65.487 13.3222C65.3934 13.6047 65.2417 13.8645 65.0417 14.085C64.8417 14.3054 64.5978 14.4815 64.3257 14.602C64.0535 14.7225 63.7592 14.7848 63.4616 14.7848C63.1639 14.7848 62.8696 14.7225 62.5975 14.602C62.3253 14.4815 62.0814 14.3054 61.8814 14.085C61.6814 13.8645 61.5297 13.6047 61.4361 13.3222C61.3425 13.0397 61.309 12.7407 61.3378 12.4445ZM64.6708 12.4445C64.6708 11.4684 64.2323 10.8976 63.4628 10.8976C62.6903 10.8976 62.2558 11.4684 62.2558 12.4445C62.2558 13.4284 62.6903 13.9948 63.4628 13.9948C64.2323 13.9948 64.6708 13.4244 64.6708 12.4445H64.6708Z" fill="#606060"/>
<path d="M66.5209 13.4245C66.5209 12.6139 67.1244 12.1466 68.1957 12.0802L69.4154 12.0099V11.6212C69.4154 11.1457 69.101 10.8771 68.4935 10.8771C67.9974 10.8771 67.6537 11.0592 67.5551 11.3776H66.6947C66.7855 10.6042 67.5131 10.1081 68.5345 10.1081C69.6635 10.1081 70.3002 10.6701 70.3002 11.6212V14.6979H69.4447V14.0651H69.3744C69.2317 14.2921 69.0313 14.4771 68.7936 14.6013C68.556 14.7256 68.2897 14.7845 68.0219 14.7721C67.8328 14.7918 67.6418 14.7716 67.461 14.7129C67.2802 14.6542 67.1138 14.5583 66.9724 14.4313C66.8309 14.3043 66.7177 14.1491 66.6399 13.9757C66.5622 13.8023 66.5216 13.6145 66.5209 13.4245ZM69.4154 13.0397V12.6632L68.3158 12.7335C67.6957 12.775 67.4144 12.986 67.4144 13.383C67.4144 13.7882 67.766 14.0241 68.2494 14.0241C68.3911 14.0384 68.5341 14.0241 68.6702 13.982C68.8062 13.9399 68.9323 13.8709 69.0411 13.7791C69.1499 13.6872 69.2391 13.5744 69.3034 13.4474C69.3677 13.3204 69.4058 13.1817 69.4154 13.0397Z" fill="#606060"/>
<path d="M71.4681 12.4445C71.4681 11.0216 72.1996 10.1203 73.3373 10.1203C73.6187 10.1073 73.898 10.1747 74.1425 10.3146C74.387 10.4545 74.5867 10.6611 74.7181 10.9103H74.7846V8.43713H75.6732V14.6979H74.8217V13.9864H74.7514C74.6097 14.2339 74.4031 14.438 74.1539 14.5765C73.9046 14.7149 73.6222 14.7826 73.3373 14.7721C72.1918 14.7721 71.4681 13.8707 71.4681 12.4445ZM72.3861 12.4445C72.3861 13.3996 72.8363 13.9743 73.5893 13.9743C74.3383 13.9743 74.8012 13.3913 74.8012 12.4484C74.8012 11.5099 74.3334 10.9186 73.5893 10.9186C72.8412 10.9186 72.3861 11.4972 72.3861 12.4445H72.3861Z" fill="#606060"/>
<path d="M79.35 12.4445C79.3217 12.1486 79.3556 11.85 79.4494 11.5679C79.5432 11.2858 79.695 11.0265 79.8949 10.8065C80.0949 10.5865 80.3386 10.4108 80.6104 10.2905C80.8823 10.1702 81.1763 10.1081 81.4735 10.1081C81.7708 10.1081 82.0648 10.1702 82.3367 10.2905C82.6085 10.4108 82.8522 10.5865 83.0522 10.8065C83.2521 11.0265 83.4039 11.2858 83.4977 11.5679C83.5915 11.85 83.6254 12.1486 83.5971 12.4445C83.6259 12.7407 83.5925 13.0397 83.4989 13.3222C83.4053 13.6047 83.2536 13.8645 83.0536 14.085C82.8536 14.3054 82.6097 14.4815 82.3376 14.602C82.0655 14.7226 81.7712 14.7848 81.4735 14.7848C81.1759 14.7848 80.8816 14.7226 80.6095 14.602C80.3373 14.4815 80.0934 14.3054 79.8935 14.085C79.6935 13.8645 79.5418 13.6047 79.4482 13.3222C79.3546 13.0397 79.3212 12.7407 79.35 12.4445ZM82.683 12.4445C82.683 11.4684 82.2445 10.8976 81.475 10.8976C80.7026 10.8976 80.268 11.4684 80.268 12.4445C80.268 13.4284 80.7026 13.9948 81.475 13.9948C82.2445 13.9948 82.683 13.4245 82.683 12.4445Z" fill="#606060"/>
<path d="M84.7894 10.195H85.6449V10.9103H85.7113C85.824 10.6534 86.014 10.438 86.2548 10.2942C86.4957 10.1504 86.7754 10.0853 87.0551 10.108C87.2742 10.0916 87.4942 10.1246 87.6988 10.2047C87.9034 10.2848 88.0873 10.4099 88.237 10.5707C88.3867 10.7316 88.4983 10.924 88.5635 11.1339C88.6287 11.3437 88.6458 11.5655 88.6136 11.7828V14.6978H87.725V12.006C87.725 11.2824 87.4105 10.9225 86.7533 10.9225C86.6045 10.9156 86.456 10.9409 86.318 10.9967C86.1799 11.0526 86.0556 11.1376 85.9535 11.246C85.8513 11.3543 85.7738 11.4835 85.7263 11.6247C85.6788 11.7658 85.6623 11.9155 85.6781 12.0636V14.6979H84.7894V10.195Z" fill="#606060"/>
<path d="M93.6351 9.07385V10.2155H94.6107V10.964H93.6351V13.2794C93.6351 13.7511 93.8295 13.9576 94.2719 13.9576C94.3851 13.9573 94.4983 13.9504 94.6107 13.9371V14.6774C94.4511 14.7059 94.2894 14.7211 94.1273 14.7228C93.139 14.7228 92.7455 14.3751 92.7455 13.507V10.964H92.0306V10.2154H92.7455V9.07385H93.6351Z" fill="#606060"/>
<path d="M95.8246 8.43713H96.7054V10.9186H96.7757C96.8939 10.6593 97.0891 10.4427 97.3348 10.2983C97.5805 10.154 97.8647 10.0889 98.1488 10.1119C98.3667 10.1001 98.5846 10.1365 98.7869 10.2185C98.9892 10.3006 99.1708 10.4262 99.319 10.5866C99.4671 10.7469 99.578 10.938 99.6438 11.1461C99.7096 11.3542 99.7286 11.5743 99.6995 11.7907V14.6979H98.81V12.0099C98.81 11.2906 98.475 10.9264 97.8471 10.9264C97.6943 10.9139 97.5407 10.9349 97.3969 10.9879C97.2532 11.041 97.1227 11.1248 97.0147 11.2335C96.9067 11.3423 96.8238 11.4733 96.7717 11.6174C96.7197 11.7616 96.6997 11.9153 96.7133 12.068V14.6979H95.8246L95.8246 8.43713Z" fill="#606060"/>
<path d="M104.881 13.4821C104.761 13.8936 104.499 14.2496 104.142 14.4877C103.786 14.7259 103.356 14.831 102.93 14.7848C102.633 14.7926 102.339 14.7358 102.066 14.6183C101.794 14.5008 101.55 14.3253 101.352 14.1042C101.154 13.8831 101.007 13.6215 100.92 13.3377C100.833 13.0539 100.809 12.7546 100.85 12.4606C100.811 12.1657 100.835 11.8658 100.921 11.5811C101.008 11.2964 101.154 11.0337 101.351 10.8106C101.548 10.5875 101.791 10.4093 102.062 10.2881C102.334 10.1669 102.629 10.1055 102.926 10.108C104.179 10.108 104.935 10.964 104.935 12.378V12.6881H101.755V12.7379C101.741 12.9032 101.762 13.0695 101.816 13.2263C101.87 13.383 101.957 13.5267 102.07 13.6482C102.182 13.7696 102.32 13.8662 102.472 13.9316C102.624 13.9969 102.789 14.0298 102.954 14.0279C103.167 14.0535 103.382 14.0152 103.573 13.918C103.764 13.8208 103.921 13.669 104.026 13.482L104.881 13.4821ZM101.755 12.0309H104.03C104.041 11.8798 104.02 11.728 103.969 11.5853C103.918 11.4425 103.838 11.3121 103.734 11.2022C103.629 11.0923 103.503 11.0055 103.363 10.9474C103.223 10.8892 103.073 10.8609 102.921 10.8644C102.768 10.8625 102.615 10.8913 102.473 10.9493C102.33 11.0072 102.201 11.0931 102.092 11.2018C101.984 11.3105 101.898 11.4399 101.84 11.5823C101.782 11.7247 101.753 11.8772 101.755 12.0309H101.755Z" fill="#606060"/>
</svg>
