<svg width="38" height="38" viewBox="0 0 60 60" fill="none" xmlns="http://www.w3.org/2000/svg">
<rect width="60" height="60" rx="4" fill="url(#paint0_linear)"/>
<rect width="60" height="60" rx="4" fill="url(#paint1_linear)" fill-opacity="0.2" style="mix-blend-mode:soft-light"/>
<path d="M14.3246 10.3558H45.6756C47.8848 10.3558 49.6756 12.1467 49.6756 14.3558V15.77C49.6756 17.9791 47.8848 19.77 45.6756 19.77H23.4877C21.2785 19.77 19.4877 21.5608 19.4877 23.77V38.8179C19.4877 39.6324 20.148 40.2928 20.9625 40.2928C21.7771 40.2928 22.4374 39.6324 22.4374 38.8179V30.9958C22.4374 27.4322 26.746 25.6476 29.2659 28.1674L33.2281 32.1297C34.7902 33.6918 37.3229 33.6918 38.885 32.1297L42.8472 28.1674C45.3671 25.6476 49.6756 27.4322 49.6756 30.9958V45.6441C49.6756 47.8533 47.8848 49.6441 45.6756 49.6441H14.3246C12.1154 49.6441 10.3246 47.8533 10.3246 45.6441V14.3558C10.3246 12.1467 12.1154 10.3558 14.3246 10.3558Z" fill="white"/>
<defs>
<linearGradient id="paint0_linear" x1="30" y1="0" x2="30" y2="60" gradientUnits="userSpaceOnUse">
<stop stop-color="#DD0000"/>
<stop offset="1"/>
</linearGradient>
<linearGradient id="paint1_linear" x1="30" y1="0" x2="30" y2="60" gradientUnits="userSpaceOnUse">
<stop offset="0.328125" stop-color="white"/>
<stop offset="1" stop-opacity="0.1"/>
</linearGradient>
</defs>
</svg>
