<svg width="135" height="40" viewBox="0 0 135 40" fill="none" xmlns="http://www.w3.org/2000/svg">
<path d="M127.56 0.440063H6.56C2.93701 0.440063 0 3.37708 0 7.00006V33.0001C0 36.6231 2.93701 39.5601 6.56 39.5601H127.56C131.183 39.5601 134.12 36.6231 134.12 33.0001V7.00006C134.12 3.37708 131.183 0.440063 127.56 0.440063Z" fill="white"/>
<path d="M46.98 10.2401C46.98 11.0801 46.73 11.7501 46.23 12.2401C45.67 12.8301 44.93 13.1301 44.03 13.1301C43.16 13.1301 42.43 12.8301 41.82 12.2301C41.21 11.6301 40.91 10.8801 40.91 10C40.91 9.11005 41.21 8.37005 41.82 7.77005C42.43 7.17005 43.16 6.87006 44.03 6.87006C44.46 6.87006 44.87 6.95006 45.26 7.12006C45.65 7.29006 45.96 7.51006 46.2 7.79006L45.67 8.32005C45.27 7.85005 44.73 7.61005 44.03 7.61005C43.4 7.61005 42.85 7.83005 42.39 8.28005C41.93 8.72005 41.7 9.30005 41.7 10.0101C41.7 10.7201 41.93 11.3001 42.39 11.7401C42.85 12.1801 43.4 12.4101 44.03 12.4101C44.7 12.4101 45.26 12.1901 45.71 11.7401C46 11.4501 46.17 11.0401 46.21 10.5201H44.03V9.80005H46.94C46.96 9.95005 46.98 10.1001 46.98 10.2401Z" fill="#606060"/>
<path d="M51.59 7.74006H48.86V9.64006H51.32V10.3601H48.86V12.2601H51.59V13.0001H48.09V7.00006H51.59V7.74006Z" fill="#606060"/>
<path d="M54.84 13.0001H54.07V7.74006H52.39V7.00006H56.51V7.74006H54.83V13.0001H54.84Z" fill="#606060"/>
<path d="M59.5 13.0001V7.00006H60.27V13.0001H59.5Z" fill="#606060"/>
<path d="M63.69 13.0001H62.92V7.74006H61.24V7.00006H65.36V7.74006H63.68V13.0001H63.69Z" fill="#606060"/>
<path d="M73.17 12.2201C72.58 12.8301 71.85 13.1301 70.97 13.1301C70.09 13.1301 69.36 12.8301 68.77 12.2201C68.18 11.6101 67.89 10.8701 67.89 10C67.89 9.13005 68.18 8.38005 68.77 7.78005C69.36 7.17005 70.09 6.87006 70.97 6.87006C71.84 6.87006 72.57 7.17005 73.17 7.78005C73.76 8.39005 74.06 9.13005 74.06 10C74.05 10.8801 73.76 11.6201 73.17 12.2201ZM69.34 11.7201C69.78 12.1701 70.33 12.3901 70.97 12.3901C71.61 12.3901 72.16 12.1701 72.6 11.7201C73.04 11.2701 73.27 10.7001 73.27 10C73.27 9.30005 73.05 8.73005 72.6 8.28005C72.16 7.83005 71.61 7.61005 70.97 7.61005C70.33 7.61005 69.78 7.83005 69.34 8.28005C68.9 8.73005 68.67 9.30005 68.67 10C68.67 10.7001 68.9 11.2701 69.34 11.7201Z" fill="#606060"/>
<path d="M75.14 13.0001V7.00006H76.08L79 11.6701H79.03L79 10.5101V7.00006H79.77V13.0001H78.97L75.92 8.11006H75.89L75.92 9.27006V13.0001H75.14Z" fill="#606060"/>
<path d="M67.7 21.75C65.35 21.75 63.43 23.54 63.43 26C63.43 28.45 65.35 30.25 67.7 30.25C70.05 30.25 71.97 28.45 71.97 26C71.97 23.54 70.05 21.75 67.7 21.75ZM67.7 28.58C66.41 28.58 65.3 27.5201 65.3 26C65.3 24.47 66.41 23.42 67.7 23.42C68.99 23.42 70.1 24.47 70.1 26C70.1 27.5201 68.98 28.58 67.7 28.58ZM58.38 21.75C56.03 21.75 54.11 23.54 54.11 26C54.11 28.45 56.03 30.25 58.38 30.25C60.73 30.25 62.65 28.45 62.65 26C62.65 23.54 60.73 21.75 58.38 21.75ZM58.38 28.58C57.09 28.58 55.98 27.5201 55.98 26C55.98 24.47 57.09 23.42 58.38 23.42C59.67 23.42 60.78 24.47 60.78 26C60.78 27.5201 59.67 28.58 58.38 28.58ZM47.3 23.06V24.8601H51.62C51.49 25.8701 51.15 26.62 50.64 27.13C50.01 27.76 49.03 28.4501 47.31 28.4501C44.65 28.4501 42.57 26.31 42.57 23.65C42.57 20.99 44.65 18.85 47.31 18.85C48.74 18.85 49.79 19.41 50.56 20.14L51.83 18.8701C50.75 17.8401 49.32 17.05 47.3 17.05C43.66 17.05 40.6 20.01 40.6 23.66C40.6 27.3 43.66 30.2701 47.3 30.2701C49.27 30.2701 50.75 29.63 51.91 28.42C53.1 27.23 53.47 25.5501 53.47 24.2001C53.47 23.7801 53.44 23.39 53.37 23.07H47.3V23.06ZM92.61 24.46C92.26 23.51 91.18 21.75 88.97 21.75C86.78 21.75 84.96 23.47 84.96 26C84.96 28.38 86.76 30.25 89.18 30.25C91.13 30.25 92.26 29.0601 92.72 28.3701L91.27 27.4C90.79 28.11 90.13 28.58 89.18 28.58C88.23 28.58 87.55 28.1401 87.12 27.2901L92.81 24.9401L92.61 24.46ZM86.81 25.88C86.76 24.24 88.08 23.4 89.03 23.4C89.77 23.4 90.4 23.77 90.61 24.3L86.81 25.88ZM82.19 30H84.06V17.5H82.19V30ZM79.13 22.7001H79.06C78.64 22.2001 77.84 21.75 76.82 21.75C74.69 21.75 72.74 23.62 72.74 26.0201C72.74 28.4001 74.69 30.26 76.82 30.26C77.83 30.26 78.64 29.8101 79.06 29.2901H79.12V29.9C79.12 31.53 78.25 32.4001 76.85 32.4001C75.71 32.4001 75 31.58 74.71 30.89L73.08 31.57C73.55 32.7 74.79 34.0801 76.85 34.0801C79.04 34.0801 80.89 32.79 80.89 29.65V22.01H79.12V22.7001H79.13ZM76.98 28.58C75.69 28.58 74.61 27.5 74.61 26.0201C74.61 24.5201 75.69 23.43 76.98 23.43C78.25 23.43 79.25 24.5301 79.25 26.0201C79.26 27.5 78.26 28.58 76.98 28.58ZM101.37 17.5H96.9V30H98.77V25.26H101.38C103.45 25.26 105.48 23.76 105.48 21.38C105.48 19 103.43 17.5 101.37 17.5ZM101.41 23.5201H98.76V19.23H101.41C102.81 19.23 103.6 20.3901 103.6 21.3701C103.6 22.3501 102.81 23.5201 101.41 23.5201ZM112.95 21.73C111.6 21.73 110.2 22.33 109.62 23.64L111.28 24.33C111.63 23.64 112.29 23.41 112.98 23.41C113.94 23.41 114.93 23.9901 114.94 25.0201V25.15C114.6 24.96 113.88 24.67 112.99 24.67C111.2 24.67 109.39 25.65 109.39 27.48C109.39 29.15 110.85 30.23 112.49 30.23C113.74 30.23 114.44 29.67 114.87 29.01H114.93V29.98H116.73V25.1901C116.74 22.97 115.08 21.73 112.95 21.73ZM112.72 28.58C112.11 28.58 111.26 28.2701 111.26 27.5201C111.26 26.5601 112.32 26.1901 113.24 26.1901C114.06 26.1901 114.45 26.3701 114.94 26.6101C114.8 27.76 113.8 28.58 112.72 28.58ZM123.3 22L121.16 27.42H121.1L118.88 22H116.87L120.2 29.58L118.3 33.7901H120.25L125.38 22H123.3ZM106.5 30H108.37V17.5H106.5V30Z" fill="#606060"/>
<path d="M10 7.54003C9.71003 7.85003 9.54004 8.33003 9.54004 8.94003V31.0601C9.54004 31.6801 9.71003 32.1601 10 32.4601L10.07 32.5301L22.46 20.1501V20.0001V19.8501L10.07 7.47003L10 7.54003Z" fill="url(#paint0_linear)"/>
<path d="M26.59 24.2801L22.46 20.1501V20.0001V19.8501L26.59 15.7201L26.68 15.7701L31.57 18.5501C32.97 19.3401 32.97 20.6401 31.57 21.4401L26.68 24.2201L26.59 24.2801Z" fill="url(#paint1_linear)"/>
<path d="M26.68 24.2201L22.46 20.0001L10 32.4601C10.46 32.9501 11.22 33.0101 12.08 32.5201L26.68 24.2201Z" fill="url(#paint2_linear)"/>
<path d="M26.68 15.7801L12.07 7.48005C11.21 6.99005 10.45 7.05005 9.98999 7.54005L22.46 20.0001L26.68 15.7801Z" fill="url(#paint3_linear)"/>
<path opacity="0.2" d="M26.59 24.1301L12.07 32.3801C11.26 32.8401 10.53 32.8101 10.07 32.3901L10 32.4601L10.07 32.5301C10.54 32.9501 11.26 32.9801 12.07 32.5201L26.68 24.2201L26.59 24.1301Z" fill="white"/>
<path opacity="0.12" d="M10 32.3201C9.71003 32.0101 9.54004 31.5301 9.54004 30.9201V31.0701C9.54004 31.6901 9.71003 32.1701 10 32.4701L10.07 32.4001L10 32.3201Z" fill="white"/>
<path opacity="0.12" d="M31.57 21.3001L26.58 24.1301L26.67 24.2201L31.56 21.4401C32.26 21.0401 32.61 20.5201 32.61 20.0001C32.56 20.4701 32.21 20.9401 31.57 21.3001Z" fill="white"/>
<path opacity="0.25" d="M12.07 7.62006L31.57 18.7001C32.2 19.0601 32.56 19.5201 32.62 20.0001C32.62 19.4801 32.27 18.9501 31.57 18.5601L12.07 7.48006C10.67 6.69006 9.53003 7.35006 9.53003 8.95006V9.10006C9.53003 7.49006 10.68 6.83006 12.07 7.62006Z" fill="#606060"/>
<defs>
<linearGradient id="paint0_linear" x1="21.3597" y1="8.70973" x2="4.57734" y2="25.4922" gradientUnits="userSpaceOnUse">
<stop stop-color="#00A0FF"/>
<stop offset="0.00657445" stop-color="#00A1FF"/>
<stop offset="0.2601" stop-color="#00BEFF"/>
<stop offset="0.5122" stop-color="#00D2FF"/>
<stop offset="0.7604" stop-color="#00DFFF"/>
<stop offset="1" stop-color="#00E3FF"/>
</linearGradient>
<linearGradient id="paint1_linear" x1="33.3944" y1="20.0015" x2="9.19752" y2="20.0015" gradientUnits="userSpaceOnUse">
<stop stop-color="#FFE000"/>
<stop offset="0.4087" stop-color="#FFBD00"/>
<stop offset="0.7754" stop-color="#FFA500"/>
<stop offset="1" stop-color="#FF9C00"/>
</linearGradient>
<linearGradient id="paint2_linear" x1="24.387" y1="22.2962" x2="1.6287" y2="45.0545" gradientUnits="userSpaceOnUse">
<stop stop-color="#FF3A44"/>
<stop offset="1" stop-color="#C31162"/>
</linearGradient>
<linearGradient id="paint3_linear" x1="6.85728" y1="0.176246" x2="17.0199" y2="10.3388" gradientUnits="userSpaceOnUse">
<stop stop-color="#32A071"/>
<stop offset="0.0685" stop-color="#2DA771"/>
<stop offset="0.4762" stop-color="#15CF74"/>
<stop offset="0.8009" stop-color="#06E775"/>
<stop offset="1" stop-color="#00F076"/>
</linearGradient>
</defs>
</svg>
