<svg width="21.33" height="16" viewBox="0 0 28 21" fill="none" xmlns="http://www.w3.org/2000/svg">
<rect x="0.25" y="0.75" width="27.5" height="19.5" rx="1.75" fill="white" stroke="#F5F5F5" stroke-width="0.5"/>
<mask id="mask0" style="mask-type:alpha" maskUnits="userSpaceOnUse" x="0" y="0" width="28" height="21">
<rect x="0.25" y="0.75" width="27.5" height="19.5" rx="1.75" fill="white" stroke="white" stroke-width="0.5"/>
</mask>
<g mask="url(#mask0)">
<path fill-rule="evenodd" clip-rule="evenodd" d="M0 7.16667H28V0.5H0V7.16667Z" fill="#FFA44A"/>
<path fill-rule="evenodd" clip-rule="evenodd" d="M0 20.5H28V13.8333H0V20.5Z" fill="#1A9F0B"/>
<path d="M14 12.8333C15.2887 12.8333 16.3333 11.7887 16.3333 10.5C16.3333 9.21134 15.2887 8.16667 14 8.16667C12.7113 8.16667 11.6667 9.21134 11.6667 10.5C11.6667 11.7887 12.7113 12.8333 14 12.8333Z" fill="#181A93" fill-opacity="0.15" stroke="#181A93" stroke-width="0.666667"/>
<path fill-rule="evenodd" clip-rule="evenodd" d="M14 11.1667C14.3682 11.1667 14.6666 10.8682 14.6666 10.5C14.6666 10.1318 14.3682 9.83333 14 9.83333C13.6318 9.83333 13.3333 10.1318 13.3333 10.5C13.3333 10.8682 13.6318 11.1667 14 11.1667Z" fill="#181A93"/>
</g>
</svg>
