<svg width="61" height="61" viewBox="0 0 61 61" fill="none" xmlns="http://www.w3.org/2000/svg">
<path d="M3.18406 0.500061C1.85857 0.500061 0.784058 1.57458 0.784058 2.90006H3.18406V0.500061Z" fill="black"/>
<path d="M5.58406 0.500061H3.18406V2.90006H5.58406V0.500061Z" fill="black"/>
<path d="M7.98406 0.500061H5.58406V2.90006H7.98406V0.500061Z" fill="black"/>
<path d="M10.3841 0.500061H7.98406V2.90006H10.3841V0.500061Z" fill="black"/>
<path d="M12.7841 0.500061H10.3841V2.90006H12.7841V0.500061Z" fill="black"/>
<path d="M15.1841 0.500061H12.7841V2.90006H15.1841V0.500061Z" fill="black"/>
<path d="M17.5841 2.90006C17.5841 1.57458 16.5095 0.500061 15.1841 0.500061V2.90006H17.5841Z" fill="black"/>
<path d="M22.3841 0.500061H21.1841C20.5213 0.500061 19.9841 1.03732 19.9841 1.70006C19.9841 2.3628 20.5213 2.90006 21.1841 2.90006H22.3841V0.500061Z" fill="black"/>
<path d="M24.7841 1.70006C24.7841 1.03732 24.2468 0.500061 23.5841 0.500061H22.3841V2.90006H23.5841C24.2468 2.90006 24.7841 2.3628 24.7841 1.70006Z" fill="black"/>
<path d="M34.3841 1.70006C34.3841 1.03732 33.8468 0.500061 33.1841 0.500061C32.5213 0.500061 31.9841 1.03732 31.9841 1.70006V2.90006H34.3841V1.70006Z" fill="black"/>
<path d="M41.5841 1.70006C41.5841 1.03732 41.0468 0.500061 40.3841 0.500061C39.7213 0.500061 39.1841 1.03732 39.1841 1.70006V2.90006H41.5841V1.70006Z" fill="black"/>
<path d="M46.3841 0.500061C45.0586 0.500061 43.9841 1.57458 43.9841 2.90006H46.3841V0.500061Z" fill="black"/>
<path d="M48.7841 0.500061H46.3841V2.90006H48.7841V0.500061Z" fill="black"/>
<path d="M51.1841 0.500061H48.7841V2.90006H51.1841V0.500061Z" fill="black"/>
<path d="M53.5841 0.500061H51.1841V2.90006H53.5841V0.500061Z" fill="black"/>
<path d="M55.9841 0.500061H53.5841V2.90006H55.9841V0.500061Z" fill="black"/>
<path d="M58.3841 0.500061H55.9841V2.90006H58.3841V0.500061Z" fill="black"/>
<path d="M60.7841 2.90006C60.7841 1.57458 59.7095 0.500061 58.3841 0.500061V2.90006H60.7841Z" fill="black"/>
<path d="M3.18406 2.90006H0.784058V5.30006H3.18406V2.90006Z" fill="black"/>
<path d="M17.5841 2.90006H15.1841L15.1841 5.30006H17.5841V2.90006Z" fill="black"/>
<path d="M31.9841 2.90006C30.6586 2.90006 29.5841 3.97458 29.5841 5.30006H31.9841V2.90006Z" fill="black"/>
<path d="M34.3841 2.90006H31.9841V5.30006H34.3841V2.90006Z" fill="black"/>
<path d="M41.5841 2.90006H39.1841V5.30006H41.5841V2.90006Z" fill="black"/>
<path d="M46.3841 2.90006H43.9841V5.30006H46.3841V2.90006Z" fill="black"/>
<path d="M60.7841 2.90006H58.3841V5.30006H60.7841V2.90006Z" fill="black"/>
<path d="M3.18406 5.30006H0.784058V7.70006H3.18406V5.30006Z" fill="black"/>
<path d="M7.98406 5.30006C6.65857 5.30006 5.58406 6.37458 5.58406 7.70006H7.98406V5.30006Z" fill="black"/>
<path d="M10.3841 5.30006H7.98406V7.70006H10.3841V5.30006Z" fill="black"/>
<path d="M12.7841 7.70006C12.7841 6.37458 11.7095 5.30006 10.3841 5.30006V7.70006H12.7841Z" fill="black"/>
<path d="M17.5841 5.30006H15.1841V7.70006H17.5841V5.30006Z" fill="black"/>
<path d="M24.7841 5.30006C23.4586 5.30006 22.3841 6.37458 22.3841 7.70006H24.7841V5.30006Z" fill="black"/>
<path d="M27.1841 5.30006H24.7841V7.70006H27.1841V5.30006Z" fill="black"/>
<path d="M29.5841 5.30006H27.1841V7.70006H29.5841V5.30006Z" fill="black"/>
<path d="M31.9841 5.30006H29.5841V7.70006H31.9841V5.30006Z" fill="black"/>
<path d="M34.3841 5.30006H31.9841V7.70006H34.3841V5.30006Z" fill="black"/>
<path d="M41.5841 5.30006H39.1841V6.50006C39.1841 7.1628 39.7213 7.70006 40.3841 7.70006C41.0468 7.70006 41.5841 7.1628 41.5841 6.50006V5.30006Z" fill="black"/>
<path d="M46.3841 5.30006H43.9841V7.70006H46.3841V5.30006Z" fill="black"/>
<path d="M51.1841 5.30006C49.8586 5.30006 48.7841 6.37458 48.7841 7.70006H51.1841V5.30006Z" fill="black"/>
<path d="M53.5841 5.30006H51.1841V7.70006H53.5841V5.30006Z" fill="black"/>
<path d="M55.9841 7.70006C55.9841 6.37458 54.9095 5.30006 53.5841 5.30006V7.70006H55.9841Z" fill="black"/>
<path d="M60.7841 5.30006H58.3841V7.70006H60.7841V5.30006Z" fill="black"/>
<path d="M3.18406 7.70006H0.784058V10.1001H3.18406V7.70006Z" fill="black"/>
<path d="M7.98406 7.70006H5.58406V10.1001H7.98406V7.70006Z" fill="black"/>
<path d="M10.3841 7.70006H7.98406V10.1001H10.3841V7.70006Z" fill="black"/>
<path d="M12.7841 7.70006H10.3841V10.1001H12.7841V7.70006Z" fill="black"/>
<path d="M17.5841 7.70006H15.1841V10.1001H17.5841V7.70006Z" fill="black"/>
<path d="M24.7841 7.70006H22.3841V10.1001H24.7841V7.70006Z" fill="black"/>
<path d="M27.1841 7.70006H24.7841V10.1001H27.1841V7.70006Z" fill="black"/>
<path d="M34.3841 7.70006H31.9841V10.1001H34.3841V7.70006Z" fill="black"/>
<path d="M46.3841 7.70006H43.9841V10.1001H46.3841V7.70006Z" fill="black"/>
<path d="M51.1841 7.70006H48.7841V10.1001H51.1841V7.70006Z" fill="black"/>
<path d="M53.5841 7.70006H51.1841V10.1001H53.5841V7.70006Z" fill="black"/>
<path d="M55.9841 7.70006H53.5841V10.1001H55.9841V7.70006Z" fill="black"/>
<path d="M60.7841 7.70006H58.3841V10.1001H60.7841V7.70006Z" fill="black"/>
<path d="M3.18406 10.1001H0.784058V12.5001H3.18406V10.1001Z" fill="black"/>
<path d="M7.98406 10.1001H5.58406C5.58406 11.4255 6.65857 12.5001 7.98406 12.5001V10.1001Z" fill="black"/>
<path d="M10.3841 10.1001H7.98406V12.5001H10.3841V10.1001Z" fill="black"/>
<path d="M12.7841 10.1001H10.3841V12.5001C11.7095 12.5001 12.7841 11.4255 12.7841 10.1001Z" fill="black"/>
<path d="M17.5841 10.1001H15.1841V12.5001H17.5841V10.1001Z" fill="black"/>
<path d="M22.3841 10.1001H21.1841C20.5213 10.1001 19.9841 10.6373 19.9841 11.3001C19.9841 11.9628 20.5213 12.5001 21.1841 12.5001C21.8468 12.5001 22.3841 11.9628 22.3841 11.3001V10.1001Z" fill="black"/>
<path d="M27.1841 10.1001H24.7841C24.7841 11.4255 25.8586 12.5001 27.1841 12.5001V10.1001Z" fill="black"/>
<path d="M29.5841 10.1001H27.1841V12.5001H29.5841V10.1001Z" fill="black"/>
<path d="M31.9841 10.1001H29.5841V12.5001C30.9095 12.5001 31.9841 11.4255 31.9841 10.1001Z" fill="black"/>
<path d="M36.7841 12.5001C36.7841 11.1746 35.7095 10.1001 34.3841 10.1001V12.5001H36.7841Z" fill="black"/>
<path d="M46.3841 10.1001H43.9841V12.5001H46.3841V10.1001Z" fill="black"/>
<path d="M51.1841 10.1001H48.7841C48.7841 11.4255 49.8586 12.5001 51.1841 12.5001V10.1001Z" fill="black"/>
<path d="M53.5841 10.1001H51.1841V12.5001H53.5841V10.1001Z" fill="black"/>
<path d="M55.9841 10.1001H53.5841V12.5001C54.9095 12.5001 55.9841 11.4255 55.9841 10.1001Z" fill="black"/>
<path d="M60.7841 10.1001H58.3841V12.5001H60.7841V10.1001Z" fill="black"/>
<path d="M3.18406 12.5001H0.784058V14.9001H3.18406V12.5001Z" fill="black"/>
<path d="M17.5841 12.5001H15.1841V14.9001H17.5841V12.5001Z" fill="black"/>
<path d="M36.7841 12.5001H34.3841V14.9001H36.7841V12.5001Z" fill="black"/>
<path d="M46.3841 12.5001H43.9841V14.9001H46.3841V12.5001Z" fill="black"/>
<path d="M60.7841 12.5001H58.3841V14.9001H60.7841V12.5001Z" fill="black"/>
<path d="M3.18406 14.9001H0.784058C0.784058 16.2255 1.85858 17.3001 3.18406 17.3001V14.9001Z" fill="black"/>
<path d="M5.58406 14.9001L3.18406 14.9001V17.3001H5.58406V14.9001Z" fill="black"/>
<path d="M7.98406 14.9001H5.58406V17.3001H7.98406V14.9001Z" fill="black"/>
<path d="M10.3841 14.9001H7.98406V17.3001H10.3841V14.9001Z" fill="black"/>
<path d="M12.7841 14.9001H10.3841V17.3001H12.7841V14.9001Z" fill="black"/>
<path d="M15.1841 14.9001L12.7841 14.9001V17.3001H15.1841L15.1841 14.9001Z" fill="black"/>
<path d="M17.5841 14.9001H15.1841L15.1841 17.3001C16.5095 17.3001 17.5841 16.2255 17.5841 14.9001Z" fill="black"/>
<path d="M22.3841 16.1001C22.3841 15.4373 21.8468 14.9001 21.1841 14.9001C20.5213 14.9001 19.9841 15.4373 19.9841 16.1001V17.3001H22.3841V16.1001Z" fill="black"/>
<path d="M27.1841 16.1001C27.1841 15.4373 26.6468 14.9001 25.9841 14.9001C25.3213 14.9001 24.7841 15.4373 24.7841 16.1001V17.3001H27.1841V16.1001Z" fill="black"/>
<path d="M31.9841 16.1001C31.9841 15.4373 31.4468 14.9001 30.7841 14.9001C30.1213 14.9001 29.5841 15.4373 29.5841 16.1001V17.3001H31.9841V16.1001Z" fill="black"/>
<path d="M36.7841 14.9001H34.3841V17.3001H36.7841V14.9001Z" fill="black"/>
<path d="M41.5841 16.1001C41.5841 15.4373 41.0468 14.9001 40.3841 14.9001C39.7213 14.9001 39.1841 15.4373 39.1841 16.1001V17.3001H41.5841V16.1001Z" fill="black"/>
<path d="M46.3841 14.9001H43.9841C43.9841 16.2255 45.0586 17.3001 46.3841 17.3001V14.9001Z" fill="black"/>
<path d="M48.7841 14.9001L46.3841 14.9001V17.3001H48.7841V14.9001Z" fill="black"/>
<path d="M51.1841 14.9001H48.7841V17.3001H51.1841V14.9001Z" fill="black"/>
<path d="M53.5841 14.9001H51.1841V17.3001H53.5841V14.9001Z" fill="black"/>
<path d="M55.9841 14.9001H53.5841V17.3001H55.9841V14.9001Z" fill="black"/>
<path d="M58.3841 14.9001L55.9841 14.9001V17.3001H58.3841V14.9001Z" fill="black"/>
<path d="M60.7841 14.9001H58.3841V17.3001C59.7095 17.3001 60.7841 16.2255 60.7841 14.9001Z" fill="black"/>
<path d="M22.3841 17.3001H19.9841V19.7001H22.3841V17.3001Z" fill="black"/>
<path d="M27.1841 17.3001H24.7841V19.7001C26.1095 19.7001 27.1841 18.6255 27.1841 17.3001Z" fill="black"/>
<path d="M31.9841 17.3001H29.5841C29.5841 18.6255 30.6586 19.7001 31.9841 19.7001V17.3001Z" fill="black"/>
<path d="M34.3841 17.3001H31.9841V19.7001H34.3841V17.3001Z" fill="black"/>
<path d="M39.1841 17.3001H36.7841C36.7841 18.6255 37.8586 19.7001 39.1841 19.7001V17.3001Z" fill="black"/>
<path d="M41.5841 17.3001H39.1841V19.7001H41.5841V17.3001Z" fill="black"/>
<path d="M3.18406 20.9001C3.18406 20.2373 2.6468 19.7001 1.98406 19.7001C1.32132 19.7001 0.784058 20.2373 0.784058 20.9001C0.784058 21.5628 1.32132 22.1001 1.98406 22.1001H3.18406V20.9001Z" fill="black"/>
<path d="M10.3841 19.7001C9.05858 19.7001 7.98406 20.7746 7.98406 22.1001H10.3841V19.7001Z" fill="black"/>
<path d="M12.7841 19.7001H10.3841V22.1001H12.7841V19.7001Z" fill="black"/>
<path d="M15.1841 19.7001H12.7841V22.1001H15.1841V19.7001Z" fill="black"/>
<path d="M17.5841 19.7001H15.1841V22.1001H17.5841V19.7001Z" fill="black"/>
<path d="M19.9841 19.7001H17.5841V22.1001H19.9841V19.7001Z" fill="black"/>
<path d="M22.3841 19.7001H19.9841V22.1001H22.3841V19.7001Z" fill="black"/>
<path d="M24.7841 19.7001H22.3841V22.1001C23.7095 22.1001 24.7841 21.0255 24.7841 19.7001Z" fill="black"/>
<path d="M34.3841 19.7001H31.9841V22.1001C33.3095 22.1001 34.3841 21.0255 34.3841 19.7001Z" fill="black"/>
<path d="M41.5841 19.7001H39.1841V22.1001H41.5841V19.7001Z" fill="black"/>
<path d="M43.9841 19.7001H41.5841V22.1001H43.9841V19.7001Z" fill="black"/>
<path d="M46.3841 22.1001C46.3841 20.7746 45.3095 19.7001 43.9841 19.7001V22.1001H46.3841Z" fill="black"/>
<path d="M51.1841 20.9001C51.1841 20.2373 50.6468 19.7001 49.9841 19.7001C49.3213 19.7001 48.7841 20.2373 48.7841 20.9001V22.1001H51.1841V20.9001Z" fill="black"/>
<path d="M60.7841 20.9001C60.7841 20.2373 60.2468 19.7001 59.5841 19.7001C58.9213 19.7001 58.3841 20.2373 58.3841 20.9001V22.1001H60.7841V20.9001Z" fill="black"/>
<path d="M5.58406 24.5001C5.58406 23.1746 4.50954 22.1001 3.18406 22.1001V24.5001H5.58406Z" fill="black"/>
<path d="M10.3841 22.1001H7.98406V24.5001H10.3841V22.1001Z" fill="black"/>
<path d="M12.7841 22.1001H10.3841V24.5001H12.7841V22.1001Z" fill="black"/>
<path d="M19.9841 22.1001H17.5841V24.5001H19.9841V22.1001Z" fill="black"/>
<path d="M22.3841 22.1001H19.9841V24.5001H22.3841V22.1001Z" fill="black"/>
<path d="M31.9841 22.1001C30.6586 22.1001 29.5841 23.1746 29.5841 24.5001H31.9841V22.1001Z" fill="black"/>
<path d="M39.1841 22.1001C37.8586 22.1001 36.7841 23.1746 36.7841 24.5001H39.1841V22.1001Z" fill="black"/>
<path d="M43.9841 22.1001H41.5841V24.5001H43.9841V22.1001Z" fill="black"/>
<path d="M46.3841 22.1001H43.9841V24.5001H46.3841V22.1001Z" fill="black"/>
<path d="M51.1841 22.1001H48.7841V24.5001H51.1841V22.1001Z" fill="black"/>
<path d="M53.5841 22.1001H51.1841V24.5001H53.5841V22.1001Z" fill="black"/>
<path d="M55.9841 22.1001H53.5841V24.5001H55.9841V22.1001Z" fill="black"/>
<path d="M58.3841 22.1001H55.9841V24.5001H58.3841V22.1001Z" fill="black"/>
<path d="M60.7841 22.1001H58.3841V24.5001C59.7095 24.5001 60.7841 23.4255 60.7841 22.1001Z" fill="black"/>
<path d="M3.18406 24.5001C1.85857 24.5001 0.784058 25.5746 0.784058 26.9001H3.18406V24.5001Z" fill="black"/>
<path d="M5.58406 24.5001H3.18406V26.9001C4.50954 26.9001 5.58406 25.8255 5.58406 24.5001Z" fill="black"/>
<path d="M10.3841 24.5001H7.98406C7.98406 25.8255 9.05858 26.9001 10.3841 26.9001V24.5001Z" fill="black"/>
<path d="M12.7841 24.5001H10.3841V26.9001H12.7841V24.5001Z" fill="black"/>
<path d="M15.1841 24.5001H12.7841V26.9001H15.1841V24.5001Z" fill="black"/>
<path d="M17.5841 24.5001H15.1841V26.9001H17.5841V24.5001Z" fill="black"/>
<path d="M19.9841 24.5001H17.5841V26.9001H19.9841V24.5001Z" fill="black"/>
<path d="M24.7841 26.9001C24.7841 25.5746 23.7095 24.5001 22.3841 24.5001V26.9001H24.7841Z" fill="black"/>
<path d="M29.5841 24.5001C28.2586 24.5001 27.1841 25.5746 27.1841 26.9001H29.5841V24.5001Z" fill="black"/>
<path d="M31.9841 24.5001H29.5841V26.9001C30.9095 26.9001 31.9841 25.8255 31.9841 24.5001Z" fill="black"/>
<path d="M36.7841 24.5001C35.4586 24.5001 34.3841 25.5746 34.3841 26.9001H36.7841L36.7841 24.5001Z" fill="black"/>
<path d="M41.5841 24.5001H39.1841V26.9001H41.5841V24.5001Z" fill="black"/>
<path d="M43.9841 24.5001H41.5841V26.9001H43.9841V24.5001Z" fill="black"/>
<path d="M46.3841 24.5001H43.9841V26.9001H46.3841V24.5001Z" fill="black"/>
<path d="M48.7841 24.5001H46.3841V26.9001H48.7841V24.5001Z" fill="black"/>
<path d="M51.1841 24.5001H48.7841V26.9001H51.1841V24.5001Z" fill="black"/>
<path d="M53.5841 24.5001H51.1841V26.9001H53.5841V24.5001Z" fill="black"/>
<path d="M55.9841 24.5001H53.5841V26.9001H55.9841V24.5001Z" fill="black"/>
<path d="M58.3841 24.5001H55.9841V26.9001H58.3841V24.5001Z" fill="black"/>
<path d="M3.18406 26.9001H0.784058V29.3001H3.18406V26.9001Z" fill="black"/>
<path d="M12.7841 26.9001H10.3841V29.3001H12.7841V26.9001Z" fill="black"/>
<path d="M15.1841 26.9001H12.7841V29.3001H15.1841V26.9001Z" fill="black"/>
<path d="M19.9841 26.9001H17.5841V29.3001H19.9841V26.9001Z" fill="black"/>
<path d="M24.7841 26.9001H22.3841V29.3001H24.7841V26.9001Z" fill="black"/>
<path d="M27.1841 26.9001H24.7841V29.3001H27.1841V26.9001Z" fill="black"/>
<path d="M36.7841 26.9001H34.3841V29.3001H36.7841V26.9001Z" fill="black"/>
<path d="M39.1841 26.9001H36.7841V29.3001H39.1841V26.9001Z" fill="black"/>
<path d="M51.1841 26.9001H48.7841V29.3001H51.1841V26.9001Z" fill="black"/>
<path d="M55.9841 26.9001H53.5841V29.3001H55.9841V26.9001Z" fill="black"/>
<path d="M58.3841 26.9001H55.9841V29.3001H58.3841V26.9001Z" fill="black"/>
<path d="M3.18406 29.3001H0.784058V31.7001H3.18406V29.3001Z" fill="black"/>
<path d="M10.3841 29.3001H9.18406C8.52132 29.3001 7.98406 29.8373 7.98406 30.5001C7.98406 31.1628 8.52132 31.7001 9.18406 31.7001H10.3841V29.3001Z" fill="black"/>
<path d="M12.7841 29.3001H10.3841V31.7001H12.7841V29.3001Z" fill="black"/>
<path d="M15.1841 29.3001H12.7841V31.7001H15.1841V29.3001Z" fill="black"/>
<path d="M17.5841 29.3001H15.1841V31.7001H17.5841V29.3001Z" fill="black"/>
<path d="M19.9841 29.3001H17.5841V31.7001H19.9841V29.3001Z" fill="black"/>
<path d="M22.3841 29.3001H19.9841V31.7001H22.3841V29.3001Z" fill="black"/>
<path d="M27.1841 29.3001H24.7841V31.7001H27.1841V29.3001Z" fill="black"/>
<path d="M29.5841 31.7001C29.5841 30.3746 28.5095 29.3001 27.1841 29.3001V31.7001H29.5841Z" fill="black"/>
<path d="M34.3841 29.3001C33.0586 29.3001 31.9841 30.3746 31.9841 31.7001H34.3841V29.3001Z" fill="black"/>
<path d="M36.7841 29.3001H34.3841V31.7001H36.7841V29.3001Z" fill="black"/>
<path d="M41.5841 31.7001C41.5841 30.3746 40.5095 29.3001 39.1841 29.3001V31.7001H41.5841Z" fill="black"/>
<path d="M48.7841 29.3001H47.5841C46.9213 29.3001 46.3841 29.8373 46.3841 30.5001C46.3841 31.1628 46.9213 31.7001 47.5841 31.7001H48.7841V29.3001Z" fill="black"/>
<path d="M53.5841 29.3001H51.1841V31.7001H53.5841V29.3001Z" fill="black"/>
<path d="M55.9841 29.3001H53.5841V31.7001H55.9841V29.3001Z" fill="black"/>
<path d="M60.7841 31.7001C60.7841 30.3746 59.7095 29.3001 58.3841 29.3001V31.7001H60.7841Z" fill="black"/>
<path d="M3.18406 31.7001H0.784058V34.1001H3.18406V31.7001Z" fill="black"/>
<path d="M5.58406 34.1001C5.58406 32.7746 4.50954 31.7001 3.18406 31.7001V34.1001H5.58406Z" fill="black"/>
<path d="M19.9841 31.7001H17.5841V34.1001H19.9841V31.7001Z" fill="black"/>
<path d="M22.3841 31.7001H19.9841V34.1001H22.3841V31.7001Z" fill="black"/>
<path d="M24.7841 31.7001H22.3841V34.1001H24.7841V31.7001Z" fill="black"/>
<path d="M31.9841 31.7001H29.5841V34.1001H31.9841V31.7001Z" fill="black"/>
<path d="M36.7841 31.7001H34.3841V34.1001H36.7841V31.7001Z" fill="black"/>
<path d="M39.1841 31.7001H36.7841V34.1001H39.1841V31.7001Z" fill="black"/>
<path d="M41.5841 31.7001H39.1841V34.1001H41.5841V31.7001Z" fill="black"/>
<path d="M43.9841 34.1001C43.9841 32.7746 42.9095 31.7001 41.5841 31.7001V34.1001H43.9841Z" fill="black"/>
<path d="M51.1841 31.7001H48.7841V34.1001H51.1841V31.7001Z" fill="black"/>
<path d="M55.9841 31.7001H53.5841V34.1001H55.9841V31.7001Z" fill="black"/>
<path d="M58.3841 31.7001H55.9841V34.1001H58.3841V31.7001Z" fill="black"/>
<path d="M60.7841 31.7001H58.3841V34.1001C59.7095 34.1001 60.7841 33.0255 60.7841 31.7001Z" fill="black"/>
<path d="M3.18406 34.1001H0.784058C0.784058 35.4255 1.85857 36.5001 3.18406 36.5001V34.1001Z" fill="black"/>
<path d="M5.58406 34.1001H3.18406V36.5001H5.58406V34.1001Z" fill="black"/>
<path d="M7.98406 35.3001C7.98406 34.6373 7.4468 34.1001 6.78406 34.1001H5.58406V36.5001H6.78406C7.4468 36.5001 7.98406 35.9628 7.98406 35.3001Z" fill="black"/>
<path d="M17.5841 34.1001H16.3841C15.7213 34.1001 15.1841 34.6373 15.1841 35.3001C15.1841 35.9628 15.7213 36.5001 16.3841 36.5001H17.5841V34.1001Z" fill="black"/>
<path d="M24.7841 34.1001H22.3841V35.3001C22.3841 35.9628 22.9213 36.5001 23.5841 36.5001C24.2468 36.5001 24.7841 35.9628 24.7841 35.3001V34.1001Z" fill="black"/>
<path d="M29.5841 34.1001H28.3841C27.7213 34.1001 27.1841 34.6373 27.1841 35.3001C27.1841 35.9628 27.7213 36.5001 28.3841 36.5001H29.5841V34.1001Z" fill="black"/>
<path d="M31.9841 34.1001H29.5841V36.5001H31.9841V34.1001Z" fill="black"/>
<path d="M36.7841 34.1001H34.3841V36.5001H36.7841V34.1001Z" fill="black"/>
<path d="M43.9841 34.1001H41.5841C41.5841 35.4255 42.6586 36.5001 43.9841 36.5001V34.1001Z" fill="black"/>
<path d="M48.7841 34.1001C47.4586 34.1001 46.3841 35.1746 46.3841 36.5001H48.7841V34.1001Z" fill="black"/>
<path d="M51.1841 34.1001H48.7841V36.5001H51.1841V34.1001Z" fill="black"/>
<path d="M55.9841 34.1001H53.5841C53.5841 35.4255 54.6586 36.5001 55.9841 36.5001V34.1001Z" fill="black"/>
<path d="M5.58406 36.5001H3.18406V38.9001C4.50954 38.9001 5.58406 37.8255 5.58406 36.5001Z" fill="black"/>
<path d="M19.9841 38.9001C19.9841 37.5746 18.9095 36.5001 17.5841 36.5001V38.9001H19.9841Z" fill="black"/>
<path d="M31.9841 36.5001H29.5841V38.9001H31.9841V36.5001Z" fill="black"/>
<path d="M36.7841 36.5001H34.3841C34.3841 37.8255 35.4586 38.9001 36.7841 38.9001V36.5001Z" fill="black"/>
<path d="M39.1841 38.9001C39.1841 37.5746 38.1095 36.5001 36.7841 36.5001V38.9001H39.1841Z" fill="black"/>
<path d="M46.3841 36.5001H43.9841V38.9001H46.3841V36.5001Z" fill="black"/>
<path d="M51.1841 36.5001H48.7841V38.9001H51.1841V36.5001Z" fill="black"/>
<path d="M58.3841 38.9001C58.3841 37.5746 57.3095 36.5001 55.9841 36.5001V38.9001H58.3841Z" fill="black"/>
<path d="M3.18406 38.9001H1.98406C1.32132 38.9001 0.784058 39.4373 0.784058 40.1001C0.784058 40.7628 1.32132 41.3001 1.98406 41.3001C2.6468 41.3001 3.18406 40.7628 3.18406 40.1001V38.9001Z" fill="black"/>
<path d="M15.1841 38.9001H13.9841C13.3213 38.9001 12.7841 39.4373 12.7841 40.1001C12.7841 40.7628 13.3213 41.3001 13.9841 41.3001H15.1841V38.9001Z" fill="black"/>
<path d="M17.5841 38.9001H15.1841V41.3001H17.5841V38.9001Z" fill="black"/>
<path d="M19.9841 38.9001H17.5841V41.3001H19.9841V38.9001Z" fill="black"/>
<path d="M24.7841 38.9001C23.4586 38.9001 22.3841 39.9746 22.3841 41.3001H24.7841V38.9001Z" fill="black"/>
<path d="M27.1841 41.3001C27.1841 39.9746 26.1095 38.9001 24.7841 38.9001V41.3001H27.1841Z" fill="black"/>
<path d="M31.9841 38.9001H29.5841V41.3001H31.9841V38.9001Z" fill="black"/>
<path d="M39.1841 38.9001H36.7841L36.7841 41.3001H39.1841V38.9001Z" fill="black"/>
<path d="M41.5841 38.9001H39.1841V41.3001H41.5841V38.9001Z" fill="black"/>
<path d="M43.9841 38.9001H41.5841V41.3001H43.9841V38.9001Z" fill="black"/>
<path d="M46.3841 38.9001H43.9841V41.3001H46.3841V38.9001Z" fill="black"/>
<path d="M48.7841 38.9001H46.3841V41.3001H48.7841V38.9001Z" fill="black"/>
<path d="M51.1841 38.9001H48.7841V41.3001H51.1841V38.9001Z" fill="black"/>
<path d="M53.5841 41.3001C53.5841 39.9746 52.5095 38.9001 51.1841 38.9001V41.3001H53.5841Z" fill="black"/>
<path d="M58.3841 38.9001H55.9841V41.3001C57.3095 41.3001 58.3841 40.2255 58.3841 38.9001Z" fill="black"/>
<path d="M22.3841 41.3001H19.9841V43.7001H22.3841V41.3001Z" fill="black"/>
<path d="M27.1841 41.3001H24.7841V42.5001C24.7841 43.1628 25.3213 43.7001 25.9841 43.7001C26.6468 43.7001 27.1841 43.1628 27.1841 42.5001V41.3001Z" fill="black"/>
<path d="M31.9841 41.3001H29.5841V43.7001H31.9841V41.3001Z" fill="black"/>
<path d="M39.1841 41.3001H36.7841V43.7001H39.1841V41.3001Z" fill="black"/>
<path d="M41.5841 41.3001H39.1841V43.7001H41.5841V41.3001Z" fill="black"/>
<path d="M51.1841 41.3001H48.7841V43.7001H51.1841V41.3001Z" fill="black"/>
<path d="M53.5841 41.3001H51.1841V43.7001H53.5841V41.3001Z" fill="black"/>
<path d="M55.9841 41.3001H53.5841V43.7001H55.9841V41.3001Z" fill="black"/>
<path d="M3.18406 43.7001C1.85858 43.7001 0.784058 44.7746 0.784058 46.1001H3.18406V43.7001Z" fill="black"/>
<path d="M5.58406 43.7001H3.18406V46.1001H5.58406V43.7001Z" fill="black"/>
<path d="M7.98406 43.7001H5.58406V46.1001H7.98406V43.7001Z" fill="black"/>
<path d="M10.3841 43.7001H7.98406V46.1001H10.3841V43.7001Z" fill="black"/>
<path d="M12.7841 43.7001H10.3841V46.1001H12.7841V43.7001Z" fill="black"/>
<path d="M15.1841 43.7001H12.7841V46.1001H15.1841V43.7001Z" fill="black"/>
<path d="M17.5841 46.1001C17.5841 44.7746 16.5095 43.7001 15.1841 43.7001V46.1001H17.5841Z" fill="black"/>
<path d="M22.3841 43.7001H19.9841V46.1001H22.3841V43.7001Z" fill="black"/>
<path d="M31.9841 43.7001H29.5841V44.9001C29.5841 45.5628 30.1213 46.1001 30.7841 46.1001C31.4468 46.1001 31.9841 45.5628 31.9841 44.9001V43.7001Z" fill="black"/>
<path d="M39.1841 43.7001H36.7841V46.1001H39.1841V43.7001Z" fill="black"/>
<path d="M41.5841 43.7001H39.1841V46.1001H41.5841V43.7001Z" fill="black"/>
<path d="M46.3841 44.9001C46.3841 44.2373 45.8468 43.7001 45.1841 43.7001C44.5213 43.7001 43.9841 44.2373 43.9841 44.9001C43.9841 45.5628 44.5213 46.1001 45.1841 46.1001C45.8468 46.1001 46.3841 45.5628 46.3841 44.9001Z" fill="black"/>
<path d="M51.1841 43.7001H48.7841V46.1001H51.1841V43.7001Z" fill="black"/>
<path d="M53.5841 43.7001H51.1841V46.1001H53.5841V43.7001Z" fill="black"/>
<path d="M55.9841 43.7001H53.5841V46.1001H55.9841V43.7001Z" fill="black"/>
<path d="M60.7841 44.9001C60.7841 44.2373 60.2468 43.7001 59.5841 43.7001C58.9213 43.7001 58.3841 44.2373 58.3841 44.9001C58.3841 45.5628 58.9213 46.1001 59.5841 46.1001C60.2468 46.1001 60.7841 45.5628 60.7841 44.9001Z" fill="black"/>
<path d="M3.18406 46.1001H0.784058V48.5001H3.18406V46.1001Z" fill="black"/>
<path d="M17.5841 46.1001H15.1841L15.1841 48.5001H17.5841V46.1001Z" fill="black"/>
<path d="M22.3841 46.1001H19.9841V48.5001H22.3841V46.1001Z" fill="black"/>
<path d="M27.1841 47.3001C27.1841 46.6373 26.6468 46.1001 25.9841 46.1001C25.3213 46.1001 24.7841 46.6373 24.7841 47.3001V48.5001H27.1841V47.3001Z" fill="black"/>
<path d="M36.7841 46.1001C35.4586 46.1001 34.3841 47.1746 34.3841 48.5001H36.7841L36.7841 46.1001Z" fill="black"/>
<path d="M41.5841 46.1001H39.1841V48.5001H41.5841V46.1001Z" fill="black"/>
<path d="M51.1841 46.1001H48.7841V48.5001H51.1841V46.1001Z" fill="black"/>
<path d="M55.9841 46.1001H53.5841V47.3001C53.5841 47.9628 54.1213 48.5001 54.7841 48.5001C55.4468 48.5001 55.9841 47.9628 55.9841 47.3001V46.1001Z" fill="black"/>
<path d="M3.18406 48.5001H0.784058V50.9001H3.18406V48.5001Z" fill="black"/>
<path d="M7.98406 48.5001C6.65857 48.5001 5.58406 49.5746 5.58406 50.9001H7.98406V48.5001Z" fill="black"/>
<path d="M10.3841 48.5001H7.98406V50.9001H10.3841V48.5001Z" fill="black"/>
<path d="M12.7841 50.9001C12.7841 49.5746 11.7095 48.5001 10.3841 48.5001V50.9001H12.7841Z" fill="black"/>
<path d="M17.5841 48.5001H15.1841V50.9001H17.5841V48.5001Z" fill="black"/>
<path d="M22.3841 48.5001H19.9841V50.9001H22.3841V48.5001Z" fill="black"/>
<path d="M24.7841 48.5001H22.3841V50.9001H24.7841V48.5001Z" fill="black"/>
<path d="M27.1841 48.5001H24.7841V50.9001C26.1095 50.9001 27.1841 49.8255 27.1841 48.5001Z" fill="black"/>
<path d="M34.3841 48.5001C33.0586 48.5001 31.9841 49.5746 31.9841 50.9001H34.3841V48.5001Z" fill="black"/>
<path d="M36.7841 48.5001H34.3841V50.9001C35.7095 50.9001 36.7841 49.8255 36.7841 48.5001Z" fill="black"/>
<path d="M41.5841 48.5001H39.1841V50.9001H41.5841V48.5001Z" fill="black"/>
<path d="M43.9841 48.5001H41.5841V50.9001H43.9841V48.5001Z" fill="black"/>
<path d="M46.3841 48.5001H43.9841V50.9001H46.3841V48.5001Z" fill="black"/>
<path d="M48.7841 48.5001H46.3841V50.9001H48.7841V48.5001Z" fill="black"/>
<path d="M51.1841 48.5001H48.7841V50.9001H51.1841V48.5001Z" fill="black"/>
<path d="M60.7841 49.7001C60.7841 49.0373 60.2468 48.5001 59.5841 48.5001C58.9213 48.5001 58.3841 49.0373 58.3841 49.7001C58.3841 50.3628 58.9213 50.9001 59.5841 50.9001C60.2468 50.9001 60.7841 50.3628 60.7841 49.7001Z" fill="black"/>
<path d="M3.18406 50.9001H0.784058V53.3001H3.18406V50.9001Z" fill="black"/>
<path d="M7.98406 50.9001H5.58406V53.3001H7.98406V50.9001Z" fill="black"/>
<path d="M10.3841 50.9001H7.98406V53.3001H10.3841V50.9001Z" fill="black"/>
<path d="M12.7841 50.9001H10.3841V53.3001H12.7841V50.9001Z" fill="black"/>
<path d="M17.5841 50.9001H15.1841V53.3001H17.5841V50.9001Z" fill="black"/>
<path d="M22.3841 50.9001H19.9841V52.1001C19.9841 52.7628 20.5213 53.3001 21.1841 53.3001C21.8468 53.3001 22.3841 52.7628 22.3841 52.1001V50.9001Z" fill="black"/>
<path d="M31.9841 50.9001C30.6586 50.9001 29.5841 51.9746 29.5841 53.3001H31.9841V50.9001Z" fill="black"/>
<path d="M41.5841 50.9001H39.1841V53.3001H41.5841V50.9001Z" fill="black"/>
<path d="M43.9841 50.9001H41.5841V53.3001C42.9095 53.3001 43.9841 52.2255 43.9841 50.9001Z" fill="black"/>
<path d="M53.5841 53.3001C53.5841 51.9746 52.5095 50.9001 51.1841 50.9001V53.3001H53.5841Z" fill="black"/>
<path d="M3.18406 53.3001H0.784058V55.7001H3.18406V53.3001Z" fill="black"/>
<path d="M7.98406 53.3001H5.58406C5.58406 54.6255 6.65858 55.7001 7.98406 55.7001V53.3001Z" fill="black"/>
<path d="M10.3841 53.3001H7.98406V55.7001H10.3841V53.3001Z" fill="black"/>
<path d="M12.7841 53.3001H10.3841V55.7001C11.7095 55.7001 12.7841 54.6255 12.7841 53.3001Z" fill="black"/>
<path d="M17.5841 53.3001H15.1841V55.7001H17.5841V53.3001Z" fill="black"/>
<path d="M29.5841 53.3001C28.2586 53.3001 27.1841 54.3746 27.1841 55.7001H29.5841V53.3001Z" fill="black"/>
<path d="M31.9841 53.3001H29.5841V55.7001H31.9841V53.3001Z" fill="black"/>
<path d="M36.7841 53.3001C35.4586 53.3001 34.3841 54.3746 34.3841 55.7001H36.7841V53.3001Z" fill="black"/>
<path d="M39.1841 53.3001H36.7841V55.7001H39.1841V53.3001Z" fill="black"/>
<path d="M41.5841 53.3001H39.1841V55.7001H41.5841V53.3001Z" fill="black"/>
<path d="M48.7841 53.3001C47.4586 53.3001 46.3841 54.3746 46.3841 55.7001H48.7841V53.3001Z" fill="black"/>
<path d="M51.1841 53.3001H48.7841V55.7001H51.1841V53.3001Z" fill="black"/>
<path d="M55.9841 53.3001H53.5841V55.7001H55.9841V53.3001Z" fill="black"/>
<path d="M58.3841 53.3001H55.9841V55.7001H58.3841V53.3001Z" fill="black"/>
<path d="M60.7841 55.7001C60.7841 54.3746 59.7095 53.3001 58.3841 53.3001V55.7001H60.7841Z" fill="black"/>
<path d="M3.18406 55.7001H0.784058V58.1001H3.18406V55.7001Z" fill="black"/>
<path d="M17.5841 55.7001H15.1841V58.1001H17.5841V55.7001Z" fill="black"/>
<path d="M24.7841 55.7001C23.4586 55.7001 22.3841 56.7746 22.3841 58.1001H24.7841V55.7001Z" fill="black"/>
<path d="M27.1841 55.7001H24.7841V58.1001H27.1841V55.7001Z" fill="black"/>
<path d="M29.5841 55.7001H27.1841V58.1001H29.5841V55.7001Z" fill="black"/>
<path d="M34.3841 55.7001H31.9841V58.1001H34.3841V55.7001Z" fill="black"/>
<path d="M36.7841 55.7001H34.3841V58.1001C35.7095 58.1001 36.7841 57.0255 36.7841 55.7001Z" fill="black"/>
<path d="M43.9841 55.7001H41.5841V58.1001H43.9841V55.7001Z" fill="black"/>
<path d="M46.3841 55.7001H43.9841V58.1001H46.3841V55.7001Z" fill="black"/>
<path d="M48.7841 55.7001H46.3841V58.1001H48.7841V55.7001Z" fill="black"/>
<path d="M51.1841 55.7001H48.7841V58.1001H51.1841V55.7001Z" fill="black"/>
<path d="M55.9841 55.7001H53.5841V58.1001H55.9841V55.7001Z" fill="black"/>
<path d="M58.3841 55.7001H55.9841V58.1001H58.3841V55.7001Z" fill="black"/>
<path d="M60.7841 55.7001H58.3841V58.1001H60.7841V55.7001Z" fill="black"/>
<path d="M3.18406 58.1001H0.784058C0.784058 59.4255 1.85857 60.5001 3.18406 60.5001V58.1001Z" fill="black"/>
<path d="M5.58406 58.1001H3.18406V60.5001H5.58406V58.1001Z" fill="black"/>
<path d="M7.98406 58.1001H5.58406V60.5001H7.98406V58.1001Z" fill="black"/>
<path d="M10.3841 58.1001H7.98406V60.5001H10.3841V58.1001Z" fill="black"/>
<path d="M12.7841 58.1001H10.3841V60.5001H12.7841V58.1001Z" fill="black"/>
<path d="M15.1841 58.1001H12.7841V60.5001H15.1841L15.1841 58.1001Z" fill="black"/>
<path d="M17.5841 58.1001H15.1841L15.1841 60.5001C16.5095 60.5001 17.5841 59.4255 17.5841 58.1001Z" fill="black"/>
<path d="M22.3841 58.1001H21.1841C20.5213 58.1001 19.9841 58.6373 19.9841 59.3001C19.9841 59.9628 20.5213 60.5001 21.1841 60.5001C21.8468 60.5001 22.3841 59.9628 22.3841 59.3001V58.1001Z" fill="black"/>
<path d="M29.5841 58.1001H27.1841C27.1841 59.4255 28.2586 60.5001 29.5841 60.5001V58.1001Z" fill="black"/>
<path d="M31.9841 58.1001H29.5841V60.5001C30.9095 60.5001 31.9841 59.4255 31.9841 58.1001Z" fill="black"/>
<path d="M41.5841 58.1001H40.3841C39.7213 58.1001 39.1841 58.6373 39.1841 59.3001C39.1841 59.9628 39.7213 60.5001 40.3841 60.5001C41.0468 60.5001 41.5841 59.9628 41.5841 59.3001V58.1001Z" fill="black"/>
<path d="M53.5841 58.1001H51.1841V59.3001C51.1841 59.9628 51.7213 60.5001 52.3841 60.5001C53.0468 60.5001 53.5841 59.9628 53.5841 59.3001V58.1001Z" fill="black"/>
<path d="M60.7841 58.1001H58.3841V59.3001C58.3841 59.9628 58.9213 60.5001 59.5841 60.5001C60.2468 60.5001 60.7841 59.9628 60.7841 59.3001V58.1001Z" fill="black"/>
<mask id="mask0" style="mask-type:alpha" maskUnits="userSpaceOnUse" x="0" y="0" width="61" height="61">
<path d="M3.18406 0.500061C1.85857 0.500061 0.784058 1.57458 0.784058 2.90006H3.18406V0.500061Z" fill="black"/>
<path d="M5.58406 0.500061H3.18406V2.90006H5.58406V0.500061Z" fill="black"/>
<path d="M7.98406 0.500061H5.58406V2.90006H7.98406V0.500061Z" fill="black"/>
<path d="M10.3841 0.500061H7.98406V2.90006H10.3841V0.500061Z" fill="black"/>
<path d="M12.7841 0.500061H10.3841V2.90006H12.7841V0.500061Z" fill="black"/>
<path d="M15.1841 0.500061H12.7841V2.90006H15.1841V0.500061Z" fill="black"/>
<path d="M17.5841 2.90006C17.5841 1.57458 16.5095 0.500061 15.1841 0.500061V2.90006H17.5841Z" fill="black"/>
<path d="M22.3841 0.500061H21.1841C20.5213 0.500061 19.9841 1.03732 19.9841 1.70006C19.9841 2.3628 20.5213 2.90006 21.1841 2.90006H22.3841V0.500061Z" fill="black"/>
<path d="M24.7841 1.70006C24.7841 1.03732 24.2468 0.500061 23.5841 0.500061H22.3841V2.90006H23.5841C24.2468 2.90006 24.7841 2.3628 24.7841 1.70006Z" fill="black"/>
<path d="M34.3841 1.70006C34.3841 1.03732 33.8468 0.500061 33.1841 0.500061C32.5213 0.500061 31.9841 1.03732 31.9841 1.70006V2.90006H34.3841V1.70006Z" fill="black"/>
<path d="M41.5841 1.70006C41.5841 1.03732 41.0468 0.500061 40.3841 0.500061C39.7213 0.500061 39.1841 1.03732 39.1841 1.70006V2.90006H41.5841V1.70006Z" fill="black"/>
<path d="M46.3841 0.500061C45.0586 0.500061 43.9841 1.57458 43.9841 2.90006H46.3841V0.500061Z" fill="black"/>
<path d="M48.7841 0.500061H46.3841V2.90006H48.7841V0.500061Z" fill="black"/>
<path d="M51.1841 0.500061H48.7841V2.90006H51.1841V0.500061Z" fill="black"/>
<path d="M53.5841 0.500061H51.1841V2.90006H53.5841V0.500061Z" fill="black"/>
<path d="M55.9841 0.500061H53.5841V2.90006H55.9841V0.500061Z" fill="black"/>
<path d="M58.3841 0.500061H55.9841V2.90006H58.3841V0.500061Z" fill="black"/>
<path d="M60.7841 2.90006C60.7841 1.57458 59.7095 0.500061 58.3841 0.500061V2.90006H60.7841Z" fill="black"/>
<path d="M3.18406 2.90006H0.784058V5.30006H3.18406V2.90006Z" fill="black"/>
<path d="M17.5841 2.90006H15.1841L15.1841 5.30006H17.5841V2.90006Z" fill="black"/>
<path d="M31.9841 2.90006C30.6586 2.90006 29.5841 3.97458 29.5841 5.30006H31.9841V2.90006Z" fill="black"/>
<path d="M34.3841 2.90006H31.9841V5.30006H34.3841V2.90006Z" fill="black"/>
<path d="M41.5841 2.90006H39.1841V5.30006H41.5841V2.90006Z" fill="black"/>
<path d="M46.3841 2.90006H43.9841V5.30006H46.3841V2.90006Z" fill="black"/>
<path d="M60.7841 2.90006H58.3841V5.30006H60.7841V2.90006Z" fill="black"/>
<path d="M3.18406 5.30006H0.784058V7.70006H3.18406V5.30006Z" fill="black"/>
<path d="M7.98406 5.30006C6.65857 5.30006 5.58406 6.37458 5.58406 7.70006H7.98406V5.30006Z" fill="black"/>
<path d="M10.3841 5.30006H7.98406V7.70006H10.3841V5.30006Z" fill="black"/>
<path d="M12.7841 7.70006C12.7841 6.37458 11.7095 5.30006 10.3841 5.30006V7.70006H12.7841Z" fill="black"/>
<path d="M17.5841 5.30006H15.1841V7.70006H17.5841V5.30006Z" fill="black"/>
<path d="M24.7841 5.30006C23.4586 5.30006 22.3841 6.37458 22.3841 7.70006H24.7841V5.30006Z" fill="black"/>
<path d="M27.1841 5.30006H24.7841V7.70006H27.1841V5.30006Z" fill="black"/>
<path d="M29.5841 5.30006H27.1841V7.70006H29.5841V5.30006Z" fill="black"/>
<path d="M31.9841 5.30006H29.5841V7.70006H31.9841V5.30006Z" fill="black"/>
<path d="M34.3841 5.30006H31.9841V7.70006H34.3841V5.30006Z" fill="black"/>
<path d="M41.5841 5.30006H39.1841V6.50006C39.1841 7.1628 39.7213 7.70006 40.3841 7.70006C41.0468 7.70006 41.5841 7.1628 41.5841 6.50006V5.30006Z" fill="black"/>
<path d="M46.3841 5.30006H43.9841V7.70006H46.3841V5.30006Z" fill="black"/>
<path d="M51.1841 5.30006C49.8586 5.30006 48.7841 6.37458 48.7841 7.70006H51.1841V5.30006Z" fill="black"/>
<path d="M53.5841 5.30006H51.1841V7.70006H53.5841V5.30006Z" fill="black"/>
<path d="M55.9841 7.70006C55.9841 6.37458 54.9095 5.30006 53.5841 5.30006V7.70006H55.9841Z" fill="black"/>
<path d="M60.7841 5.30006H58.3841V7.70006H60.7841V5.30006Z" fill="black"/>
<path d="M3.18406 7.70006H0.784058V10.1001H3.18406V7.70006Z" fill="black"/>
<path d="M7.98406 7.70006H5.58406V10.1001H7.98406V7.70006Z" fill="black"/>
<path d="M10.3841 7.70006H7.98406V10.1001H10.3841V7.70006Z" fill="black"/>
<path d="M12.7841 7.70006H10.3841V10.1001H12.7841V7.70006Z" fill="black"/>
<path d="M17.5841 7.70006H15.1841V10.1001H17.5841V7.70006Z" fill="black"/>
<path d="M24.7841 7.70006H22.3841V10.1001H24.7841V7.70006Z" fill="black"/>
<path d="M27.1841 7.70006H24.7841V10.1001H27.1841V7.70006Z" fill="black"/>
<path d="M34.3841 7.70006H31.9841V10.1001H34.3841V7.70006Z" fill="black"/>
<path d="M46.3841 7.70006H43.9841V10.1001H46.3841V7.70006Z" fill="black"/>
<path d="M51.1841 7.70006H48.7841V10.1001H51.1841V7.70006Z" fill="black"/>
<path d="M53.5841 7.70006H51.1841V10.1001H53.5841V7.70006Z" fill="black"/>
<path d="M55.9841 7.70006H53.5841V10.1001H55.9841V7.70006Z" fill="black"/>
<path d="M60.7841 7.70006H58.3841V10.1001H60.7841V7.70006Z" fill="black"/>
<path d="M3.18406 10.1001H0.784058V12.5001H3.18406V10.1001Z" fill="black"/>
<path d="M7.98406 10.1001H5.58406C5.58406 11.4255 6.65857 12.5001 7.98406 12.5001V10.1001Z" fill="black"/>
<path d="M10.3841 10.1001H7.98406V12.5001H10.3841V10.1001Z" fill="black"/>
<path d="M12.7841 10.1001H10.3841V12.5001C11.7095 12.5001 12.7841 11.4255 12.7841 10.1001Z" fill="black"/>
<path d="M17.5841 10.1001H15.1841V12.5001H17.5841V10.1001Z" fill="black"/>
<path d="M22.3841 10.1001H21.1841C20.5213 10.1001 19.9841 10.6373 19.9841 11.3001C19.9841 11.9628 20.5213 12.5001 21.1841 12.5001C21.8468 12.5001 22.3841 11.9628 22.3841 11.3001V10.1001Z" fill="black"/>
<path d="M27.1841 10.1001H24.7841C24.7841 11.4255 25.8586 12.5001 27.1841 12.5001V10.1001Z" fill="black"/>
<path d="M29.5841 10.1001H27.1841V12.5001H29.5841V10.1001Z" fill="black"/>
<path d="M31.9841 10.1001H29.5841V12.5001C30.9095 12.5001 31.9841 11.4255 31.9841 10.1001Z" fill="black"/>
<path d="M36.7841 12.5001C36.7841 11.1746 35.7095 10.1001 34.3841 10.1001V12.5001H36.7841Z" fill="black"/>
<path d="M46.3841 10.1001H43.9841V12.5001H46.3841V10.1001Z" fill="black"/>
<path d="M51.1841 10.1001H48.7841C48.7841 11.4255 49.8586 12.5001 51.1841 12.5001V10.1001Z" fill="black"/>
<path d="M53.5841 10.1001H51.1841V12.5001H53.5841V10.1001Z" fill="black"/>
<path d="M55.9841 10.1001H53.5841V12.5001C54.9095 12.5001 55.9841 11.4255 55.9841 10.1001Z" fill="black"/>
<path d="M60.7841 10.1001H58.3841V12.5001H60.7841V10.1001Z" fill="black"/>
<path d="M3.18406 12.5001H0.784058V14.9001H3.18406V12.5001Z" fill="black"/>
<path d="M17.5841 12.5001H15.1841V14.9001H17.5841V12.5001Z" fill="black"/>
<path d="M36.7841 12.5001H34.3841V14.9001H36.7841V12.5001Z" fill="black"/>
<path d="M46.3841 12.5001H43.9841V14.9001H46.3841V12.5001Z" fill="black"/>
<path d="M60.7841 12.5001H58.3841V14.9001H60.7841V12.5001Z" fill="black"/>
<path d="M3.18406 14.9001H0.784058C0.784058 16.2255 1.85858 17.3001 3.18406 17.3001V14.9001Z" fill="black"/>
<path d="M5.58406 14.9001L3.18406 14.9001V17.3001H5.58406V14.9001Z" fill="black"/>
<path d="M7.98406 14.9001H5.58406V17.3001H7.98406V14.9001Z" fill="black"/>
<path d="M10.3841 14.9001H7.98406V17.3001H10.3841V14.9001Z" fill="black"/>
<path d="M12.7841 14.9001H10.3841V17.3001H12.7841V14.9001Z" fill="black"/>
<path d="M15.1841 14.9001L12.7841 14.9001V17.3001H15.1841L15.1841 14.9001Z" fill="black"/>
<path d="M17.5841 14.9001H15.1841L15.1841 17.3001C16.5095 17.3001 17.5841 16.2255 17.5841 14.9001Z" fill="black"/>
<path d="M22.3841 16.1001C22.3841 15.4373 21.8468 14.9001 21.1841 14.9001C20.5213 14.9001 19.9841 15.4373 19.9841 16.1001V17.3001H22.3841V16.1001Z" fill="black"/>
<path d="M27.1841 16.1001C27.1841 15.4373 26.6468 14.9001 25.9841 14.9001C25.3213 14.9001 24.7841 15.4373 24.7841 16.1001V17.3001H27.1841V16.1001Z" fill="black"/>
<path d="M31.9841 16.1001C31.9841 15.4373 31.4468 14.9001 30.7841 14.9001C30.1213 14.9001 29.5841 15.4373 29.5841 16.1001V17.3001H31.9841V16.1001Z" fill="black"/>
<path d="M36.7841 14.9001H34.3841V17.3001H36.7841V14.9001Z" fill="black"/>
<path d="M41.5841 16.1001C41.5841 15.4373 41.0468 14.9001 40.3841 14.9001C39.7213 14.9001 39.1841 15.4373 39.1841 16.1001V17.3001H41.5841V16.1001Z" fill="black"/>
<path d="M46.3841 14.9001H43.9841C43.9841 16.2255 45.0586 17.3001 46.3841 17.3001V14.9001Z" fill="black"/>
<path d="M48.7841 14.9001L46.3841 14.9001V17.3001H48.7841V14.9001Z" fill="black"/>
<path d="M51.1841 14.9001H48.7841V17.3001H51.1841V14.9001Z" fill="black"/>
<path d="M53.5841 14.9001H51.1841V17.3001H53.5841V14.9001Z" fill="black"/>
<path d="M55.9841 14.9001H53.5841V17.3001H55.9841V14.9001Z" fill="black"/>
<path d="M58.3841 14.9001L55.9841 14.9001V17.3001H58.3841V14.9001Z" fill="black"/>
<path d="M60.7841 14.9001H58.3841V17.3001C59.7095 17.3001 60.7841 16.2255 60.7841 14.9001Z" fill="black"/>
<path d="M22.3841 17.3001H19.9841V19.7001H22.3841V17.3001Z" fill="black"/>
<path d="M27.1841 17.3001H24.7841V19.7001C26.1095 19.7001 27.1841 18.6255 27.1841 17.3001Z" fill="black"/>
<path d="M31.9841 17.3001H29.5841C29.5841 18.6255 30.6586 19.7001 31.9841 19.7001V17.3001Z" fill="black"/>
<path d="M34.3841 17.3001H31.9841V19.7001H34.3841V17.3001Z" fill="black"/>
<path d="M39.1841 17.3001H36.7841C36.7841 18.6255 37.8586 19.7001 39.1841 19.7001V17.3001Z" fill="black"/>
<path d="M41.5841 17.3001H39.1841V19.7001H41.5841V17.3001Z" fill="black"/>
<path d="M3.18406 20.9001C3.18406 20.2373 2.6468 19.7001 1.98406 19.7001C1.32132 19.7001 0.784058 20.2373 0.784058 20.9001C0.784058 21.5628 1.32132 22.1001 1.98406 22.1001H3.18406V20.9001Z" fill="black"/>
<path d="M10.3841 19.7001C9.05858 19.7001 7.98406 20.7746 7.98406 22.1001H10.3841V19.7001Z" fill="black"/>
<path d="M12.7841 19.7001H10.3841V22.1001H12.7841V19.7001Z" fill="black"/>
<path d="M15.1841 19.7001H12.7841V22.1001H15.1841V19.7001Z" fill="black"/>
<path d="M17.5841 19.7001H15.1841V22.1001H17.5841V19.7001Z" fill="black"/>
<path d="M19.9841 19.7001H17.5841V22.1001H19.9841V19.7001Z" fill="black"/>
<path d="M22.3841 19.7001H19.9841V22.1001H22.3841V19.7001Z" fill="black"/>
<path d="M24.7841 19.7001H22.3841V22.1001C23.7095 22.1001 24.7841 21.0255 24.7841 19.7001Z" fill="black"/>
<path d="M34.3841 19.7001H31.9841V22.1001C33.3095 22.1001 34.3841 21.0255 34.3841 19.7001Z" fill="black"/>
<path d="M41.5841 19.7001H39.1841V22.1001H41.5841V19.7001Z" fill="black"/>
<path d="M43.9841 19.7001H41.5841V22.1001H43.9841V19.7001Z" fill="black"/>
<path d="M46.3841 22.1001C46.3841 20.7746 45.3095 19.7001 43.9841 19.7001V22.1001H46.3841Z" fill="black"/>
<path d="M51.1841 20.9001C51.1841 20.2373 50.6468 19.7001 49.9841 19.7001C49.3213 19.7001 48.7841 20.2373 48.7841 20.9001V22.1001H51.1841V20.9001Z" fill="black"/>
<path d="M60.7841 20.9001C60.7841 20.2373 60.2468 19.7001 59.5841 19.7001C58.9213 19.7001 58.3841 20.2373 58.3841 20.9001V22.1001H60.7841V20.9001Z" fill="black"/>
<path d="M5.58406 24.5001C5.58406 23.1746 4.50954 22.1001 3.18406 22.1001V24.5001H5.58406Z" fill="black"/>
<path d="M10.3841 22.1001H7.98406V24.5001H10.3841V22.1001Z" fill="black"/>
<path d="M12.7841 22.1001H10.3841V24.5001H12.7841V22.1001Z" fill="black"/>
<path d="M19.9841 22.1001H17.5841V24.5001H19.9841V22.1001Z" fill="black"/>
<path d="M22.3841 22.1001H19.9841V24.5001H22.3841V22.1001Z" fill="black"/>
<path d="M31.9841 22.1001C30.6586 22.1001 29.5841 23.1746 29.5841 24.5001H31.9841V22.1001Z" fill="black"/>
<path d="M39.1841 22.1001C37.8586 22.1001 36.7841 23.1746 36.7841 24.5001H39.1841V22.1001Z" fill="black"/>
<path d="M43.9841 22.1001H41.5841V24.5001H43.9841V22.1001Z" fill="black"/>
<path d="M46.3841 22.1001H43.9841V24.5001H46.3841V22.1001Z" fill="black"/>
<path d="M51.1841 22.1001H48.7841V24.5001H51.1841V22.1001Z" fill="black"/>
<path d="M53.5841 22.1001H51.1841V24.5001H53.5841V22.1001Z" fill="black"/>
<path d="M55.9841 22.1001H53.5841V24.5001H55.9841V22.1001Z" fill="black"/>
<path d="M58.3841 22.1001H55.9841V24.5001H58.3841V22.1001Z" fill="black"/>
<path d="M60.7841 22.1001H58.3841V24.5001C59.7095 24.5001 60.7841 23.4255 60.7841 22.1001Z" fill="black"/>
<path d="M3.18406 24.5001C1.85857 24.5001 0.784058 25.5746 0.784058 26.9001H3.18406V24.5001Z" fill="black"/>
<path d="M5.58406 24.5001H3.18406V26.9001C4.50954 26.9001 5.58406 25.8255 5.58406 24.5001Z" fill="black"/>
<path d="M10.3841 24.5001H7.98406C7.98406 25.8255 9.05858 26.9001 10.3841 26.9001V24.5001Z" fill="black"/>
<path d="M12.7841 24.5001H10.3841V26.9001H12.7841V24.5001Z" fill="black"/>
<path d="M15.1841 24.5001H12.7841V26.9001H15.1841V24.5001Z" fill="black"/>
<path d="M17.5841 24.5001H15.1841V26.9001H17.5841V24.5001Z" fill="black"/>
<path d="M19.9841 24.5001H17.5841V26.9001H19.9841V24.5001Z" fill="black"/>
<path d="M24.7841 26.9001C24.7841 25.5746 23.7095 24.5001 22.3841 24.5001V26.9001H24.7841Z" fill="black"/>
<path d="M29.5841 24.5001C28.2586 24.5001 27.1841 25.5746 27.1841 26.9001H29.5841V24.5001Z" fill="black"/>
<path d="M31.9841 24.5001H29.5841V26.9001C30.9095 26.9001 31.9841 25.8255 31.9841 24.5001Z" fill="black"/>
<path d="M36.7841 24.5001C35.4586 24.5001 34.3841 25.5746 34.3841 26.9001H36.7841L36.7841 24.5001Z" fill="black"/>
<path d="M41.5841 24.5001H39.1841V26.9001H41.5841V24.5001Z" fill="black"/>
<path d="M43.9841 24.5001H41.5841V26.9001H43.9841V24.5001Z" fill="black"/>
<path d="M46.3841 24.5001H43.9841V26.9001H46.3841V24.5001Z" fill="black"/>
<path d="M48.7841 24.5001H46.3841V26.9001H48.7841V24.5001Z" fill="black"/>
<path d="M51.1841 24.5001H48.7841V26.9001H51.1841V24.5001Z" fill="black"/>
<path d="M53.5841 24.5001H51.1841V26.9001H53.5841V24.5001Z" fill="black"/>
<path d="M55.9841 24.5001H53.5841V26.9001H55.9841V24.5001Z" fill="black"/>
<path d="M58.3841 24.5001H55.9841V26.9001H58.3841V24.5001Z" fill="black"/>
<path d="M3.18406 26.9001H0.784058V29.3001H3.18406V26.9001Z" fill="black"/>
<path d="M12.7841 26.9001H10.3841V29.3001H12.7841V26.9001Z" fill="black"/>
<path d="M15.1841 26.9001H12.7841V29.3001H15.1841V26.9001Z" fill="black"/>
<path d="M19.9841 26.9001H17.5841V29.3001H19.9841V26.9001Z" fill="black"/>
<path d="M24.7841 26.9001H22.3841V29.3001H24.7841V26.9001Z" fill="black"/>
<path d="M27.1841 26.9001H24.7841V29.3001H27.1841V26.9001Z" fill="black"/>
<path d="M36.7841 26.9001H34.3841V29.3001H36.7841V26.9001Z" fill="black"/>
<path d="M39.1841 26.9001H36.7841V29.3001H39.1841V26.9001Z" fill="black"/>
<path d="M51.1841 26.9001H48.7841V29.3001H51.1841V26.9001Z" fill="black"/>
<path d="M55.9841 26.9001H53.5841V29.3001H55.9841V26.9001Z" fill="black"/>
<path d="M58.3841 26.9001H55.9841V29.3001H58.3841V26.9001Z" fill="black"/>
<path d="M3.18406 29.3001H0.784058V31.7001H3.18406V29.3001Z" fill="black"/>
<path d="M10.3841 29.3001H9.18406C8.52132 29.3001 7.98406 29.8373 7.98406 30.5001C7.98406 31.1628 8.52132 31.7001 9.18406 31.7001H10.3841V29.3001Z" fill="black"/>
<path d="M12.7841 29.3001H10.3841V31.7001H12.7841V29.3001Z" fill="black"/>
<path d="M15.1841 29.3001H12.7841V31.7001H15.1841V29.3001Z" fill="black"/>
<path d="M17.5841 29.3001H15.1841V31.7001H17.5841V29.3001Z" fill="black"/>
<path d="M19.9841 29.3001H17.5841V31.7001H19.9841V29.3001Z" fill="black"/>
<path d="M22.3841 29.3001H19.9841V31.7001H22.3841V29.3001Z" fill="black"/>
<path d="M27.1841 29.3001H24.7841V31.7001H27.1841V29.3001Z" fill="black"/>
<path d="M29.5841 31.7001C29.5841 30.3746 28.5095 29.3001 27.1841 29.3001V31.7001H29.5841Z" fill="black"/>
<path d="M34.3841 29.3001C33.0586 29.3001 31.9841 30.3746 31.9841 31.7001H34.3841V29.3001Z" fill="black"/>
<path d="M36.7841 29.3001H34.3841V31.7001H36.7841V29.3001Z" fill="black"/>
<path d="M41.5841 31.7001C41.5841 30.3746 40.5095 29.3001 39.1841 29.3001V31.7001H41.5841Z" fill="black"/>
<path d="M48.7841 29.3001H47.5841C46.9213 29.3001 46.3841 29.8373 46.3841 30.5001C46.3841 31.1628 46.9213 31.7001 47.5841 31.7001H48.7841V29.3001Z" fill="black"/>
<path d="M53.5841 29.3001H51.1841V31.7001H53.5841V29.3001Z" fill="black"/>
<path d="M55.9841 29.3001H53.5841V31.7001H55.9841V29.3001Z" fill="black"/>
<path d="M60.7841 31.7001C60.7841 30.3746 59.7095 29.3001 58.3841 29.3001V31.7001H60.7841Z" fill="black"/>
<path d="M3.18406 31.7001H0.784058V34.1001H3.18406V31.7001Z" fill="black"/>
<path d="M5.58406 34.1001C5.58406 32.7746 4.50954 31.7001 3.18406 31.7001V34.1001H5.58406Z" fill="black"/>
<path d="M19.9841 31.7001H17.5841V34.1001H19.9841V31.7001Z" fill="black"/>
<path d="M22.3841 31.7001H19.9841V34.1001H22.3841V31.7001Z" fill="black"/>
<path d="M24.7841 31.7001H22.3841V34.1001H24.7841V31.7001Z" fill="black"/>
<path d="M31.9841 31.7001H29.5841V34.1001H31.9841V31.7001Z" fill="black"/>
<path d="M36.7841 31.7001H34.3841V34.1001H36.7841V31.7001Z" fill="black"/>
<path d="M39.1841 31.7001H36.7841V34.1001H39.1841V31.7001Z" fill="black"/>
<path d="M41.5841 31.7001H39.1841V34.1001H41.5841V31.7001Z" fill="black"/>
<path d="M43.9841 34.1001C43.9841 32.7746 42.9095 31.7001 41.5841 31.7001V34.1001H43.9841Z" fill="black"/>
<path d="M51.1841 31.7001H48.7841V34.1001H51.1841V31.7001Z" fill="black"/>
<path d="M55.9841 31.7001H53.5841V34.1001H55.9841V31.7001Z" fill="black"/>
<path d="M58.3841 31.7001H55.9841V34.1001H58.3841V31.7001Z" fill="black"/>
<path d="M60.7841 31.7001H58.3841V34.1001C59.7095 34.1001 60.7841 33.0255 60.7841 31.7001Z" fill="black"/>
<path d="M3.18406 34.1001H0.784058C0.784058 35.4255 1.85857 36.5001 3.18406 36.5001V34.1001Z" fill="black"/>
<path d="M5.58406 34.1001H3.18406V36.5001H5.58406V34.1001Z" fill="black"/>
<path d="M7.98406 35.3001C7.98406 34.6373 7.4468 34.1001 6.78406 34.1001H5.58406V36.5001H6.78406C7.4468 36.5001 7.98406 35.9628 7.98406 35.3001Z" fill="black"/>
<path d="M17.5841 34.1001H16.3841C15.7213 34.1001 15.1841 34.6373 15.1841 35.3001C15.1841 35.9628 15.7213 36.5001 16.3841 36.5001H17.5841V34.1001Z" fill="black"/>
<path d="M24.7841 34.1001H22.3841V35.3001C22.3841 35.9628 22.9213 36.5001 23.5841 36.5001C24.2468 36.5001 24.7841 35.9628 24.7841 35.3001V34.1001Z" fill="black"/>
<path d="M29.5841 34.1001H28.3841C27.7213 34.1001 27.1841 34.6373 27.1841 35.3001C27.1841 35.9628 27.7213 36.5001 28.3841 36.5001H29.5841V34.1001Z" fill="black"/>
<path d="M31.9841 34.1001H29.5841V36.5001H31.9841V34.1001Z" fill="black"/>
<path d="M36.7841 34.1001H34.3841V36.5001H36.7841V34.1001Z" fill="black"/>
<path d="M43.9841 34.1001H41.5841C41.5841 35.4255 42.6586 36.5001 43.9841 36.5001V34.1001Z" fill="black"/>
<path d="M48.7841 34.1001C47.4586 34.1001 46.3841 35.1746 46.3841 36.5001H48.7841V34.1001Z" fill="black"/>
<path d="M51.1841 34.1001H48.7841V36.5001H51.1841V34.1001Z" fill="black"/>
<path d="M55.9841 34.1001H53.5841C53.5841 35.4255 54.6586 36.5001 55.9841 36.5001V34.1001Z" fill="black"/>
<path d="M5.58406 36.5001H3.18406V38.9001C4.50954 38.9001 5.58406 37.8255 5.58406 36.5001Z" fill="black"/>
<path d="M19.9841 38.9001C19.9841 37.5746 18.9095 36.5001 17.5841 36.5001V38.9001H19.9841Z" fill="black"/>
<path d="M31.9841 36.5001H29.5841V38.9001H31.9841V36.5001Z" fill="black"/>
<path d="M36.7841 36.5001H34.3841C34.3841 37.8255 35.4586 38.9001 36.7841 38.9001V36.5001Z" fill="black"/>
<path d="M39.1841 38.9001C39.1841 37.5746 38.1095 36.5001 36.7841 36.5001V38.9001H39.1841Z" fill="black"/>
<path d="M46.3841 36.5001H43.9841V38.9001H46.3841V36.5001Z" fill="black"/>
<path d="M51.1841 36.5001H48.7841V38.9001H51.1841V36.5001Z" fill="black"/>
<path d="M58.3841 38.9001C58.3841 37.5746 57.3095 36.5001 55.9841 36.5001V38.9001H58.3841Z" fill="black"/>
<path d="M3.18406 38.9001H1.98406C1.32132 38.9001 0.784058 39.4373 0.784058 40.1001C0.784058 40.7628 1.32132 41.3001 1.98406 41.3001C2.6468 41.3001 3.18406 40.7628 3.18406 40.1001V38.9001Z" fill="black"/>
<path d="M15.1841 38.9001H13.9841C13.3213 38.9001 12.7841 39.4373 12.7841 40.1001C12.7841 40.7628 13.3213 41.3001 13.9841 41.3001H15.1841V38.9001Z" fill="black"/>
<path d="M17.5841 38.9001H15.1841V41.3001H17.5841V38.9001Z" fill="black"/>
<path d="M19.9841 38.9001H17.5841V41.3001H19.9841V38.9001Z" fill="black"/>
<path d="M24.7841 38.9001C23.4586 38.9001 22.3841 39.9746 22.3841 41.3001H24.7841V38.9001Z" fill="black"/>
<path d="M27.1841 41.3001C27.1841 39.9746 26.1095 38.9001 24.7841 38.9001V41.3001H27.1841Z" fill="black"/>
<path d="M31.9841 38.9001H29.5841V41.3001H31.9841V38.9001Z" fill="black"/>
<path d="M39.1841 38.9001H36.7841L36.7841 41.3001H39.1841V38.9001Z" fill="black"/>
<path d="M41.5841 38.9001H39.1841V41.3001H41.5841V38.9001Z" fill="black"/>
<path d="M43.9841 38.9001H41.5841V41.3001H43.9841V38.9001Z" fill="black"/>
<path d="M46.3841 38.9001H43.9841V41.3001H46.3841V38.9001Z" fill="black"/>
<path d="M48.7841 38.9001H46.3841V41.3001H48.7841V38.9001Z" fill="black"/>
<path d="M51.1841 38.9001H48.7841V41.3001H51.1841V38.9001Z" fill="black"/>
<path d="M53.5841 41.3001C53.5841 39.9746 52.5095 38.9001 51.1841 38.9001V41.3001H53.5841Z" fill="black"/>
<path d="M58.3841 38.9001H55.9841V41.3001C57.3095 41.3001 58.3841 40.2255 58.3841 38.9001Z" fill="black"/>
<path d="M22.3841 41.3001H19.9841V43.7001H22.3841V41.3001Z" fill="black"/>
<path d="M27.1841 41.3001H24.7841V42.5001C24.7841 43.1628 25.3213 43.7001 25.9841 43.7001C26.6468 43.7001 27.1841 43.1628 27.1841 42.5001V41.3001Z" fill="black"/>
<path d="M31.9841 41.3001H29.5841V43.7001H31.9841V41.3001Z" fill="black"/>
<path d="M39.1841 41.3001H36.7841V43.7001H39.1841V41.3001Z" fill="black"/>
<path d="M41.5841 41.3001H39.1841V43.7001H41.5841V41.3001Z" fill="black"/>
<path d="M51.1841 41.3001H48.7841V43.7001H51.1841V41.3001Z" fill="black"/>
<path d="M53.5841 41.3001H51.1841V43.7001H53.5841V41.3001Z" fill="black"/>
<path d="M55.9841 41.3001H53.5841V43.7001H55.9841V41.3001Z" fill="black"/>
<path d="M3.18406 43.7001C1.85858 43.7001 0.784058 44.7746 0.784058 46.1001H3.18406V43.7001Z" fill="black"/>
<path d="M5.58406 43.7001H3.18406V46.1001H5.58406V43.7001Z" fill="black"/>
<path d="M7.98406 43.7001H5.58406V46.1001H7.98406V43.7001Z" fill="black"/>
<path d="M10.3841 43.7001H7.98406V46.1001H10.3841V43.7001Z" fill="black"/>
<path d="M12.7841 43.7001H10.3841V46.1001H12.7841V43.7001Z" fill="black"/>
<path d="M15.1841 43.7001H12.7841V46.1001H15.1841V43.7001Z" fill="black"/>
<path d="M17.5841 46.1001C17.5841 44.7746 16.5095 43.7001 15.1841 43.7001V46.1001H17.5841Z" fill="black"/>
<path d="M22.3841 43.7001H19.9841V46.1001H22.3841V43.7001Z" fill="black"/>
<path d="M31.9841 43.7001H29.5841V44.9001C29.5841 45.5628 30.1213 46.1001 30.7841 46.1001C31.4468 46.1001 31.9841 45.5628 31.9841 44.9001V43.7001Z" fill="black"/>
<path d="M39.1841 43.7001H36.7841V46.1001H39.1841V43.7001Z" fill="black"/>
<path d="M41.5841 43.7001H39.1841V46.1001H41.5841V43.7001Z" fill="black"/>
<path d="M46.3841 44.9001C46.3841 44.2373 45.8468 43.7001 45.1841 43.7001C44.5213 43.7001 43.9841 44.2373 43.9841 44.9001C43.9841 45.5628 44.5213 46.1001 45.1841 46.1001C45.8468 46.1001 46.3841 45.5628 46.3841 44.9001Z" fill="black"/>
<path d="M51.1841 43.7001H48.7841V46.1001H51.1841V43.7001Z" fill="black"/>
<path d="M53.5841 43.7001H51.1841V46.1001H53.5841V43.7001Z" fill="black"/>
<path d="M55.9841 43.7001H53.5841V46.1001H55.9841V43.7001Z" fill="black"/>
<path d="M60.7841 44.9001C60.7841 44.2373 60.2468 43.7001 59.5841 43.7001C58.9213 43.7001 58.3841 44.2373 58.3841 44.9001C58.3841 45.5628 58.9213 46.1001 59.5841 46.1001C60.2468 46.1001 60.7841 45.5628 60.7841 44.9001Z" fill="black"/>
<path d="M3.18406 46.1001H0.784058V48.5001H3.18406V46.1001Z" fill="black"/>
<path d="M17.5841 46.1001H15.1841L15.1841 48.5001H17.5841V46.1001Z" fill="black"/>
<path d="M22.3841 46.1001H19.9841V48.5001H22.3841V46.1001Z" fill="black"/>
<path d="M27.1841 47.3001C27.1841 46.6373 26.6468 46.1001 25.9841 46.1001C25.3213 46.1001 24.7841 46.6373 24.7841 47.3001V48.5001H27.1841V47.3001Z" fill="black"/>
<path d="M36.7841 46.1001C35.4586 46.1001 34.3841 47.1746 34.3841 48.5001H36.7841L36.7841 46.1001Z" fill="black"/>
<path d="M41.5841 46.1001H39.1841V48.5001H41.5841V46.1001Z" fill="black"/>
<path d="M51.1841 46.1001H48.7841V48.5001H51.1841V46.1001Z" fill="black"/>
<path d="M55.9841 46.1001H53.5841V47.3001C53.5841 47.9628 54.1213 48.5001 54.7841 48.5001C55.4468 48.5001 55.9841 47.9628 55.9841 47.3001V46.1001Z" fill="black"/>
<path d="M3.18406 48.5001H0.784058V50.9001H3.18406V48.5001Z" fill="black"/>
<path d="M7.98406 48.5001C6.65857 48.5001 5.58406 49.5746 5.58406 50.9001H7.98406V48.5001Z" fill="black"/>
<path d="M10.3841 48.5001H7.98406V50.9001H10.3841V48.5001Z" fill="black"/>
<path d="M12.7841 50.9001C12.7841 49.5746 11.7095 48.5001 10.3841 48.5001V50.9001H12.7841Z" fill="black"/>
<path d="M17.5841 48.5001H15.1841V50.9001H17.5841V48.5001Z" fill="black"/>
<path d="M22.3841 48.5001H19.9841V50.9001H22.3841V48.5001Z" fill="black"/>
<path d="M24.7841 48.5001H22.3841V50.9001H24.7841V48.5001Z" fill="black"/>
<path d="M27.1841 48.5001H24.7841V50.9001C26.1095 50.9001 27.1841 49.8255 27.1841 48.5001Z" fill="black"/>
<path d="M34.3841 48.5001C33.0586 48.5001 31.9841 49.5746 31.9841 50.9001H34.3841V48.5001Z" fill="black"/>
<path d="M36.7841 48.5001H34.3841V50.9001C35.7095 50.9001 36.7841 49.8255 36.7841 48.5001Z" fill="black"/>
<path d="M41.5841 48.5001H39.1841V50.9001H41.5841V48.5001Z" fill="black"/>
<path d="M43.9841 48.5001H41.5841V50.9001H43.9841V48.5001Z" fill="black"/>
<path d="M46.3841 48.5001H43.9841V50.9001H46.3841V48.5001Z" fill="black"/>
<path d="M48.7841 48.5001H46.3841V50.9001H48.7841V48.5001Z" fill="black"/>
<path d="M51.1841 48.5001H48.7841V50.9001H51.1841V48.5001Z" fill="black"/>
<path d="M60.7841 49.7001C60.7841 49.0373 60.2468 48.5001 59.5841 48.5001C58.9213 48.5001 58.3841 49.0373 58.3841 49.7001C58.3841 50.3628 58.9213 50.9001 59.5841 50.9001C60.2468 50.9001 60.7841 50.3628 60.7841 49.7001Z" fill="black"/>
<path d="M3.18406 50.9001H0.784058V53.3001H3.18406V50.9001Z" fill="black"/>
<path d="M7.98406 50.9001H5.58406V53.3001H7.98406V50.9001Z" fill="black"/>
<path d="M10.3841 50.9001H7.98406V53.3001H10.3841V50.9001Z" fill="black"/>
<path d="M12.7841 50.9001H10.3841V53.3001H12.7841V50.9001Z" fill="black"/>
<path d="M17.5841 50.9001H15.1841V53.3001H17.5841V50.9001Z" fill="black"/>
<path d="M22.3841 50.9001H19.9841V52.1001C19.9841 52.7628 20.5213 53.3001 21.1841 53.3001C21.8468 53.3001 22.3841 52.7628 22.3841 52.1001V50.9001Z" fill="black"/>
<path d="M31.9841 50.9001C30.6586 50.9001 29.5841 51.9746 29.5841 53.3001H31.9841V50.9001Z" fill="black"/>
<path d="M41.5841 50.9001H39.1841V53.3001H41.5841V50.9001Z" fill="black"/>
<path d="M43.9841 50.9001H41.5841V53.3001C42.9095 53.3001 43.9841 52.2255 43.9841 50.9001Z" fill="black"/>
<path d="M53.5841 53.3001C53.5841 51.9746 52.5095 50.9001 51.1841 50.9001V53.3001H53.5841Z" fill="black"/>
<path d="M3.18406 53.3001H0.784058V55.7001H3.18406V53.3001Z" fill="black"/>
<path d="M7.98406 53.3001H5.58406C5.58406 54.6255 6.65858 55.7001 7.98406 55.7001V53.3001Z" fill="black"/>
<path d="M10.3841 53.3001H7.98406V55.7001H10.3841V53.3001Z" fill="black"/>
<path d="M12.7841 53.3001H10.3841V55.7001C11.7095 55.7001 12.7841 54.6255 12.7841 53.3001Z" fill="black"/>
<path d="M17.5841 53.3001H15.1841V55.7001H17.5841V53.3001Z" fill="black"/>
<path d="M29.5841 53.3001C28.2586 53.3001 27.1841 54.3746 27.1841 55.7001H29.5841V53.3001Z" fill="black"/>
<path d="M31.9841 53.3001H29.5841V55.7001H31.9841V53.3001Z" fill="black"/>
<path d="M36.7841 53.3001C35.4586 53.3001 34.3841 54.3746 34.3841 55.7001H36.7841V53.3001Z" fill="black"/>
<path d="M39.1841 53.3001H36.7841V55.7001H39.1841V53.3001Z" fill="black"/>
<path d="M41.5841 53.3001H39.1841V55.7001H41.5841V53.3001Z" fill="black"/>
<path d="M48.7841 53.3001C47.4586 53.3001 46.3841 54.3746 46.3841 55.7001H48.7841V53.3001Z" fill="black"/>
<path d="M51.1841 53.3001H48.7841V55.7001H51.1841V53.3001Z" fill="black"/>
<path d="M55.9841 53.3001H53.5841V55.7001H55.9841V53.3001Z" fill="black"/>
<path d="M58.3841 53.3001H55.9841V55.7001H58.3841V53.3001Z" fill="black"/>
<path d="M60.7841 55.7001C60.7841 54.3746 59.7095 53.3001 58.3841 53.3001V55.7001H60.7841Z" fill="black"/>
<path d="M3.18406 55.7001H0.784058V58.1001H3.18406V55.7001Z" fill="black"/>
<path d="M17.5841 55.7001H15.1841V58.1001H17.5841V55.7001Z" fill="black"/>
<path d="M24.7841 55.7001C23.4586 55.7001 22.3841 56.7746 22.3841 58.1001H24.7841V55.7001Z" fill="black"/>
<path d="M27.1841 55.7001H24.7841V58.1001H27.1841V55.7001Z" fill="black"/>
<path d="M29.5841 55.7001H27.1841V58.1001H29.5841V55.7001Z" fill="black"/>
<path d="M34.3841 55.7001H31.9841V58.1001H34.3841V55.7001Z" fill="black"/>
<path d="M36.7841 55.7001H34.3841V58.1001C35.7095 58.1001 36.7841 57.0255 36.7841 55.7001Z" fill="black"/>
<path d="M43.9841 55.7001H41.5841V58.1001H43.9841V55.7001Z" fill="black"/>
<path d="M46.3841 55.7001H43.9841V58.1001H46.3841V55.7001Z" fill="black"/>
<path d="M48.7841 55.7001H46.3841V58.1001H48.7841V55.7001Z" fill="black"/>
<path d="M51.1841 55.7001H48.7841V58.1001H51.1841V55.7001Z" fill="black"/>
<path d="M55.9841 55.7001H53.5841V58.1001H55.9841V55.7001Z" fill="black"/>
<path d="M58.3841 55.7001H55.9841V58.1001H58.3841V55.7001Z" fill="black"/>
<path d="M60.7841 55.7001H58.3841V58.1001H60.7841V55.7001Z" fill="black"/>
<path d="M3.18406 58.1001H0.784058C0.784058 59.4255 1.85857 60.5001 3.18406 60.5001V58.1001Z" fill="black"/>
<path d="M5.58406 58.1001H3.18406V60.5001H5.58406V58.1001Z" fill="black"/>
<path d="M7.98406 58.1001H5.58406V60.5001H7.98406V58.1001Z" fill="black"/>
<path d="M10.3841 58.1001H7.98406V60.5001H10.3841V58.1001Z" fill="black"/>
<path d="M12.7841 58.1001H10.3841V60.5001H12.7841V58.1001Z" fill="black"/>
<path d="M15.1841 58.1001H12.7841V60.5001H15.1841L15.1841 58.1001Z" fill="black"/>
<path d="M17.5841 58.1001H15.1841L15.1841 60.5001C16.5095 60.5001 17.5841 59.4255 17.5841 58.1001Z" fill="black"/>
<path d="M22.3841 58.1001H21.1841C20.5213 58.1001 19.9841 58.6373 19.9841 59.3001C19.9841 59.9628 20.5213 60.5001 21.1841 60.5001C21.8468 60.5001 22.3841 59.9628 22.3841 59.3001V58.1001Z" fill="black"/>
<path d="M29.5841 58.1001H27.1841C27.1841 59.4255 28.2586 60.5001 29.5841 60.5001V58.1001Z" fill="black"/>
<path d="M31.9841 58.1001H29.5841V60.5001C30.9095 60.5001 31.9841 59.4255 31.9841 58.1001Z" fill="black"/>
<path d="M41.5841 58.1001H40.3841C39.7213 58.1001 39.1841 58.6373 39.1841 59.3001C39.1841 59.9628 39.7213 60.5001 40.3841 60.5001C41.0468 60.5001 41.5841 59.9628 41.5841 59.3001V58.1001Z" fill="black"/>
<path d="M53.5841 58.1001H51.1841V59.3001C51.1841 59.9628 51.7213 60.5001 52.3841 60.5001C53.0468 60.5001 53.5841 59.9628 53.5841 59.3001V58.1001Z" fill="black"/>
<path d="M60.7841 58.1001H58.3841V59.3001C58.3841 59.9628 58.9213 60.5001 59.5841 60.5001C60.2468 60.5001 60.7841 59.9628 60.7841 59.3001V58.1001Z" fill="black"/>
</mask>
<g mask="url(#mask0)">
</g>
</svg>
