<svg width="19" height="21" viewBox="0 0 19 21" fill="none" xmlns="http://www.w3.org/2000/svg">
<path fill-rule="evenodd" clip-rule="evenodd" d="M11.8378 0.906727C11.0768 0.600747 10.2475 0.433105 9.38248 0.433105C6.02642 0.433105 3.20705 2.95656 2.83644 6.29209L2.58464 8.55831L2.57859 8.61236C2.46576 9.59559 2.14572 10.5437 1.63959 11.3942L1.61164 11.4409L1.03361 12.4042L1.00946 12.4445C0.767936 12.847 0.549121 13.2116 0.403368 13.5211C0.25525 13.8356 0.0968785 14.2617 0.173111 14.7448C0.24846 15.2224 0.494237 15.6565 0.864962 15.9668C1.24003 16.2807 1.68691 16.3641 2.0328 16.3989C2.37317 16.4332 2.79842 16.4331 3.26781 16.4331L3.31471 16.4331H15.4502L15.4972 16.4331C15.9665 16.4331 16.3918 16.4332 16.7322 16.3989C17.0781 16.3641 17.5249 16.2807 17.9 15.9668C18.2707 15.6565 18.5165 15.2224 18.5919 14.7448C18.6681 14.2617 18.5097 13.8356 18.3616 13.5211C18.2158 13.2116 17.997 12.8469 17.7555 12.4445L17.7314 12.4042L17.1533 11.4409L17.1254 11.3942C16.7466 10.7578 16.4721 10.0667 16.3106 9.34713C16.0099 9.40358 15.6996 9.43311 15.3825 9.43311C14.9985 9.43311 14.6247 9.38983 14.2655 9.30788C14.4501 10.4046 14.8366 11.459 15.4067 12.417L15.4383 12.4698L16.0164 13.4332C16.2899 13.8891 16.4547 14.1661 16.5522 14.3732C16.5576 14.3845 16.5624 14.3952 16.5669 14.4052C16.5561 14.4064 16.5444 14.4077 16.532 14.409C16.3042 14.4319 15.9818 14.4331 15.4502 14.4331H3.31471C2.78312 14.4331 2.46074 14.4319 2.233 14.409C2.22054 14.4077 2.2089 14.4064 2.19803 14.4052C2.20252 14.3952 2.20741 14.3845 2.21274 14.3732C2.31027 14.1661 2.47509 13.8891 2.74859 13.4332L3.32663 12.4698L3.35826 12.417C4.009 11.3235 4.42048 10.1045 4.56555 8.84037L4.5724 8.77917L4.82421 6.51295C5.08228 4.19029 7.04552 2.43311 9.38248 2.43311C9.8455 2.43311 10.2938 2.50209 10.7172 2.63078C10.9691 1.97905 11.3537 1.39333 11.8378 0.906727ZM14.3646 2.71114C13.7767 3.05943 13.3825 3.70023 13.3825 4.43311C13.3825 4.57813 13.3979 4.71956 13.4272 4.85582C13.5476 5.08071 13.65 5.31715 13.7322 5.56331C14.0926 6.08858 14.6973 6.43311 15.3825 6.43311C15.5744 6.43311 15.7599 6.40609 15.9356 6.35564L15.9285 6.29209C15.7763 4.92185 15.2108 3.68865 14.3646 2.71114Z" fill="#606060"/>
<path d="M6.48479 16.0978C6.65572 17.0546 7.03235 17.9002 7.55628 18.5032C8.08022 19.1062 8.72216 19.4331 9.38257 19.4331C10.043 19.4331 10.6849 19.1062 11.2089 18.5032C11.7328 17.9002 12.1094 17.0546 12.2803 16.0978" stroke="#606060" stroke-width="2" stroke-linecap="round"/>
<circle cx="15.3826" cy="4.43311" r="2" fill="#DD0000"/>
</svg>
