<svg width="21" height="22" viewBox="0 0 21 22" fill="none" xmlns="http://www.w3.org/2000/svg">
<path d="M19.1215 3.81488L19.953 3.25931L19.953 3.2593L19.1215 3.81488ZM19.1215 15.565L19.953 16.1206L19.953 16.1206L19.1215 15.565ZM17.8799 16.8066L18.4355 17.638L17.8799 16.8066ZM13.1299 17.5634L13.1255 16.5634C12.5749 16.5658 12.1299 17.0128 12.1299 17.5634H13.1299ZM13.1299 17.5649L14.0243 18.0122C14.0937 17.8733 14.1299 17.7202 14.1299 17.5649H13.1299ZM8.62988 17.5649H7.62988C7.62988 17.7202 7.66603 17.8733 7.73546 18.0122L8.62988 17.5649ZM8.62988 17.5634H9.62988C9.62988 17.0128 9.18482 16.5658 8.63424 16.5634L8.62988 17.5634ZM3.87982 16.8066L3.32425 17.638H3.32425L3.87982 16.8066ZM2.63827 15.565L1.8068 16.1206H1.8068L2.63827 15.565ZM2.63827 3.81488L3.46974 4.37045L2.63827 3.81488ZM3.87982 2.57333L4.43539 3.4048L3.87982 2.57333ZM17.8799 2.57333L17.3244 3.4048L17.3244 3.4048L17.8799 2.57333ZM20.8799 9.68994C20.8799 8.13073 20.8811 6.88606 20.7799 5.89182C20.6771 4.88086 20.4602 4.01851 19.953 3.25931L18.29 4.37045C18.5411 4.74625 18.7035 5.24141 18.7902 6.09423C18.8787 6.96376 18.8799 8.08911 18.8799 9.68994H20.8799ZM19.953 16.1206C20.4602 15.3614 20.6771 14.499 20.7799 13.4881C20.8811 12.4938 20.8799 11.2491 20.8799 9.68994H18.8799C18.8799 11.2908 18.8787 12.4161 18.7902 13.2857C18.7035 14.1385 18.5411 14.6336 18.29 15.0094L19.953 16.1206ZM18.4355 17.638C19.0361 17.2368 19.5517 16.7211 19.953 16.1206L18.29 15.0094C18.0347 15.3916 17.7065 15.7197 17.3244 15.9751L18.4355 17.638ZM13.1342 18.5634C14.3432 18.5581 15.3455 18.5354 16.1803 18.42C17.0312 18.3024 17.7724 18.0811 18.4355 17.638L17.3244 15.9751C16.9959 16.1945 16.5758 16.3463 15.9064 16.4389C15.221 16.5336 14.344 16.5581 13.1255 16.5634L13.1342 18.5634ZM14.1299 17.5649V17.5634H12.1299V17.5649H14.1299ZM12.6687 20.7233L14.0243 18.0122L12.2355 17.1177L10.8799 19.8289L12.6687 20.7233ZM9.09103 20.7233C9.82808 22.1974 11.9317 22.1974 12.6687 20.7233L10.8799 19.8289L10.8799 19.8289L9.09103 20.7233ZM7.73546 18.0122L9.09103 20.7233L10.8799 19.8289L9.52431 17.1177L7.73546 18.0122ZM7.62988 17.5634V17.5649H9.62988V17.5634H7.62988ZM3.32425 17.638C3.98732 18.0811 4.72855 18.3024 5.57946 18.42C6.4143 18.5354 7.41657 18.5581 8.62552 18.5634L8.63424 16.5634C7.41578 16.5581 6.53878 16.5336 5.85332 16.4389C5.18393 16.3463 4.76383 16.1945 4.43539 15.9751L3.32425 17.638ZM1.8068 16.1206C2.20807 16.7211 2.7237 17.2368 3.32425 17.638L4.43539 15.9751C4.05322 15.7197 3.72509 15.3916 3.46974 15.0094L1.8068 16.1206ZM0.879883 9.68994C0.879883 11.2491 0.878674 12.4938 0.979816 13.4881C1.08266 14.499 1.29952 15.3614 1.8068 16.1206L3.46974 15.0094C3.21863 14.6336 3.0563 14.1385 2.96955 13.2857C2.88109 12.4161 2.87988 11.2908 2.87988 9.68994H0.879883ZM1.8068 3.25931C1.29952 4.0185 1.08266 4.88086 0.979816 5.89182C0.878674 6.88606 0.879883 8.13073 0.879883 9.68994H2.87988C2.87988 8.08911 2.88109 6.96376 2.96955 6.09423C3.0563 5.24141 3.21863 4.74625 3.46974 4.37045L1.8068 3.25931ZM3.32425 1.74186C2.7237 2.14313 2.20807 2.65876 1.8068 3.25931L3.46974 4.37045C3.72509 3.98828 4.05322 3.66015 4.43539 3.4048L3.32425 1.74186ZM9.75488 0.814941C8.19568 0.814941 6.951 0.813733 5.95676 0.914874C4.9458 1.01772 4.08345 1.23458 3.32425 1.74186L4.43539 3.4048C4.81119 3.15369 5.30635 2.99136 6.15917 2.90461C7.0287 2.81615 8.15405 2.81494 9.75488 2.81494V0.814941ZM12.0049 0.814941H9.75488V2.81494H12.0049V0.814941ZM18.4355 1.74186C17.6763 1.23458 16.814 1.01772 15.803 0.914874C14.8088 0.813733 13.5641 0.814941 12.0049 0.814941V2.81494C13.6057 2.81494 14.7311 2.81615 15.6006 2.90461C16.4534 2.99136 16.9486 3.15369 17.3244 3.4048L18.4355 1.74186ZM19.953 3.2593C19.5517 2.65876 19.0361 2.14313 18.4355 1.74186L17.3244 3.4048C17.7065 3.66015 18.0347 3.98828 18.29 4.37045L19.953 3.2593Z" fill="#606060"/>
<circle cx="15.3799" cy="9.68994" r="1.125" fill="#606060" stroke="#606060" stroke-linecap="round"/>
<circle cx="10.8799" cy="9.68994" r="1.125" fill="#606060" stroke="#606060" stroke-linecap="round"/>
<circle cx="6.37988" cy="9.68994" r="1.125" fill="#606060" stroke="#606060" stroke-linecap="round"/>
</svg>
