<svg width="21" height="24" viewBox="0 0 21 24" fill="none" xmlns="http://www.w3.org/2000/svg">
<path d="M1.979 11.8543C1.979 10.1086 1.979 9.23575 2.33188 8.46851C2.68476 7.70128 3.34747 7.13324 4.6729 5.99716L5.95861 4.89512C8.35431 2.84167 9.55215 1.81494 10.979 1.81494C12.4059 1.81494 13.6037 2.84167 15.9994 4.89512L17.2851 5.99716C18.6105 7.13324 19.2732 7.70128 19.6261 8.46851C19.979 9.23575 19.979 10.1086 19.979 11.8543V17.3062C19.979 19.7306 19.979 20.9428 19.2258 21.6959C18.4727 22.4491 17.2605 22.4491 14.8361 22.4491H7.12186C4.69749 22.4491 3.48531 22.4491 2.73216 21.6959C1.979 20.9428 1.979 19.7306 1.979 17.3062V11.8543Z" stroke="#DD0000" stroke-width="2"/>
<path d="M14.1932 22.4491V15.7349C14.1932 15.1826 13.7455 14.7349 13.1932 14.7349H8.76465C8.21236 14.7349 7.76465 15.1826 7.76465 15.7349V22.4491" stroke="#DD0000" stroke-width="2" stroke-linecap="round" stroke-linejoin="round"/>
</svg>
