<svg width="19" height="19" viewBox="0 0 19 19" fill="none" xmlns="http://www.w3.org/2000/svg">
<rect x="1.98999" y="1.81494" width="16" height="16" rx="3" stroke="#606060" stroke-width="2"/>
<path d="M10.576 8.54793C11.1917 8.93275 11.5884 9.18211 11.8597 9.39225C12.0736 9.55789 12.1245 9.63716 12.132 9.65055C12.1691 9.75701 12.1691 9.87287 12.132 9.97933C12.1245 9.99272 12.0736 10.072 11.8597 10.2376C11.5884 10.4478 11.1917 10.6971 10.576 11.0819C9.89424 11.508 9.44731 11.7859 9.10351 11.9554C8.83204 12.0892 8.72715 12.1011 8.71066 12.1022C8.59538 12.0837 8.49021 12.0254 8.41341 11.9375C8.40559 11.9229 8.3601 11.8276 8.32971 11.5265C8.29121 11.1452 8.28999 10.6189 8.28999 9.81494C8.28999 9.011 8.29121 8.48472 8.32971 8.10336C8.3601 7.80222 8.40559 7.70697 8.41341 7.6924C8.49021 7.60446 8.59538 7.54617 8.71066 7.52765C8.72716 7.52874 8.83205 7.54066 9.10351 7.67448C9.44731 7.84395 9.89424 8.12185 10.576 8.54793ZM12.1331 9.97726C12.1331 9.97726 12.1329 9.97768 12.1324 9.97854L12.1331 9.97726Z" stroke="#606060" stroke-width="2"/>
</svg>
