<svg width="20" height="21" viewBox="0 0 20 21" fill="none" xmlns="http://www.w3.org/2000/svg">
<path d="M4.60067 6.46942C4.91502 3.64032 7.30632 1.5 10.1528 1.5V1.5C12.9993 1.5 15.3906 3.64032 15.705 6.46942L15.9568 8.73563C15.96 8.76452 15.9616 8.77897 15.9632 8.79326C16.0922 9.91695 16.458 11.0005 17.0364 11.9725C17.0437 11.9849 17.0512 11.9973 17.0662 12.0222L17.6442 12.9856C18.1688 13.8599 18.431 14.297 18.3744 14.6559C18.3367 14.8946 18.2139 15.1117 18.0285 15.2668C17.7499 15.5 17.2401 15.5 16.2206 15.5H4.08506C3.06552 15.5 2.55574 15.5 2.27717 15.2668C2.09181 15.1117 1.96892 14.8946 1.93124 14.6559C1.87462 14.297 2.1369 13.8599 2.66145 12.9856L3.23949 12.0222C3.25444 11.9973 3.26192 11.9849 3.26928 11.9725C3.84771 11.0005 4.21347 9.91695 4.34242 8.79326C4.34406 8.77897 4.34566 8.76452 4.34887 8.73563L4.60067 6.46942Z" stroke="#606060" stroke-width="2"/>
<path d="M7.25505 16.1647C7.42598 17.1215 7.80261 17.967 8.32655 18.5701C8.85048 19.1731 9.49243 19.5 10.1528 19.5C10.8132 19.5 11.4552 19.1731 11.9791 18.5701C12.503 17.967 12.8797 17.1215 13.0506 16.1647" stroke="#606060" stroke-width="2" stroke-linecap="round"/>
</svg>
