<svg width="20" height="21" viewBox="0 0 20 21" fill="none" xmlns="http://www.w3.org/2000/svg">
<circle cx="9.05777" cy="5.67496" r="3.86002" stroke="#606060" stroke-width="2" stroke-linecap="round"/>
<path fill-rule="evenodd" clip-rule="evenodd" d="M10.1379 12.447C9.78031 12.4125 9.41942 12.3951 9.05735 12.3951C7.1995 12.3951 5.3727 12.8537 3.8589 13.7249C2.34567 14.5957 1.19305 15.8544 0.658665 17.3501C0.472855 17.8702 0.743841 18.4425 1.26393 18.6283C1.78402 18.8141 2.35627 18.5431 2.54208 18.023C2.88739 17.0565 3.67319 16.1393 4.85649 15.4583C5.79664 14.9173 6.92282 14.5646 8.11925 14.4427C8.4137 13.4845 9.17511 12.7307 10.1379 12.447Z" fill="#606060"/>
<path d="M14.8474 11.4648L14.8474 19.1848" stroke="#606060" stroke-width="2.5" stroke-linecap="round"/>
<path d="M18.7075 15.3249L10.9875 15.3249" stroke="#606060" stroke-width="2.5" stroke-linecap="round"/>
</svg>
