<svg width="601" height="600" viewBox="0 0 601 600" fill="none" xmlns="http://www.w3.org/2000/svg">
<path d="M132.17 501.6C132.07 501.7 131.57 501.2 130.57 500.6C130.07 500.3 129.47 499.8 128.77 499.4C128.37 499.2 127.97 499 127.57 498.8C127.17 498.6 126.67 498.4 126.27 498.3C125.77 498.2 125.47 498.3 125.37 498.5C125.17 498.7 125.17 499.4 125.07 500C124.97 501.2 124.97 502.6 125.07 504C125.37 506.8 126.27 509.8 127.77 512.7C129.27 515.6 131.17 518.1 133.07 520.2C134.97 522.3 136.87 524.1 138.47 525.6C141.67 528.5 143.77 530.3 143.57 530.5C143.47 530.7 141.17 529.2 137.67 526.4C135.97 525 133.97 523.3 131.97 521.1C129.97 519 127.97 516.4 126.37 513.3C124.77 510.2 123.87 507 123.67 504C123.57 502.5 123.57 501.1 123.77 499.8C123.87 499.5 123.87 499.2 123.97 498.8C124.07 498.5 124.17 498.1 124.47 497.7C124.77 497.3 125.17 497.1 125.57 497.1C125.97 497 126.37 497.1 126.67 497.2C127.27 497.4 127.77 497.7 128.17 497.9C128.57 498.2 128.97 498.4 129.37 498.7C130.07 499.2 130.67 499.7 131.17 500.2C131.87 501 132.27 501.6 132.17 501.6Z" fill="black" stroke="black" stroke-width="0.5" stroke-miterlimit="10"/>
<path d="M156.17 511.6C156.07 511.6 155.27 509.9 153.77 506.8C152.27 503.7 150.17 499.2 147.57 493.6C144.87 488.1 141.67 481.5 137.87 474.3C135.97 470.7 134.07 466.8 131.67 463.2C130.47 461.4 129.07 459.7 127.47 458.2C126.67 457.5 125.77 456.7 124.87 456.2C123.97 455.7 122.87 455.4 122.07 455.5C121.27 455.7 120.87 456.3 120.87 457.4C120.97 458.5 121.07 459.7 121.17 460.9C121.47 463.2 121.87 465.5 122.37 467.7C122.87 469.9 123.47 472.1 124.07 474.1C124.27 474.6 124.37 475.1 124.57 475.6L124.87 476.4L124.97 476.8L125.17 477.3C125.47 478.1 125.87 479 126.17 479.8L126.67 481.1L126.77 481.4C126.77 481.5 126.77 481.5 126.77 481.5C126.77 481.5 126.77 481.6 126.77 481.7L126.87 481.9C125.97 481.3 124.97 480.6 124.27 480.1C123.87 479.9 123.57 479.7 123.27 479.6C123.17 479.6 122.97 479.5 122.87 479.5H122.67C122.57 479.5 122.47 479.5 122.27 479.5C122.27 479.5 122.07 479.5 122.17 479.5V479.7L122.27 480.2C122.37 480.5 122.47 480.9 122.47 481.2C122.67 481.9 122.77 482.5 122.97 483.2C123.67 485.8 124.57 488.3 125.57 490.5C127.47 495 129.67 498.8 131.67 501.7C133.67 504.7 135.47 506.9 136.77 508.3C138.07 509.8 138.77 510.6 138.67 510.6C138.67 510.7 137.77 510 136.47 508.6C135.07 507.2 133.17 505.1 131.07 502.2C128.97 499.3 126.57 495.5 124.57 490.9C123.57 488.6 122.57 486.1 121.77 483.5C121.57 482.8 121.37 482.2 121.17 481.5C121.07 481.2 120.97 480.8 120.87 480.5L120.67 479.8C120.57 479.5 120.57 479.2 120.47 478.9L120.37 478.1V478V477.9H120.57H120.97C121.57 477.9 122.17 477.9 122.77 478C122.97 478 122.97 478 123.07 478.1H123.17L123.37 478.2C123.47 478.2 123.57 478.3 123.67 478.3L123.77 478.4V478.3L123.67 478.1L123.47 477.6C123.27 477.1 123.17 476.7 122.97 476.2C122.77 475.7 122.57 475.2 122.47 474.6C121.77 472.5 121.17 470.3 120.67 468.1C120.17 465.8 119.77 463.5 119.47 461.2C119.37 460 119.17 458.9 119.07 457.6C119.07 456.9 119.07 456.2 119.57 455.4C119.97 454.7 120.77 454.2 121.57 454C123.07 453.8 124.37 454.3 125.47 454.9C126.57 455.6 127.47 456.3 128.37 457.1C130.07 458.7 131.57 460.6 132.77 462.4C135.27 466.2 137.07 470.1 138.97 473.7C142.67 481 145.77 487.6 148.37 493.2C150.87 498.8 152.87 503.4 154.17 506.6C155.57 509.7 156.27 511.5 156.17 511.6Z" fill="black" stroke="black" stroke-width="0.5" stroke-miterlimit="10"/>
<path d="M164.77 513.3C164.57 513.4 163.47 511.1 161.77 507.4C160.07 503.7 157.87 498.5 155.57 492.7C154.97 491.3 154.47 489.8 153.87 488.5C153.27 487.3 152.57 486.1 151.57 485.5C150.67 484.9 149.57 485 148.77 485.6C147.97 486.2 147.57 487.2 147.37 488C147.17 488.9 147.37 489.8 147.57 490.5C147.77 491.2 148.07 491.9 148.27 492.4C148.67 493.4 148.97 494 148.87 494.1C148.77 494.2 148.37 493.7 147.67 492.7C147.37 492.2 146.97 491.6 146.67 490.8C146.37 490 146.07 489 146.17 487.9C146.27 486.8 146.77 485.5 147.87 484.6C148.37 484.1 149.17 483.8 149.97 483.7C150.77 483.6 151.57 483.8 152.27 484.3C153.67 485.2 154.47 486.5 155.17 487.9C155.87 489.3 156.37 490.7 156.97 492.1C159.27 497.9 161.27 503.2 162.67 507C164.17 510.8 164.97 513.2 164.77 513.3Z" fill="black" stroke="black" stroke-width="0.5" stroke-miterlimit="10"/>
<path d="M489.57 479.2C489.47 479.2 489.37 478.7 489.27 477.8C489.17 476.9 489.07 475.6 488.37 474.3C488.07 473.7 487.47 473.2 486.67 472.9C485.97 472.6 485.07 472.7 484.57 473.2C484.07 473.7 483.67 474.8 483.37 475.9C483.07 477 482.67 478.1 482.47 479.3C481.37 484 481.27 488.5 481.47 491.7C481.67 494.9 481.97 496.9 481.77 497C481.57 497.1 480.77 495.1 480.37 491.9C479.87 488.6 479.77 484 480.97 479C481.27 477.8 481.57 476.6 481.97 475.4C482.17 474.8 482.37 474.3 482.57 473.7C482.77 473.1 483.17 472.5 483.67 472.1C484.17 471.6 484.87 471.3 485.57 471.3C486.27 471.3 486.77 471.4 487.37 471.6C488.37 472.1 489.17 472.8 489.57 473.7C490.37 475.4 490.17 476.8 490.07 477.7C489.77 478.7 489.67 479.2 489.57 479.2Z" fill="black" stroke="black" stroke-width="0.5" stroke-miterlimit="10"/>
<path d="M504.67 483.1C504.57 483.1 504.87 481.6 505.47 478.8C506.07 476.1 507.07 472.1 508.07 467.2C509.07 462.3 510.27 456.5 511.27 449.9C511.57 448.3 511.77 446.6 512.07 444.9C512.17 444 512.27 443.2 512.47 442.3C512.57 441.9 512.57 441.4 512.57 441.1C512.57 440.7 512.57 440.3 512.47 439.9C512.37 439.5 512.27 439.2 512.07 438.9C511.87 438.7 511.77 438.6 511.57 438.6C511.37 438.6 511.17 438.7 510.87 438.9C510.57 439.1 510.27 439.5 509.87 439.8C508.57 441.1 507.47 442.5 506.47 444.1C504.77 446.7 503.57 449.6 502.57 452.4C502.37 453.1 502.07 453.8 501.87 454.5L501.57 455.6C501.37 456.1 501.27 456.6 501.07 457.1C500.67 458.3 500.37 459.6 499.97 460.8C499.37 463 499.97 460.4 498.97 463.8C498.87 462.4 498.87 461 498.77 459.7V459.3V459.1V459V458.5V458.1C498.77 458 498.77 457.9 498.67 457.8C498.57 457.4 498.47 457.2 498.27 456.9C498.07 456.6 497.97 456.5 497.97 456.5C497.87 456.4 497.67 456.1 497.57 456.4L497.27 456.8C497.07 457 496.87 457.3 496.77 457.6C496.47 458.1 496.07 458.6 495.77 459.2C494.57 461.3 493.67 463.5 492.97 465.6C491.57 469.8 490.87 473.7 490.37 476.9C489.87 480.1 489.57 482.7 489.37 484.5C489.17 486.3 488.97 487.2 488.87 487.2C488.77 487.2 488.77 486.2 488.77 484.4C488.87 482.6 488.97 480 489.27 476.7C489.67 473.4 490.17 469.5 491.57 465.1C492.27 462.9 493.17 460.7 494.37 458.5C494.67 457.9 495.07 457.4 495.37 456.8C495.57 456.5 495.67 456.2 495.87 456C496.17 455.6 496.37 455.2 496.67 454.8C497.27 453.4 498.17 454.8 498.87 455.5C499.07 455.8 499.17 455.9 499.17 455.9L499.27 456C499.27 456.1 499.37 456.2 499.37 456.3C499.37 456.4 499.37 456.5 499.47 456.6V456.7V456.6L499.67 456C499.87 455.4 500.07 454.8 500.17 454.3C500.37 453.6 500.67 452.8 500.87 452.1C501.87 449.2 503.17 446.2 504.87 443.4C505.97 441.7 507.17 440.2 508.47 438.9C508.87 438.6 509.17 438.2 509.57 437.9C509.97 437.6 510.67 437.2 511.37 437.2C512.07 437.2 512.77 437.7 513.17 438.2C513.47 438.7 513.67 439.2 513.77 439.8C513.87 440.3 513.87 440.8 513.87 441.3C513.87 441.8 513.77 442.3 513.67 442.7C513.57 443.6 513.37 444.4 513.27 445.3C512.97 447 512.77 448.7 512.47 450.3C511.37 456.8 510.07 462.7 508.87 467.6C507.67 472.5 506.57 476.4 505.77 479.1C505.27 481.7 504.77 483.2 504.67 483.1Z" fill="black" stroke="black" stroke-width="0.5" stroke-miterlimit="10"/>
<path d="M508.07 491.1C507.87 491 508.47 488.5 509.77 484.4C510.97 480.3 512.77 474.7 514.87 468.5C515.87 465.5 516.77 462.5 516.87 459.9C516.87 458.7 516.17 458.4 515.17 458.9C514.67 459.1 514.27 459.5 513.87 459.8C513.47 460.2 513.07 460.6 512.77 461C509.97 464.1 508.57 466.4 508.37 466.3C508.17 466.2 509.17 463.7 511.87 460.3C512.17 459.9 512.57 459.4 512.97 459C513.37 458.5 513.87 458.1 514.57 457.7C514.87 457.5 515.27 457.4 515.67 457.3C516.07 457.2 516.57 457.2 517.07 457.5C517.57 457.7 517.87 458.1 518.07 458.6C518.27 459 518.37 459.5 518.37 459.9C518.37 462.9 517.47 466 516.47 469.1C514.37 475.3 512.37 480.8 510.87 484.8C509.37 488.7 508.27 491.2 508.07 491.1Z" fill="black" stroke="black" stroke-width="0.5" stroke-miterlimit="10"/>
<path d="M510.77 501.6C510.37 501.3 514.67 494.7 517.17 485.4C517.47 484.2 517.77 483.1 517.97 482C518.07 481.5 518.17 481 518.07 480.6C517.97 480.3 517.87 480.2 517.67 480.1C517.47 480.1 517.07 480.2 516.67 480.4C516.27 480.6 515.97 480.9 515.57 481.2C514.87 481.8 514.17 482.3 513.67 482.9C511.47 485.1 510.47 486.8 510.17 486.7C509.97 486.6 510.67 484.7 512.77 482.2C513.27 481.6 513.97 480.9 514.67 480.3C515.07 480 515.37 479.7 515.87 479.3C516.37 479 516.97 478.7 517.77 478.7C518.17 478.7 518.67 478.9 518.97 479.3C519.27 479.6 519.47 480 519.57 480.4C519.67 481.1 519.57 481.8 519.47 482.4C519.27 483.5 518.97 484.7 518.67 485.9C517.37 490.7 515.47 494.8 513.87 497.5C512.27 500.2 510.87 501.7 510.77 501.6Z" fill="black" stroke="black" stroke-width="0.5" stroke-miterlimit="10"/>
<path d="M210.57 487.9C210.47 488 210.07 487.5 209.47 486.8C208.87 486.1 207.77 485 206.27 485.2C205.57 485.3 204.97 485.8 204.87 486.5C204.77 487.3 205.07 488.4 205.37 489.5C205.97 491.8 206.77 494.2 207.77 496.7C211.57 506.8 216.97 513.9 216.57 514.2C216.37 514.3 214.87 512.7 212.77 509.8C210.67 506.8 208.17 502.5 206.27 497.3C205.27 494.7 204.57 492.2 203.97 489.9C203.77 488.8 203.37 487.6 203.57 486.3C203.67 485.7 203.97 485 204.57 484.6C205.07 484.2 205.67 484 206.17 484C207.27 483.9 208.17 484.4 208.77 484.9C209.37 485.4 209.77 486 209.97 486.4C210.57 487.4 210.67 487.9 210.57 487.9Z" fill="black" stroke="black" stroke-width="0.5" stroke-miterlimit="10"/>
<path d="M230.37 505C230.27 505 229.67 503.5 228.57 500.8C227.47 498.1 225.97 494.1 223.87 489.2C219.77 479.5 213.77 466.2 205.77 452.3C205.07 451 204.27 449.7 203.57 448.4C203.17 447.7 202.87 447.2 202.37 446.8C201.97 446.4 201.37 446 201.07 446.1C200.97 446.1 200.87 446.2 200.77 446.3C200.67 446.4 200.67 446.6 200.67 446.9C200.67 447.5 200.77 448.3 200.77 448.9C200.87 450.3 201.07 451.7 201.27 453C201.67 455.7 202.37 458.2 203.07 460.7C203.47 461.9 203.77 463.1 204.27 464.2C204.47 464.8 204.67 465.3 204.87 465.9C204.97 466.2 205.07 466.5 205.27 466.8C205.47 467.2 205.67 467.7 205.87 468.1C205.87 468.5 205.87 468.8 205.97 469.1C206.47 469.5 205.37 468.6 205.47 468.7V468.6V468.5C205.47 468.4 205.47 468.4 205.47 468.4C205.47 468.3 205.37 468.3 205.27 468.3C205.07 468.3 204.67 468.3 204.37 468.4C204.27 469.5 204.47 471.4 204.67 472.8C204.97 474.3 205.27 475.8 205.67 477.1C206.47 479.7 207.37 482 208.27 483.7C210.07 487.2 211.37 489 211.27 489.1C211.27 489.1 210.87 488.7 210.17 487.9C209.47 487.1 208.57 485.8 207.67 484C206.67 482.3 205.67 480 204.77 477.3C204.37 476 203.97 474.5 203.67 472.9C203.57 472.1 203.37 471.3 203.27 470.5C203.17 470.1 203.17 469.6 203.17 469.1C203.17 468.6 203.37 468 203.97 467.5C204.07 467.4 204.17 467.4 204.27 467.5C204.37 467.5 204.57 467.6 204.47 467.7L204.27 467.3L204.17 467L203.87 466.3C203.67 465.7 203.37 465.2 203.17 464.6C202.77 463.4 202.27 462.2 201.97 461C201.17 458.5 200.57 455.9 200.07 453.2C199.87 451.8 199.67 450.4 199.47 449C199.37 448.3 199.27 447.6 199.27 446.8C199.27 446.4 199.37 445.8 199.67 445.3C199.97 444.9 200.57 444.5 201.17 444.4C202.37 444.4 203.07 445 203.67 445.6C204.27 446.2 204.77 447 205.07 447.6C205.77 448.9 206.57 450.2 207.37 451.5C215.37 465.5 221.27 478.9 225.17 488.8C227.07 493.7 228.47 497.8 229.37 500.6C229.97 503.4 230.47 504.9 230.37 505Z" fill="black" stroke="black" stroke-width="0.5" stroke-miterlimit="10"/>
<path d="M232.27 495.9C231.87 496.1 228.27 487.8 224.37 477.4C223.87 476.2 223.37 475 222.67 474C221.97 473 221.17 472.2 220.27 471.9C220.07 471.8 219.77 471.8 219.57 471.8C219.47 471.8 219.37 471.8 219.27 471.8C219.27 471.9 219.17 472 219.17 472.1C219.07 472.4 219.07 472.6 219.07 472.9C218.87 473.9 218.87 474.9 218.97 475.7C219.07 477.4 219.57 478.8 219.87 479.7C220.27 480.6 220.47 481.1 220.37 481.2C220.27 481.3 219.87 480.9 219.27 480C218.77 479.1 218.07 477.7 217.77 475.8C217.67 474.9 217.57 473.8 217.67 472.7C217.67 472.4 217.77 472.1 217.77 471.8C217.87 471.4 217.97 470.9 218.07 470.5C218.57 470.5 218.97 470.3 219.47 470.4C219.87 470.4 220.17 470.5 220.57 470.6C221.97 471 223.07 472.1 223.87 473.2C224.67 474.3 225.37 475.6 225.87 477C229.87 487.2 232.67 495.7 232.27 495.9Z" fill="black" stroke="black" stroke-width="0.5" stroke-miterlimit="10"/>
<path d="M240.07 504.8C239.67 504.9 237.17 497.8 234.07 489C233.67 487.9 233.37 486.8 232.87 485.9C232.67 485.5 232.37 485 232.07 484.7C231.97 484.5 231.77 484.4 231.67 484.3C231.57 484.3 231.47 484.2 231.47 484.2C231.37 484.2 231.37 484.2 231.37 484.1C231.27 484.1 231.27 484.1 231.17 484.1H231.07V484.2V484.3V484.4V484.6C231.07 484.8 230.97 485 230.97 485.3C230.87 486.2 230.87 487 230.87 487.7C230.97 490.7 231.67 492.5 231.37 492.5C231.17 492.6 230.07 490.9 229.67 487.7C229.57 486.9 229.57 486 229.57 485.1C229.57 484.9 229.57 484.6 229.57 484.4L229.67 483.9C229.67 483.7 229.77 483.5 229.77 483.3L229.87 482.8C229.87 482.8 229.87 482.8 229.87 482.7H229.97H230.07L230.37 482.6C230.77 482.5 231.17 482.5 231.57 482.6C231.77 482.6 231.97 482.7 232.17 482.8C232.37 482.9 232.47 483 232.57 483.1C232.87 483.3 233.07 483.5 233.27 483.7C233.67 484.2 234.07 484.7 234.27 485.2C234.87 486.3 235.17 487.4 235.57 488.5C238.77 497.3 240.57 504.7 240.07 504.8Z" fill="black" stroke="black" stroke-width="0.5" stroke-miterlimit="10"/>
<path d="M394.27 494.4C395.77 493.6 396.57 494.4 399.47 494C406.37 493.2 407.77 487.9 413.87 486.5C415.97 486 419.07 486.8 425.27 488.4C430.97 489.9 435.27 491 440.47 493.2C448.67 496.8 459.17 503.4 458.27 505.9C457.77 507.2 453.67 506.8 445.57 506.1C436.07 505.3 432.87 504.3 424.47 503.6C416.77 502.9 412.97 502.6 408.47 503.4C400.87 504.7 395.27 508.2 391.87 510.8C390.87 504.2 390.57 496.5 394.27 494.4Z" fill="black"/>
<path d="M334.57 458.2C331.67 459.8 327.47 462.3 322.37 465.2C306.87 474.1 299.07 478.6 296.37 480.4C290.37 484.6 280.67 491.4 272.27 503.5C264.27 515 263.77 522.2 263.77 525.5C263.77 528.2 263.87 532.6 266.57 536.9C271.37 544.5 280.57 546 284.47 546.6C292.27 547.9 298.17 546.3 305.47 544.5C332.77 537.7 328.07 540.6 346.47 535.3C354.37 533 365.37 529.8 379.27 524C384.47 521.8 388.87 519.8 391.97 518.3C393.17 516.4 394.87 513.1 395.67 508.7C396.07 506.4 396.77 502.7 395.47 498.6C393.27 491.7 386.87 488.5 385.17 487.7C374.77 491 364.27 494.3 353.87 497.7C355.97 496.3 358.87 494.1 361.77 490.7C366.27 485.5 367.57 481.1 370.57 474.1C377.37 458.1 381.07 456.1 379.77 453.5C377.87 449.9 367.97 448.8 334.57 458.2Z" fill="white"/>
<path d="M389.27 519.9C389.27 520 388.57 520.3 387.07 521C385.57 521.7 383.47 522.7 380.57 523.9C374.87 526.3 366.67 529.6 356.17 533C345.67 536.4 333.07 540 318.87 542.9C311.77 544.4 304.17 545.7 296.37 546.7C292.47 547.2 288.37 547.6 284.17 547.4C280.07 547.2 275.67 546.3 271.97 543.8C268.27 541.4 265.67 537.6 264.37 533.6C263.07 529.6 262.77 525.3 263.37 521.3C263.97 517.3 265.47 513.5 267.27 510.1C269.07 506.7 271.17 503.5 273.47 500.7C277.97 494.9 282.97 490 287.97 485.9C292.97 481.8 297.97 478.4 302.67 475.5C307.37 472.6 311.67 470.2 315.57 468.1C319.47 466.1 322.77 464.4 325.57 463C328.37 461.7 330.47 460.6 331.97 460C333.47 459.3 334.27 459 334.27 459.1C334.27 459.2 333.57 459.6 332.17 460.3C330.77 461.1 328.67 462.2 325.87 463.6C320.47 466.5 312.57 470.5 303.27 476.4C298.67 479.3 293.77 482.8 288.77 486.9C283.87 491 278.97 495.9 274.57 501.6C272.37 504.4 270.27 507.5 268.57 510.8C266.87 514.1 265.47 517.7 264.87 521.5C264.27 525.3 264.57 529.3 265.77 533C267.07 536.7 269.37 540.1 272.77 542.3C276.17 544.5 280.17 545.4 284.17 545.6C288.17 545.8 292.17 545.4 296.07 544.9C303.87 543.9 311.37 542.6 318.47 541.2C332.67 538.4 345.27 535 355.77 531.7C366.27 528.4 374.57 525.3 380.27 523.1C383.17 522 385.37 521.1 386.87 520.5C388.47 520.1 389.27 519.9 389.27 519.9Z" fill="black" stroke="black" stroke-width="0.5" stroke-miterlimit="10"/>
<path d="M347.57 502.9C347.37 502.7 348.77 501.1 351.37 498.9C353.87 496.6 357.67 493.8 361.17 490.3C364.77 486.7 367.07 482.7 368.07 479.6C369.07 476.5 368.87 474.4 369.17 474.3C369.37 474.3 369.97 476.4 369.17 479.9C368.47 483.3 366.07 487.7 362.37 491.4C358.67 495.1 354.77 497.8 352.07 499.8C349.37 501.8 347.77 503.1 347.57 502.9Z" fill="black" stroke="black" stroke-width="0.5" stroke-miterlimit="10"/>
<path d="M386.97 487.2C387.07 487.7 380.27 489.6 371.97 492.3C363.67 495 356.97 497.4 356.77 497C356.57 496.6 363.07 493.5 371.47 490.8C379.87 488 386.87 486.7 386.97 487.2Z" fill="black" stroke="black" stroke-width="0.5" stroke-miterlimit="10"/>
<path d="M391.07 519.5C390.87 519.3 392.37 517.8 393.47 514.6C394.57 511.5 395.87 506.9 395.27 501.9C394.97 499.4 394.27 497.1 393.27 495.2C392.27 493.3 390.97 491.8 389.77 490.7C387.27 488.5 385.17 488 385.27 487.7C385.27 487.6 385.87 487.6 386.77 487.9C387.67 488.2 389.07 488.7 390.47 489.8C391.87 490.8 393.37 492.4 394.57 494.4C395.77 496.4 396.67 498.9 396.87 501.6C397.17 504.3 396.87 506.9 396.37 509.1C395.87 511.4 395.17 513.3 394.47 514.9C393.77 516.5 392.97 517.7 392.27 518.4C391.67 519.3 391.17 519.6 391.07 519.5Z" fill="black" stroke="black" stroke-width="0.5" stroke-miterlimit="10"/>
<path d="M440.37 493.3C440.27 493.5 437.57 492.9 433.27 491.7C431.17 491.1 428.57 490.3 425.77 489.5C424.37 489.1 422.87 488.6 421.37 488.1C419.87 487.6 418.27 487.1 416.77 487C415.97 486.9 415.27 487 414.57 487.2C413.87 487.4 413.27 487.7 412.67 488.2C411.47 489.1 410.27 490.2 408.97 491C406.47 492.7 403.87 493.6 401.57 494.2C399.37 494.7 397.47 494.8 396.27 494.8C394.97 494.8 394.27 494.6 394.37 494.5C394.37 494.2 397.17 494.4 401.37 493.1C403.47 492.5 405.87 491.4 408.17 489.8C408.77 489.4 409.37 488.9 409.87 488.5C410.47 488 411.07 487.5 411.77 487C412.47 486.5 413.27 486 414.17 485.8C415.07 485.5 416.07 485.5 416.97 485.5C418.77 485.6 420.47 486.2 421.97 486.7C423.47 487.2 424.97 487.7 426.37 488.1C429.17 489 431.67 489.9 433.77 490.6C437.87 492 440.47 493.1 440.37 493.3Z" fill="black" stroke="black" stroke-width="0.5" stroke-miterlimit="10"/>
<path d="M438.57 493.2C438.67 493.1 439.67 493.6 441.37 494.6C443.17 495.6 445.67 497.1 448.67 498.9C450.17 499.8 452.07 500.8 453.37 502.8C453.67 503.3 453.97 503.9 454.07 504.6C454.07 504.8 454.07 504.9 454.07 505.1C454.07 505.3 453.97 505.5 453.97 505.8C453.97 506 453.87 506.2 453.77 506.5C453.77 506.6 453.77 506.8 453.67 506.8H453.37C452.27 506.9 451.87 506.9 451.27 507C450.67 507 450.07 507 449.47 507.1C444.67 507.2 439.37 506.7 433.97 505.9C428.57 505.2 423.37 504.3 418.67 503.9C413.97 503.6 409.77 503.7 406.27 504.4C402.77 505 400.17 506.2 398.47 507.2C398.07 507.4 397.67 507.7 397.27 507.8C396.97 508 396.67 508.2 396.47 508.3C396.07 508.6 395.77 508.7 395.77 508.7C395.77 508.7 395.87 508.4 396.27 508.1C396.47 507.9 396.67 507.7 396.97 507.4C397.27 507.2 397.67 506.9 398.07 506.6C399.77 505.5 402.47 504.1 405.97 503.2C409.57 502.3 413.87 502 418.67 502.3C423.47 502.6 428.67 503.4 434.07 504.1C439.47 504.9 444.67 505.4 449.37 505.4C449.97 505.4 450.57 505.4 451.07 505.4C451.47 505.4 451.97 505.4 452.37 505.3C452.47 505.3 452.47 505.2 452.47 505.1C452.47 505 452.47 505 452.47 505C452.47 504.9 452.47 504.8 452.47 504.7C452.47 504.3 452.27 503.9 452.07 503.5C451.57 502.7 450.87 502 450.17 501.4C449.47 500.8 448.67 500.3 447.87 499.8C444.87 497.8 442.47 496.2 440.77 495.1C439.37 494 438.47 493.3 438.57 493.2Z" fill="black" stroke="black" stroke-width="0.5" stroke-miterlimit="10"/>
<path d="M419.97 506.8C424.07 505.5 428.07 504.1 432.17 502.8C432.57 501.5 433.47 499.3 435.47 498.1C437.47 497 439.97 497 444.87 498.8C451.77 501.3 456.47 504.6 456.97 504.9C471.77 515.2 485.17 513.9 485.47 519.4C485.67 522 482.67 524.2 482.37 524.5C479.27 526.8 475.37 526.1 471.97 525.5C464.37 524.2 456.57 523.4 449.07 521.7C445.97 521 440.27 519.7 432.87 518C429.07 518.8 425.17 519.5 421.37 520.3C420.07 520.7 418.87 521.2 417.57 521.6C418.37 516.6 419.17 511.7 419.97 506.8Z" fill="black"/>
<path d="M355.87 469.8C355.47 470 350.57 473.1 340.67 479.2C331.07 485.2 326.27 488.2 325.57 488.6C312.47 497.1 303.67 505.1 297.07 511.1C282.57 524.4 280.87 529 280.07 532.3C279.67 534.1 277.97 541.8 282.27 548.6C282.97 549.7 285.87 554 293.87 557.2C303.17 560.9 311.67 559.9 322.77 558C338.37 555.4 346.17 554.1 358.27 550.5C381.17 543.8 397.87 535.4 406.97 530.5C412.27 527.6 416.67 525 419.67 523.1C420.57 521.8 421.77 519.6 422.17 516.8C423.37 509.3 418.47 503.8 417.97 503.1C415.97 500.9 413.77 499.7 412.17 499C413.37 495.8 414.97 490.2 414.47 483.2C414.27 479.3 413.77 472.4 410.07 467.7C400.67 455.7 371.87 460.5 355.87 469.8Z" fill="white"/>
<path d="M398.67 514.2C398.47 514 400.77 512.5 403.57 509.4C406.37 506.3 409.57 501.3 411.57 495.2C413.57 489.1 413.97 483.2 414.17 479C414.37 474.8 414.27 472.1 414.47 472.1C414.67 472.1 415.17 474.7 415.27 479C415.37 483.3 415.07 489.4 413.07 495.7C411.07 502.1 407.57 507.2 404.37 510.2C401.27 513.2 398.77 514.3 398.67 514.2Z" fill="black" stroke="black" stroke-width="0.5" stroke-miterlimit="10"/>
<path d="M419.67 523.2C419.67 523.2 418.97 523.7 417.67 524.6C416.27 525.5 414.27 526.8 411.67 528.3C406.37 531.4 398.47 535.8 388.37 540.2C383.37 542.5 377.67 544.7 371.57 546.9C365.47 549 358.77 551.1 351.77 553C344.67 554.8 337.17 556.5 329.37 557.7C325.47 558.4 321.47 558.9 317.37 559.4C313.27 559.8 309.07 560.1 304.77 559.9C300.47 559.7 296.27 558.9 292.37 557.3C288.47 555.7 285.07 553 282.47 549.8C281.17 548.2 280.17 546.4 279.37 544.5C278.67 542.6 278.17 540.6 278.17 538.6C278.07 534.5 279.67 530.8 281.67 527.7C283.67 524.5 286.07 521.9 288.27 519.2C290.57 516.6 292.87 514.1 295.27 511.9C299.97 507.4 304.57 503.5 308.97 500C317.67 493.2 325.17 488.3 330.27 484.9C332.87 483.2 334.87 481.9 336.27 481.1C337.67 480.2 338.37 479.8 338.47 479.9C338.47 479.9 337.87 480.5 336.47 481.4C335.17 482.3 333.17 483.7 330.67 485.5C325.67 489 318.27 494.1 309.67 501C305.37 504.4 300.87 508.4 296.27 512.9C293.97 515.2 291.67 517.6 289.47 520.2C287.27 522.8 284.97 525.5 283.07 528.5C281.17 531.5 279.77 535 279.87 538.6C279.87 542.2 281.47 545.8 283.87 548.8C286.27 551.8 289.47 554.3 293.07 555.8C296.77 557.3 300.77 558.1 304.97 558.3C309.07 558.5 313.27 558.2 317.27 557.8C321.27 557.3 325.27 556.8 329.17 556.2C336.97 554.9 344.47 553.4 351.47 551.6C358.47 549.8 365.07 547.7 371.27 545.7C377.37 543.5 382.97 541.4 388.07 539.2C398.17 534.9 406.07 530.7 411.47 527.8C414.17 526.4 416.27 525.1 417.67 524.3C418.87 523.5 419.57 523.1 419.67 523.2Z" fill="black" stroke="black" stroke-width="0.5" stroke-miterlimit="10"/>
<path d="M419.27 523.8C419.17 523.7 419.47 523.4 419.77 522.8C420.07 522.2 420.47 521.2 420.87 519.9C421.57 517.4 422.07 513.7 420.97 510C419.87 506.2 417.57 503.4 415.57 501.7C413.57 500 412.07 499.3 412.17 499C412.27 498.8 413.97 499.2 416.27 500.8C418.57 502.4 421.37 505.4 422.47 509.6C423.67 513.8 422.97 517.8 421.87 520.4C421.37 521.7 420.77 522.6 420.17 523.3C419.77 523.8 419.37 523.9 419.27 523.8Z" fill="black" stroke="black" stroke-width="0.5" stroke-miterlimit="10"/>
<path d="M432.97 502.6C433.17 503 430.57 504.8 426.87 505.9C423.17 507.1 420.07 507.2 419.97 506.7C419.87 506.2 422.87 505.5 426.37 504.3C429.87 503.2 432.77 502.2 432.97 502.6Z" fill="black" stroke="black" stroke-width="0.5" stroke-miterlimit="10"/>
<path d="M434.07 516.8C434.17 517.2 431.87 518.1 428.87 518.6C425.87 519.2 423.47 519.3 423.37 518.8C423.27 518.4 425.57 517.5 428.57 517C431.57 516.5 434.07 516.4 434.07 516.8Z" fill="black" stroke="black" stroke-width="0.5" stroke-miterlimit="10"/>
<path d="M483.07 518C482.97 518.2 479.97 516.9 475.17 514.6C470.37 512.3 463.77 509.1 456.57 505.5C452.97 503.7 449.57 501.9 446.37 500.3C444.77 499.5 443.37 498.7 441.97 498.1C440.57 497.5 439.27 497.4 438.07 497.6C435.67 498 434.07 499.6 433.27 500.7C432.47 501.9 432.27 502.7 432.17 502.7C432.07 502.7 431.97 501.8 432.77 500.4C433.47 499.1 435.07 497.1 437.87 496.5C438.57 496.3 439.37 496.3 440.17 496.4C440.97 496.5 441.77 496.7 442.47 496.9C444.07 497.5 445.47 498.3 447.07 499C450.17 500.6 453.67 502.3 457.27 504.1C464.47 507.8 470.97 511.1 475.67 513.7C480.37 516.1 483.17 517.8 483.07 518Z" fill="black" stroke="black" stroke-width="0.5" stroke-miterlimit="10"/>
<path d="M483.27 519.8C483.37 519.8 483.47 520.6 482.67 521.9C481.97 523.1 480.27 524.6 477.67 525.1C475.17 525.6 472.27 525.3 469.07 525.1C465.87 524.9 462.37 524.5 458.77 524C451.47 523 444.97 521.6 440.27 520.4C435.57 519.2 432.77 518.2 432.87 518C432.97 517.8 435.87 518.4 440.57 519.3C445.27 520.2 451.77 521.4 458.97 522.4C462.57 522.9 466.07 523.3 469.17 523.6C472.37 523.9 475.17 524.3 477.37 524C479.67 523.7 481.17 522.6 482.07 521.6C482.97 520.5 483.07 519.8 483.27 519.8Z" fill="black" stroke="black" stroke-width="0.5" stroke-miterlimit="10"/>
<path d="M401.57 512.8C401.67 512.9 400.87 513.6 399.47 514.8C399.07 515.1 398.67 515.4 398.27 515.8C397.77 516.1 397.37 516.5 396.77 516.9C395.67 517.7 394.47 518.6 393.07 519.4C392.37 519.8 391.67 520.3 390.87 520.8C390.07 521.3 389.27 521.7 388.47 522.2C386.77 523.2 384.87 524.1 382.97 525.1C378.97 527 374.57 528.8 369.77 530.5C360.27 533.8 351.37 536 344.87 537.4C338.47 538.8 334.37 539.5 334.37 539.3C334.27 539.1 338.27 538 344.57 536.3C350.97 534.6 359.67 532.3 369.17 529C373.87 527.3 378.27 525.5 382.27 523.7C384.17 522.8 386.07 521.9 387.77 521C388.57 520.5 389.47 520.1 390.27 519.7C391.07 519.3 391.77 518.8 392.47 518.4C398.17 515.1 401.37 512.6 401.57 512.8Z" fill="black" stroke="black" stroke-width="0.5" stroke-miterlimit="10"/>
<path d="M350.37 340C347.47 343.8 343.37 350.2 341.47 358.8C340.47 363.5 340.27 367.8 341.27 380.8C342.87 400.2 343.87 398.4 343.97 406C344.07 414.2 342.07 423.7 338.07 442.7C336.67 449.2 335.47 454.5 334.67 458.2C338.07 461.1 343.07 464.8 349.57 468.2C365.37 476.4 379.47 477.3 383.17 477.5C400.27 478.3 413.47 473.1 420.07 470C419.37 466.7 418.37 461.6 417.87 455.2C416.87 442.1 418.87 433.2 420.27 422.6C422.27 408.5 422.57 397.6 422.67 387.2C422.97 357.6 422.07 355.4 420.27 353.3C417.07 349.6 412.87 347.9 404.27 344.4C400.37 342.8 393.67 340.5 384.77 339.1C377.27 338 365.27 337.1 350.37 340Z" fill="white"/>
<path d="M334.57 458.201C334.47 458.201 334.67 456.901 335.07 454.501C335.47 452.201 336.17 448.801 336.97 444.601C337.87 440.401 338.87 435.501 340.07 429.901C341.17 424.401 342.37 418.301 342.87 411.901C343.37 405.501 342.87 399.301 342.27 393.801C341.57 388.201 340.87 383.201 340.47 378.901C340.07 374.601 340.07 371.101 340.27 368.801C340.37 366.401 340.67 365.101 340.77 365.101C341.07 365.101 340.57 370.401 341.67 378.801C342.17 383.001 342.97 388.001 343.77 393.601C344.57 399.201 345.07 405.501 344.57 412.101C344.07 418.701 342.77 424.801 341.57 430.301C340.37 435.801 339.17 440.701 338.17 444.901C337.17 449.001 336.37 452.401 335.77 454.701C335.07 456.901 334.67 458.201 334.57 458.201Z" fill="black" stroke="black" stroke-width="0.5" stroke-miterlimit="10"/>
<path d="M420.37 469.8C420.37 469.9 419.37 470.6 417.27 471.6C415.17 472.6 412.07 473.9 408.17 475.1C404.17 476.3 399.37 477.4 393.87 478C388.37 478.6 382.37 478.6 376.07 477.7C369.77 476.8 363.87 475.2 358.77 473.2C353.67 471.2 349.27 468.9 345.77 466.6C342.27 464.4 339.67 462.3 337.87 460.8C336.17 459.3 335.27 458.3 335.27 458.3C335.47 458.1 339.27 461.5 346.27 465.7C353.27 469.9 363.77 474.4 376.17 476.1C388.57 477.8 399.87 476.1 407.77 474C415.67 471.8 420.27 469.5 420.37 469.8Z" fill="black" stroke="black" stroke-width="0.5" stroke-miterlimit="10"/>
<path d="M420.17 353.2C419.97 353.4 416.47 351 410.47 348C409.67 347.6 408.87 347.2 408.07 346.8C407.27 346.4 406.37 346.1 405.47 345.7C403.67 344.9 401.67 344.2 399.57 343.4C395.37 342 390.57 340.7 385.47 339.8C380.37 338.9 375.47 338.5 370.97 338.4C368.77 338.4 366.57 338.4 364.67 338.5C363.67 338.6 362.67 338.6 361.77 338.7C360.87 338.8 359.97 338.9 359.17 339C352.47 339.8 348.37 340.8 348.27 340.5C348.27 340.4 349.27 340 351.07 339.5C351.57 339.4 352.07 339.2 352.57 339.1C353.17 339 353.77 338.8 354.47 338.7C355.77 338.4 357.27 338.1 359.07 337.9C359.97 337.8 360.77 337.7 361.77 337.5C362.67 337.4 363.67 337.3 364.67 337.2C366.67 337 368.87 337 371.07 336.9C375.57 336.9 380.57 337.3 385.77 338.2C390.97 339.1 395.77 340.5 400.07 342C402.17 342.8 404.17 343.6 406.07 344.4C406.97 344.8 407.87 345.2 408.67 345.6C409.47 346 410.27 346.5 411.07 346.9C412.57 347.7 413.87 348.5 415.07 349.2C415.67 349.6 416.17 349.9 416.67 350.2C417.17 350.5 417.57 350.9 417.97 351.1C419.37 352.4 420.17 353.1 420.17 353.2Z" fill="black" stroke="black" stroke-width="0.5" stroke-miterlimit="10"/>
<path d="M419.97 470C419.87 470 419.47 468.7 418.77 466.2C418.27 463.7 417.47 460.1 417.27 455.6C416.97 451.1 416.97 445.6 417.47 439.7C417.97 433.7 418.77 427.2 419.67 420.4C420.57 413.6 421.37 407.1 421.67 401.1C421.97 395.2 422.07 389.8 421.87 385.3C421.77 380.8 421.47 377.2 421.37 374.6C421.17 372.1 421.07 370.7 421.27 370.7C421.37 370.7 421.67 372.1 422.07 374.6C422.47 377.1 422.87 380.8 423.07 385.3C423.37 389.8 423.47 395.2 423.17 401.2C422.97 407.2 422.17 413.8 421.27 420.6C420.37 427.4 419.47 433.9 418.87 439.9C418.27 445.8 418.17 451.2 418.27 455.7C418.37 460.2 418.97 463.8 419.27 466.3C419.87 468.6 420.07 469.9 419.97 470Z" fill="black" stroke="black" stroke-width="0.5" stroke-miterlimit="10"/>
<path d="M420.17 353.2C417.77 354.4 411.67 357.9 407.57 365.2C403.07 373.1 403.47 380.6 403.77 383.2C409.07 397.4 414.47 411.6 419.77 425.8C413.87 437.9 407.97 450 402.07 462.1C398.97 464.1 396.27 465.3 394.47 466.1C388.67 468.5 385.27 468.5 380.57 471.5C378.47 472.8 376.87 474.2 375.97 475.1C382.77 475.7 384.17 476.8 384.27 477.6C384.57 479.5 377.97 481.2 368.47 487.6C365.37 489.8 362.57 491 362.77 491.8C362.97 492.5 365.27 492.5 367.37 492.3C367.27 492.6 366.77 494.3 367.77 496C368.27 496.8 368.97 497.3 369.37 497.5C370.57 498.2 372.07 499 374.07 499.4C379.77 500.7 384.47 498.5 386.07 497.6C385.27 498.1 380.57 501 381.17 502.7C381.57 503.9 384.37 503.8 384.67 503.8C387.27 503.8 389.17 502.4 391.47 500.7C395.67 497.4 397.77 495.8 399.77 493.3C403.27 488.8 402.87 486.8 406.57 482.5C408.57 480.1 410.57 478.5 411.97 477.5C412.27 478.5 412.57 479.5 412.87 480.6C416.47 477 420.97 472.2 425.37 466C430.47 458.9 433.37 452.9 435.07 449.4C437.77 443.9 440.87 436.6 443.37 427.6C442.57 421 441.17 412.5 438.87 402.7C438.07 399.4 436.57 393 434.07 385.3C431.27 376.9 426.97 365.8 420.17 353.2Z" fill="white"/>
<path d="M443.47 428.7C443.27 428.7 442.57 424.3 441.17 417.2C439.77 410.1 437.67 400.3 434.47 389.7C431.27 379.1 427.77 369.7 424.97 363C422.17 356.3 419.47 352.8 419.67 352.6C419.77 352.5 420.57 353.3 421.77 355C422.97 356.7 424.47 359.2 426.07 362.5C429.17 369.1 432.87 378.5 436.07 389.2C439.27 399.9 441.27 409.8 442.37 417C442.87 420.6 443.27 423.5 443.47 425.6C443.57 427.5 443.57 428.7 443.47 428.7Z" fill="black" stroke="black" stroke-width="0.5" stroke-miterlimit="10"/>
<path d="M419.67 425.8C419.17 425.9 416.27 415.9 411.67 403.8C407.17 391.7 402.67 382.2 403.17 382C403.37 381.9 404.77 384.2 406.67 388C408.57 391.8 410.97 397.2 413.27 403.2C415.57 409.3 417.27 414.9 418.37 419C419.47 423.2 419.87 425.8 419.67 425.8Z" fill="black" stroke="black" stroke-width="0.5" stroke-miterlimit="10"/>
<path d="M402.07 462.1C401.67 461.9 406.17 453.8 411.07 443.6C415.97 433.4 419.47 424.8 419.87 425C420.27 425.1 417.47 434 412.47 444.3C407.57 454.6 402.37 462.3 402.07 462.1Z" fill="black" stroke="black" stroke-width="0.5" stroke-miterlimit="10"/>
<path d="M412.77 480.5C412.27 480.6 410.97 475.9 408.17 470.6C407.47 469.3 406.77 468 406.17 466.9C405.47 465.8 404.87 464.8 404.27 464.1C403.07 462.6 401.97 462.2 402.07 461.9C402.07 461.8 402.47 461.8 402.97 461.9C403.57 462.1 404.37 462.5 405.07 463.2C405.87 463.9 406.67 464.9 407.37 466C408.17 467.1 408.87 468.4 409.57 469.7C412.47 475.4 413.17 480.4 412.77 480.5Z" fill="black" stroke="black" stroke-width="0.5" stroke-miterlimit="10"/>
<path d="M413.67 480.5C413.47 480.3 415.67 477.7 418.97 473.4C420.57 471.2 422.47 468.6 424.57 465.6C426.57 462.6 428.67 459.3 430.77 455.7C432.77 452.1 434.57 448.6 436.17 445.3C437.67 442.1 438.97 439.1 439.97 436.6C442.07 431.6 443.17 428.4 443.37 428.4C443.57 428.5 442.87 431.8 441.07 437C440.17 439.6 438.97 442.6 437.47 446C435.97 449.3 434.17 452.9 432.17 456.5C430.07 460.1 427.87 463.5 425.87 466.5C423.77 469.5 421.77 472 419.97 474.1C416.27 478.4 413.77 480.7 413.67 480.5Z" fill="black" stroke="black" stroke-width="0.5" stroke-miterlimit="10"/>
<path d="M384.17 476.6C384.17 476.8 382.07 476.9 378.77 476.8C378.37 476.8 377.97 476.8 377.47 476.8C377.17 476.8 376.97 476.7 376.67 476.6C376.37 476.5 375.97 476.3 375.77 476C375.17 475.4 375.27 474.4 375.87 473.8C376.37 473.3 376.77 473 377.27 472.6C379.17 471.2 381.47 470.2 383.87 469.3C386.27 468.4 388.57 467.7 390.67 467C392.67 466.3 394.57 465.5 396.07 464.8C399.07 463.5 400.97 462.6 401.07 462.8C401.17 463 399.57 464.3 396.57 465.9C395.07 466.7 393.27 467.6 391.27 468.4C389.17 469.3 386.87 470 384.47 470.8C382.07 471.7 379.97 472.6 378.17 473.8C377.77 474.1 377.27 474.4 377.07 474.7C376.97 474.8 376.87 475 376.97 475.2C377.07 475.3 377.07 475.3 377.27 475.4C377.47 475.5 377.67 475.5 377.77 475.5C378.17 475.6 378.67 475.6 379.07 475.6C382.07 476 384.17 476.3 384.17 476.6Z" fill="black" stroke="black" stroke-width="0.5" stroke-miterlimit="10"/>
<path d="M381.97 488.2C382.07 488.4 379.77 490 375.47 491.4C373.37 492.1 370.67 492.7 367.77 493C367.07 493.1 366.27 493.1 365.47 493.2H364.87C364.57 493.2 364.17 493.2 363.87 493.2C363.17 493.1 362.67 492.9 362.37 492.5C362.27 492.4 362.17 492.3 362.17 492.2L362.07 492C362.07 491.9 362.07 491.9 362.07 491.8L362.37 491.1C362.47 490.9 362.77 490.6 362.97 490.4C363.17 490.2 363.47 489.9 363.67 489.7C364.37 489.1 364.97 488.6 365.77 488.1C368.67 486.2 371.67 484.9 374.27 483.6C376.87 482.3 379.07 480.9 380.77 479.6C384.27 477 386.17 475 386.37 475.1C386.47 475.2 384.97 477.5 381.47 480.5C379.77 481.9 377.57 483.5 374.97 484.9C372.37 486.3 369.37 487.6 366.67 489.4C365.97 489.9 365.37 490.3 364.77 490.8L364.57 491L364.47 491.1L364.37 491.2C364.27 491.2 364.37 491.3 364.47 491.3C364.57 491.4 364.67 491.4 364.77 491.4C365.07 491.4 365.27 491.4 365.57 491.4C366.37 491.4 367.07 491.3 367.77 491.3C370.67 491.1 373.17 490.6 375.27 490C379.37 489.2 381.87 488 381.97 488.2Z" fill="black" stroke="black" stroke-width="0.5" stroke-miterlimit="10"/>
<path d="M388.47 491.1C388.57 491.3 387.27 492.3 384.97 493.4C382.67 494.5 379.17 495.8 375.27 496.4C373.67 496.6 372.07 496.8 370.57 496.8C369.87 496.8 369.07 496.8 368.47 496.7C368.27 496.7 368.07 496.7 367.77 496.7C367.47 496.7 367.27 496.6 367.07 496.6C366.67 496.4 366.27 496.2 366.17 495.8C365.97 495.2 366.27 494.7 366.67 494.3C366.87 494.1 367.07 493.9 367.37 493.8C367.57 493.7 367.67 493.6 367.87 493.5C368.47 493.1 369.07 492.9 369.47 492.7C370.37 492.3 370.97 492.2 370.97 492.4C371.07 492.5 370.57 492.8 369.77 493.4C369.37 493.7 368.87 494 368.37 494.4C368.27 494.5 368.17 494.6 367.97 494.7C367.87 494.8 367.87 494.8 367.77 494.9C367.67 495 367.57 495.2 367.67 495.3C367.77 495.4 367.87 495.4 367.97 495.4C368.07 495.4 368.07 495.4 368.17 495.4H368.27H368.47C369.07 495.4 369.77 495.4 370.47 495.4C371.87 495.3 373.37 495.2 374.97 495C382.57 493.7 388.27 490.6 388.47 491.1Z" fill="black" stroke="black" stroke-width="0.5" stroke-miterlimit="10"/>
<path d="M388.271 496.3C388.371 496.5 387.371 497.1 385.771 497.9C384.171 498.7 381.771 499.6 378.971 500.1C376.171 500.6 373.471 500.2 371.671 499.5C370.771 499.1 370.071 498.7 369.771 498.2C369.371 497.8 369.271 497.5 369.371 497.4C369.571 497.2 370.371 498 371.971 498.3C373.671 498.6 376.071 498.8 378.671 498.3C381.271 497.9 383.571 497.1 385.371 496.6C387.071 496.3 388.171 496.1 388.271 496.3Z" fill="black" stroke="black" stroke-width="0.5" stroke-miterlimit="10"/>
<path d="M412.37 477.2C412.47 477.4 409.77 478.6 407.27 482.4C405.97 484.2 404.77 486.7 403.27 489.3C401.77 492 399.77 494.9 397.17 497.3C394.57 499.8 391.57 501.7 388.77 503C388.07 503.3 387.37 503.6 386.67 503.9C385.97 504.2 385.27 504.4 384.57 504.5C383.87 504.6 383.07 504.7 382.27 504.4C381.57 504.1 380.97 503.5 380.67 502.8C380.57 502.4 380.47 502 380.57 501.7C380.67 501.3 380.87 501 381.07 500.8C381.47 500.3 381.87 500 382.27 499.7C382.97 499.1 383.67 498.7 384.27 498.4C385.47 497.8 386.17 497.6 386.17 497.7C386.27 497.8 385.57 498.2 384.57 499C384.07 499.4 383.47 499.9 382.77 500.5C382.47 500.8 382.07 501.2 381.87 501.5C381.67 501.8 381.57 502.2 381.77 502.5C381.97 502.9 382.27 503.2 382.77 503.3C383.17 503.4 383.77 503.4 384.37 503.3C384.97 503.2 385.57 502.9 386.27 502.6C386.97 502.3 387.57 502 388.27 501.7C390.97 500.4 393.67 498.6 396.17 496.2C401.27 491.5 403.47 485.4 406.57 481.7C407.97 479.8 409.57 478.6 410.67 477.9C410.97 477.7 411.17 477.6 411.47 477.5C411.67 477.4 411.87 477.3 412.07 477.3C412.17 477.2 412.37 477.2 412.37 477.2Z" fill="black" stroke="black" stroke-width="0.5" stroke-miterlimit="10"/>
<path d="M368.57 260.7C371.37 259.4 381.27 254.8 391.17 259C394.27 260.3 396.47 262.1 397.87 263.4C400.17 263.1 404.27 262.8 408.77 264.4C416.27 267.1 419.97 273.1 421.87 276.1C422.87 277.7 423.97 279.9 427.17 292.8C431.17 308.9 430.77 310.9 433.77 316.6C435.47 319.9 436.67 321.2 439.07 326.2C440.57 329.3 442.37 333.1 443.77 338.3C445.57 344.9 447.17 350.9 444.37 356.4C443.87 357.4 442.87 359.3 440.67 360.8C438.27 362.4 435.27 363 428.07 361.9C420.27 360.7 416.37 360.1 411.97 357.7C410.17 356.7 399.87 350.9 395.87 338.2C394.17 332.8 394.27 328 394.47 325.1C391.27 323.7 364.37 311.4 355.67 295.8C354.37 293.5 351.97 289.2 352.07 283.3C352.17 276.3 355.77 271.3 357.07 269.5C361.07 264.2 365.87 261.9 368.57 260.7Z" fill="black"/>
<path d="M359.17 282.8C358.37 285.3 357.37 288.8 356.37 293.1C354.47 300.7 353.57 304.6 353.37 309.8C353.17 313.9 352.97 318.7 354.77 324.4C356.27 329.1 358.47 332.6 360.07 334.8C361.77 335.4 363.87 336 366.37 336.3C370.17 336.8 373.37 336.5 375.77 336.1C377.17 340.1 378.67 344 380.07 348C381.67 348.2 384.77 348.4 388.37 347C393.77 344.9 396.27 340.5 396.97 339.2C395.47 336 395.07 333.2 394.97 331.4C394.77 329 394.57 326.7 395.77 324.1C397.07 321.3 399.17 319.7 400.27 318.9C401.17 319.4 402.77 320.2 404.77 320.3C409.67 320.3 412.57 315.8 413.07 315.2C413.57 314.4 415.97 310.8 414.77 306.7C414.47 305.8 413.87 303.7 411.87 302.6C408.77 300.8 405.17 303 405.07 303.1C404.37 302.7 403.47 302 402.37 301.2C398.57 298.2 396.17 294.9 395.07 293.2C390.37 285.5 392.07 274.9 392.27 273.6C390.27 273.5 387.57 273.5 384.17 273.8C382.37 274 376.27 274.7 368.87 277.8C366.27 278.7 362.87 280.3 359.17 282.8Z" fill="white"/>
<path d="M360.07 334.8C359.97 334.9 359.37 334.3 358.37 333.1C357.37 331.9 356.17 330 355.17 327.4C354.07 324.8 353.17 321.6 352.77 317.9C352.37 314.2 352.37 310.2 352.87 306C353.47 301.8 354.37 297.9 355.27 294.4C356.17 290.9 357.17 287.8 357.97 285.2C359.57 280 360.47 276.7 360.67 276.8C360.87 276.8 360.37 280.2 359.07 285.5C357.77 290.8 355.57 298.1 354.47 306.3C353.97 310.4 353.87 314.3 354.17 317.9C354.47 321.4 355.27 324.6 356.17 327.1C358.07 332 360.37 334.6 360.07 334.8Z" fill="black" stroke="black" stroke-width="0.5" stroke-miterlimit="10"/>
<path d="M384.47 332.3C384.57 332.5 383.47 333.4 381.27 334.5C379.17 335.6 375.97 336.7 372.27 337C368.57 337.4 365.27 337 362.97 336.3C361.77 336 360.87 335.5 360.37 335C359.87 334.5 359.67 334.1 359.77 334.1C359.87 334 360.17 334.3 360.67 334.5C361.27 334.8 362.07 335 363.17 335.2C365.47 335.5 368.57 335.7 372.07 335.4C379.17 334.8 384.27 331.8 384.47 332.3Z" fill="black" stroke="black" stroke-width="0.5" stroke-miterlimit="10"/>
<path d="M380.47 346.5C380.17 346.8 378.17 344.9 376.87 341.8C375.47 338.8 375.37 336.1 375.77 336C376.27 335.9 377.07 338.3 378.27 341.1C379.57 344.1 380.77 346.3 380.47 346.5Z" fill="black" stroke="black" stroke-width="0.5" stroke-miterlimit="10"/>
<path d="M396.97 339.2C396.57 339.4 394.87 336.5 394.27 332.5C393.67 328.5 394.47 325.3 394.87 325.3C395.37 325.4 395.27 328.5 395.87 332.2C396.37 336 397.37 339 396.97 339.2Z" fill="black" stroke="black" stroke-width="0.5" stroke-miterlimit="10"/>
<path d="M400.37 318.2C400.77 318.4 400.07 320.5 398.37 322.5C396.67 324.5 394.67 325.5 394.47 325.2C394.17 324.8 395.57 323.3 397.17 321.5C398.77 319.6 399.97 318 400.37 318.2Z" fill="black" stroke="black" stroke-width="0.5" stroke-miterlimit="10"/>
<path d="M404.87 302.5C404.77 302.4 405.07 302 405.97 301.5C406.77 301 408.27 300.5 410.07 300.8C410.97 301 411.97 301.3 412.87 301.9C413.77 302.5 414.57 303.5 415.07 304.6C416.07 306.9 415.87 309.6 415.27 312.2C414.57 314.8 413.17 317.1 411.27 318.6C409.47 320.2 407.27 320.8 405.47 320.8C403.67 320.9 402.27 320.4 401.47 319.9C400.57 319.4 400.27 319 400.37 318.9C400.47 318.8 400.87 319 401.77 319.3C402.67 319.6 403.87 319.8 405.47 319.6C406.97 319.4 408.87 318.8 410.37 317.4C411.87 316 413.07 314 413.77 311.7C414.37 309.4 414.47 307 413.77 305.1C413.07 303.2 411.47 302.2 409.97 301.8C408.47 301.4 407.17 301.6 406.37 301.9C405.37 302.3 404.97 302.6 404.87 302.5Z" fill="black" stroke="black" stroke-width="0.5" stroke-miterlimit="10"/>
<path d="M367.87 314.1C367.77 314.3 366.47 313.9 364.67 312.5C364.27 312.1 363.77 311.7 363.37 311.2C362.97 310.6 362.57 309.8 362.57 309C362.47 307.2 363.47 305.7 364.27 304.3C367.67 298.8 370.77 294.5 371.17 294.8C371.57 295 369.07 299.7 365.67 305.2C364.77 306.5 364.07 307.8 364.07 308.9C364.07 310 364.77 310.9 365.47 311.7C366.87 313.2 367.97 313.9 367.87 314.1Z" fill="black" stroke="black" stroke-width="0.5" stroke-miterlimit="10"/>
<path d="M377.87 315.5C377.97 315.7 377.37 316.4 376.07 317.4C374.87 318.4 372.97 319.6 370.67 320.4C368.27 321.2 365.87 321.2 364.37 320.8C362.77 320.4 361.97 319.8 362.07 319.6C362.17 319.4 363.07 319.6 364.57 319.7C366.07 319.8 368.07 319.7 370.17 318.9C372.27 318.2 374.17 317.1 375.47 316.4C376.87 315.7 377.77 315.3 377.87 315.5Z" fill="black" stroke="black" stroke-width="0.5" stroke-miterlimit="10"/>
<path d="M377.67 317.1C377.27 317.3 376.67 316.9 376.37 316.4C376.07 315.8 375.97 315.2 376.37 314.9C376.67 314.6 377.37 314.9 377.77 315.6C378.27 316.2 378.17 317 377.67 317.1Z" fill="black" stroke="black" stroke-width="0.5" stroke-miterlimit="10"/>
<path d="M380.67 308.9C380.17 308.8 379.87 308.5 379.77 308.3C379.67 308 379.57 307.6 379.77 307.2C379.87 307 380.07 306.9 380.37 307C380.67 307.1 380.97 307.3 381.17 307.6C381.37 308 381.37 308.4 381.27 308.6C381.07 308.8 380.87 308.9 380.67 308.9Z" fill="black" stroke="black" stroke-width="0.5" stroke-miterlimit="10"/>
<path d="M389.77 306.6C389.97 307 389.67 307.5 389.27 307.7C388.77 307.9 388.27 307.7 388.07 307.3C387.87 306.9 388.17 306.4 388.57 306.2C389.07 306 389.57 306.2 389.77 306.6Z" fill="black" stroke="black" stroke-width="0.5" stroke-miterlimit="10"/>
<path d="M385.17 313.1C384.77 313.2 384.27 313 384.17 312.6C384.07 312.2 384.27 311.7 384.67 311.6C385.07 311.5 385.57 311.7 385.67 312.1C385.77 312.5 385.57 313 385.17 313.1Z" fill="black" stroke="black" stroke-width="0.5" stroke-miterlimit="10"/>
<path d="M390.97 299.3C391.17 299.4 390.87 300.2 389.87 301C388.97 301.8 387.27 302.7 385.37 302.8C383.37 302.9 381.57 302.2 380.67 301.2C380.17 300.7 379.97 300.2 379.87 299.8C379.77 299.4 379.87 299.2 379.97 299.2C380.17 299.1 380.47 299.8 381.37 300.3C382.17 300.9 383.57 301.3 385.27 301.2C386.87 301.1 388.27 300.6 389.27 300.1C390.17 299.6 390.77 299.2 390.97 299.3Z" fill="black" stroke="black" stroke-width="0.5" stroke-miterlimit="10"/>
<path d="M392.27 287.3C392.07 287.4 391.67 286.7 390.87 285.9C390.07 285.1 388.77 284.1 387.07 283.8C385.37 283.5 383.77 283.8 382.77 284.3C381.67 284.7 381.07 285.2 380.87 285.1C380.67 285 381.07 284.2 382.17 283.3C383.27 282.5 385.17 281.8 387.37 282.2C389.57 282.6 391.07 284.1 391.77 285.2C392.47 286.3 392.47 287.2 392.27 287.3Z" fill="black" stroke="black" stroke-width="0.5" stroke-miterlimit="10"/>
<path d="M362.77 295.3C362.37 295.2 362.27 293.6 362.97 291.7C363.67 289.9 364.67 288.6 365.07 288.9C365.47 289.1 365.07 290.6 364.47 292.3C363.87 294 363.27 295.3 362.77 295.3Z" fill="black" stroke="black" stroke-width="0.5" stroke-miterlimit="10"/>
<path d="M368.27 285.9C368.07 285.9 367.87 285.5 367.57 285C367.27 284.5 366.67 284 365.97 283.7C365.27 283.5 364.47 283.6 363.97 283.8C363.37 284 363.07 284.2 362.87 284.1C362.67 284 362.77 283.4 363.37 282.8C363.97 282.2 365.17 281.7 366.57 282.1C367.87 282.6 368.57 283.7 368.67 284.5C368.77 285.4 368.47 285.9 368.27 285.9Z" fill="black" stroke="black" stroke-width="0.5" stroke-miterlimit="10"/>
<path d="M405.27 302.9C405.17 303.1 403.17 302.4 400.57 300.4C397.87 298.4 394.67 294.9 392.67 290.1C390.67 285.3 390.57 280.5 391.07 277.2C391.57 273.9 392.47 272 392.67 272.1C392.87 272.2 392.37 274.1 392.17 277.3C391.97 280.5 392.37 285 394.17 289.4C395.97 293.9 398.87 297.3 401.27 299.4C403.57 301.7 405.37 302.7 405.27 302.9Z" fill="black" stroke="black" stroke-width="0.5" stroke-miterlimit="10"/>
<path d="M392.17 273.5C392.17 273.7 389.97 273.8 386.47 274.2C382.97 274.6 378.07 275.4 372.97 277.1C367.87 278.8 363.47 280.9 360.37 282.7C358.87 283.6 357.77 284.5 357.17 285.2C356.57 285.9 356.37 286.4 356.17 286.4C356.07 286.4 356.07 285.8 356.57 284.8C357.07 283.9 358.17 282.7 359.67 281.7C362.67 279.6 367.07 277.2 372.37 275.5C377.67 273.8 382.67 273.1 386.27 273C389.97 272.9 392.17 273.3 392.17 273.5Z" fill="black" stroke="black" stroke-width="0.5" stroke-miterlimit="10"/>
<path d="M397.87 263.4C397.77 263.5 397.07 262.8 395.57 261.9C394.07 260.9 391.87 259.7 388.87 258.9C385.87 258.1 382.17 257.8 378.17 258.5C374.17 259.2 369.87 260.8 365.77 263.2C361.77 265.6 358.37 268.8 356.17 272.2C353.97 275.6 352.97 279.2 352.67 282.3C352.37 285.4 352.87 287.9 353.37 289.5C353.87 291.2 354.27 292.1 354.17 292.1C354.07 292.1 353.47 291.4 352.77 289.7C352.07 288 351.37 285.4 351.57 282.2C351.67 279 352.67 275.1 354.97 271.4C357.27 267.7 360.77 264.4 364.97 261.8C369.17 259.3 373.67 257.6 377.97 257C382.27 256.4 386.17 256.8 389.27 257.8C392.37 258.8 394.57 260.2 395.97 261.4C397.37 262.5 397.87 263.3 397.87 263.4Z" fill="black" stroke="black" stroke-width="0.5" stroke-miterlimit="10"/>
<path d="M443.87 358.6C443.77 358.6 444.07 357 444.37 354.1C444.67 351.2 444.77 346.9 443.87 341.8C443.37 339.2 442.57 336.5 441.47 333.7C440.37 330.9 438.67 328.1 436.77 325.1C434.87 322.2 432.77 319.1 431.17 315.5C429.57 311.9 428.67 308 427.97 304C427.27 300 426.87 296.1 426.27 292.3C425.67 288.6 424.97 285 423.77 281.8C421.47 275.3 417.17 270.5 412.97 267.5C408.77 264.4 404.67 263.2 401.77 262.9C398.87 262.6 397.27 263.1 397.27 263C397.27 263 397.67 262.8 398.37 262.6C399.17 262.4 400.27 262.3 401.77 262.3C404.77 262.4 409.17 263.5 413.57 266.6C417.97 269.6 422.57 274.6 425.07 281.3C426.37 284.6 427.17 288.3 427.77 292.1C428.37 295.9 428.77 299.8 429.47 303.7C430.07 307.6 431.07 311.4 432.47 314.8C433.87 318.2 435.97 321.2 437.87 324.2C439.77 327.1 441.47 330.1 442.57 333.1C443.67 336 444.47 338.9 444.87 341.5C445.67 346.8 445.37 351.2 444.87 354.1C444.77 354.8 444.67 355.5 444.47 356C444.37 356.6 444.27 357 444.07 357.4C444.07 358.2 443.97 358.6 443.87 358.6Z" fill="black" stroke="black" stroke-width="0.5" stroke-miterlimit="10"/>
<path d="M443.97 358.1C444.07 358.1 443.77 359 442.67 360.1C441.57 361.2 439.37 362.2 436.67 362.6C435.97 362.7 435.27 362.8 434.57 362.8C433.87 362.8 433.07 362.9 432.27 362.9C431.47 362.9 430.67 362.9 429.77 362.8C428.87 362.8 428.07 362.6 427.17 362.5C423.57 362 419.77 361 415.97 359.3C412.17 357.6 408.87 355.4 406.17 353.1C403.37 350.8 401.37 348.3 399.77 346.1C399.07 345 398.27 344 397.87 343C397.37 342 396.87 341.3 396.67 340.5C396.07 339.1 395.87 338.3 395.97 338.3C396.27 338.2 397.57 341.2 400.77 345.4C402.47 347.4 404.47 349.8 407.17 352C409.87 354.2 413.07 356.3 416.67 357.9C423.97 361.2 431.37 361.9 436.57 361.4C439.17 361.2 441.17 360.4 442.27 359.6C443.47 358.7 443.87 358 443.97 358.1Z" fill="black" stroke="black" stroke-width="0.5" stroke-miterlimit="10"/>
<path d="M310.07 305.6C309.77 306.2 309.37 307.3 309.37 308.7C309.37 310.4 309.97 311.7 310.27 312.4C309.57 314.2 308.77 315.9 308.07 317.7C306.97 317.4 304.97 317.2 302.87 317.9C300.07 318.9 298.57 321 297.57 322.7C292.87 330 290.77 337.1 290.77 337.1C287.17 349.5 285.37 355.6 285.07 360.5C284.97 362.1 284.47 369.6 286.37 379.2C287.87 386.6 288.67 390.7 292.27 394.4C296.97 399.2 302.97 400.1 304.67 400.3C307.07 400.6 311.07 400.7 319.07 397.3C324.27 395.1 332.17 391 340.37 383.4C340.27 380.1 340.37 376.6 340.67 372.8C341.97 359.1 346.27 347.9 350.37 340C348.57 340.3 345.87 341 343.27 342.8C339.77 345.1 338.87 347.5 334.87 351.4C332.17 354 330.27 355.2 328.27 356.7C324.37 359.6 318.77 364.7 311.67 374.4C314.47 363.3 317.67 351.9 321.27 340.2C322.77 335.3 324.37 330.5 325.87 325.8C325.67 325.2 325.17 323.9 323.97 322.8C322.37 321.3 320.57 321 319.97 321C321.57 319.2 323.17 317.4 324.77 315.5C326.07 315.8 328.87 316.2 331.97 315C333.67 314.4 334.77 313.5 335.47 313C338.27 310.9 339.57 308.3 340.37 306.7C341.67 304.1 342.17 301.6 342.47 299.6C343.27 299.6 344.57 299.8 345.87 300.4C348.37 301.5 348.77 303.2 350.87 304.9C353.87 307.4 357.47 307.7 358.97 307.8C360.17 307.9 362.87 308.1 365.87 306.9C368.47 305.9 369.97 304.3 370.87 303.4C371.87 302.4 376.27 297.7 376.37 290.6C376.37 287.6 375.67 285.4 375.07 283.7C373.97 280.7 372.17 275.4 367.07 272.9C363.27 271.1 359.47 271.8 357.77 272.1C351.57 273.3 348.07 277.6 346.97 278.9C342.97 283.8 342.67 289.1 342.57 290.9C341.37 290.6 340.17 290.3 339.07 290C338.17 288.9 336.27 286.8 333.17 285.6C330.47 284.5 328.17 284.7 326.17 284.9C324.07 285.1 319.47 285.5 315.17 288.9C312.87 290.7 311.47 292.8 310.67 294.4C310.07 295 308.67 296.6 308.27 299.1C307.87 302.5 309.77 305.1 310.07 305.6Z" fill="white"/>
<path d="M312.47 373.7C312.27 373.5 314.27 371.1 317.67 367.3C321.07 363.5 325.77 358.3 331.07 352.7C333.77 349.9 336.37 347.2 339.07 345.1C341.77 343 344.37 341.4 346.77 340.4C349.17 339.4 351.27 338.9 352.67 338.8C354.07 338.6 354.87 338.7 354.87 338.8C354.87 339.1 351.67 339.2 347.17 341.4C344.97 342.5 342.47 344.1 339.87 346.3C337.37 348.4 334.77 351.1 332.17 353.9C326.87 359.5 321.97 364.6 318.37 368.2C314.97 371.7 312.67 373.9 312.47 373.7Z" fill="black" stroke="black" stroke-width="0.5" stroke-miterlimit="10"/>
<path d="M325.97 325.8C326.17 325.9 325.47 328.7 324.17 333.2C322.87 337.7 321.07 343.9 319.07 350.8C317.07 357.7 315.37 363.9 314.07 368.4C312.77 372.9 311.87 375.7 311.67 375.6C311.47 375.5 311.97 372.7 312.97 368.1C313.97 363.5 315.57 357.2 317.57 350.3C319.57 343.4 321.57 337.2 323.17 332.8C324.67 328.4 325.77 325.7 325.97 325.8Z" fill="black" stroke="black" stroke-width="0.5" stroke-miterlimit="10"/>
<path d="M325.57 325.3C325.47 325.4 325.07 324.3 323.67 323.1C322.37 321.9 319.87 320.8 316.67 320C315.07 319.6 313.27 319.2 311.37 318.8C309.47 318.5 307.37 318.1 305.27 318.3C303.17 318.4 301.07 319.1 299.67 320.8C298.97 321.6 298.37 322.7 297.77 323.8C297.17 324.9 296.57 326 295.97 327.1C291.27 336.1 288.57 345 287.17 351.5C285.77 358 285.37 362.2 285.07 362.1C284.97 362.1 284.97 361 285.07 359.2C285.17 357.3 285.47 354.6 286.07 351.3C287.27 344.7 289.77 335.6 294.57 326.4C295.17 325.3 295.77 324.1 296.37 323C296.97 321.9 297.57 320.8 298.47 319.8C299.27 318.8 300.47 318 301.67 317.5C302.87 317 304.07 316.8 305.27 316.8C307.57 316.7 309.77 317.1 311.67 317.5C313.57 317.9 315.37 318.4 317.07 318.9C320.37 319.8 322.87 321.2 324.17 322.7C325.57 324.1 325.67 325.3 325.57 325.3Z" fill="black" stroke="black" stroke-width="0.5" stroke-miterlimit="10"/>
<path d="M339.47 384.2C339.57 384.3 338.67 385.2 336.87 386.6C335.07 388 332.47 390 329.07 392.2C327.37 393.3 325.47 394.5 323.47 395.7C321.37 396.9 319.07 398.1 316.57 399.1C314.07 400.1 311.17 400.8 308.17 401.1C305.17 401.3 301.97 400.9 298.97 399.5C295.97 398.2 293.57 396 291.77 393.6C289.97 391.2 288.67 388.6 287.67 386.1C285.67 381 285.07 376.1 284.77 372C284.47 367.9 284.57 364.6 284.77 362.4C284.87 360.1 285.07 358.9 285.17 358.9C285.27 358.9 285.37 360.2 285.37 362.4C285.47 364.7 285.47 367.9 285.97 371.9C286.37 375.9 287.17 380.6 289.17 385.5C290.17 387.9 291.47 390.4 293.17 392.6C294.87 394.8 297.07 396.8 299.77 398C302.47 399.2 305.37 399.6 308.17 399.4C310.97 399.2 313.67 398.5 316.07 397.6C318.57 396.7 320.77 395.6 322.87 394.4C324.97 393.2 326.87 392.1 328.57 391.1C332.07 389 334.77 387.2 336.57 385.9C338.37 384.8 339.37 384.1 339.47 384.2Z" fill="black" stroke="black" stroke-width="0.5" stroke-miterlimit="10"/>
<path d="M334.27 303.8C334.07 303.7 335.47 301.6 338.37 298.8C338.77 298.5 339.17 298 339.87 297.8C340.57 297.6 341.47 297.8 342.07 298.3C342.67 298.8 343.07 299.5 343.17 300.3C343.27 301.1 343.17 301.8 342.97 302.5C342.17 305.1 340.77 307.7 338.97 310.3C338.07 311.5 337.07 312.7 335.87 313.7C334.77 314.7 333.37 315.5 331.97 315.8C330.57 316.2 329.17 316 328.07 315.9C326.97 315.8 325.97 315.8 325.07 316C323.37 316.6 322.47 318 321.87 318.9C321.27 319.8 320.97 320.3 320.87 320.3C320.77 320.3 320.87 319.6 321.37 318.6C321.57 318.1 321.87 317.5 322.37 316.8C322.87 316.1 323.57 315.4 324.67 315C325.67 314.6 326.97 314.5 328.07 314.6C329.27 314.6 330.47 314.7 331.57 314.4C333.87 313.8 335.87 311.8 337.57 309.4C339.27 307 340.67 304.5 341.47 302.2C341.67 301.6 341.77 301.1 341.67 300.6C341.67 300.2 341.37 299.7 341.07 299.5C340.77 299.2 340.47 299.1 340.07 299.2C339.77 299.3 339.37 299.5 338.97 299.8C336.17 302.2 334.47 304 334.27 303.8Z" fill="black" stroke="black" stroke-width="0.5" stroke-miterlimit="10"/>
<path d="M335.27 302.8C335.37 303.2 326.97 305.1 316.57 306.3C315.27 306.4 313.97 306.6 312.57 306.5C311.27 306.4 309.77 306 308.87 305C307.87 303.9 307.67 302.6 307.67 301.5C307.67 300.4 307.87 299.4 308.07 298.5C308.57 296.7 309.57 295.5 310.27 294.9C311.07 294.3 311.57 294.1 311.67 294.2C311.77 294.3 311.27 294.6 310.77 295.4C310.17 296.1 309.57 297.3 309.17 298.9C308.97 299.7 308.97 300.6 308.97 301.5C309.07 302.4 309.27 303.4 309.87 304C310.47 304.6 311.47 304.9 312.67 305C313.77 305.1 315.07 304.9 316.37 304.8C326.67 303.5 335.17 302.3 335.27 302.8Z" fill="black" stroke="black" stroke-width="0.5" stroke-miterlimit="10"/>
<path d="M314.17 304.7C313.97 304.5 314.57 303.9 314.87 302.8C315.27 301.7 315.47 299.9 315.17 298.1C314.97 297.2 314.67 296.4 314.27 295.9C313.87 295.3 313.27 295 312.77 294.8C311.77 294.4 310.97 294.6 310.87 294.4C310.87 294.3 310.97 294.1 311.37 293.9C311.77 293.7 312.37 293.5 313.17 293.7C313.97 293.8 314.77 294.2 315.57 295C316.27 295.8 316.77 296.8 316.97 297.9C317.37 300.1 316.87 302.1 316.17 303.3C315.27 304.5 314.27 304.8 314.17 304.7Z" fill="black" stroke="black" stroke-width="0.5" stroke-miterlimit="10"/>
<path d="M318.07 293C318.07 293.5 316.77 293.8 315.17 294C313.57 294.2 312.27 294.2 312.17 293.8C312.07 293.4 313.27 292.6 314.97 292.4C316.67 292.1 318.07 292.6 318.07 293Z" fill="black" stroke="black" stroke-width="0.5" stroke-miterlimit="10"/>
<path d="M322.97 290.1C322.77 290.3 322.17 289.9 321.17 289.5C320.17 289.1 318.67 288.8 317.17 289.1C315.67 289.4 314.37 290.3 313.57 291C312.77 291.7 312.37 292.4 312.17 292.3C311.97 292.2 311.97 291.4 312.67 290.3C313.37 289.2 314.77 287.9 316.77 287.5C318.77 287.1 320.67 287.8 321.67 288.5C322.77 289.2 323.07 290 322.97 290.1Z" fill="black" stroke="black" stroke-width="0.5" stroke-miterlimit="10"/>
<path d="M340.37 292.1C340.17 292.2 339.47 291 337.77 289.4C336.17 287.9 333.47 286.2 330.17 285.7C326.87 285.2 323.77 286 321.57 286.5C319.37 287.1 317.97 287.5 317.87 287.2C317.77 287 319.07 286.2 321.17 285.4C323.37 284.6 326.57 283.5 330.37 284C332.27 284.2 333.97 284.9 335.27 285.8C336.67 286.6 337.77 287.6 338.47 288.6C340.27 290.5 340.57 292 340.37 292.1Z" fill="black" stroke="black" stroke-width="0.5" stroke-miterlimit="10"/>
<path d="M326.37 293.8C326.47 293.8 326.57 294 326.57 294.5C326.57 294.9 326.27 295.6 325.57 296.1C324.97 296.6 323.97 297 322.87 296.9C321.77 296.8 320.77 296.4 319.77 295.8C318.87 295.2 318.07 294.6 317.37 294.1C316.67 293.6 316.07 293.2 315.47 293C314.27 292.6 313.47 292.7 313.37 292.5C313.37 292.4 313.47 292.2 313.87 292.1C314.27 291.9 314.87 291.8 315.67 292C316.47 292.1 317.27 292.4 318.17 292.9C318.97 293.4 319.77 294 320.67 294.5C321.47 295 322.27 295.4 323.07 295.5C323.87 295.6 324.47 295.5 324.97 295.2C325.97 294.7 326.07 293.8 326.37 293.8Z" fill="black" stroke="black" stroke-width="0.5" stroke-miterlimit="10"/>
<path d="M340.87 291.6C341.07 291.7 340.87 292.7 339.87 294C338.87 295.3 336.87 296.8 334.27 297.2C331.67 297.6 329.37 296.9 327.97 296.1C326.57 295.3 325.87 294.5 325.97 294.3C326.07 294.1 326.97 294.5 328.37 295C329.77 295.5 331.77 295.9 333.97 295.5C336.07 295.2 337.87 294.1 338.97 293.2C340.07 292.3 340.67 291.5 340.87 291.6Z" fill="black" stroke="black" stroke-width="0.5" stroke-miterlimit="10"/>
<path d="M331.87 294.9C331.67 295 331.27 294.2 330.57 293C329.87 291.9 328.77 290.4 327.27 289.2C325.67 288 323.97 287.3 322.77 286.9C321.47 286.5 320.67 286.4 320.67 286.1C320.67 285.9 321.57 285.6 323.07 285.7C324.57 285.8 326.57 286.4 328.37 287.8C330.17 289.2 331.27 291.1 331.77 292.4C332.07 293.9 332.07 294.8 331.87 294.9Z" fill="black" stroke="black" stroke-width="0.5" stroke-miterlimit="10"/>
<path d="M335.87 294.5C335.37 294.6 334.67 291.9 332.57 289.3C330.47 286.7 327.97 285.4 328.17 284.9C328.27 284.7 328.97 284.8 330.17 285.3C331.27 285.8 332.67 286.8 333.87 288.3C335.07 289.8 335.67 291.4 335.97 292.6C336.17 293.7 336.07 294.4 335.87 294.5Z" fill="black" stroke="black" stroke-width="0.5" stroke-miterlimit="10"/>
<path d="M308.07 317.7C307.87 317.7 307.77 316.9 308.07 315.7C308.27 315.1 308.47 314.4 308.87 313.7C309.07 313.3 309.27 313 309.37 312.7C309.47 312.4 309.47 312.2 309.47 311.9C309.37 311.3 308.87 310.4 308.77 309.5C308.67 308.6 308.77 307.8 308.87 307.2C309.27 305.9 309.87 305.4 310.07 305.5C310.27 305.6 310.07 306.3 309.97 307.4C309.97 307.9 309.97 308.5 310.17 309.2C310.27 309.5 310.37 309.8 310.57 310.2C310.77 310.6 310.97 311 311.07 311.6C311.17 312.2 311.07 312.9 310.87 313.3C310.67 313.8 310.37 314.1 310.17 314.4C309.77 315 309.47 315.5 309.17 316C308.57 317.1 308.27 317.7 308.07 317.7Z" fill="black" stroke="black" stroke-width="0.5" stroke-miterlimit="10"/>
<path d="M369.07 305.8C368.97 305.7 369.57 304.8 370.57 303.2C371.57 301.6 373.17 299.3 374.47 296.3C375.07 294.8 375.57 293 375.77 291.1C375.87 289.2 375.67 287.1 374.97 285.1C373.57 281 370.47 277 366.37 274.2C365.37 273.5 364.27 273 363.17 272.8C362.07 272.6 360.87 272.5 359.67 272.7C357.37 273 355.17 273.7 353.27 274.8C349.47 276.9 346.87 280.1 345.27 283C344.57 284.5 343.97 285.9 343.67 287.2C343.47 287.8 343.47 288.4 343.27 289C343.17 289.6 343.17 290 343.07 290.7C343.07 290.8 343.07 291 343.07 291.1C342.97 291.2 342.77 291.2 342.67 291.2C342.37 291.3 342.17 291.3 341.97 291.3C341.57 291.3 341.27 291.3 340.97 291.2C340.47 291.1 340.17 291 340.27 290.9C340.27 290.8 340.57 290.9 341.07 290.9C341.27 290.9 341.57 290.9 341.97 290.8C342.07 290.8 342.27 290.7 342.37 290.7C342.47 290.7 342.57 290.7 342.57 290.6C342.57 290.5 342.57 290.4 342.57 290.3C342.57 290 342.57 289.4 342.57 288.8C342.67 288.2 342.67 287.6 342.87 286.9C343.07 285.5 343.57 284 344.27 282.4C345.77 279.3 348.47 275.8 352.57 273.4C354.57 272.2 356.97 271.4 359.57 271.1C360.87 271 362.17 270.9 363.57 271.2C364.97 271.5 366.17 272.1 367.37 272.8C371.87 275.9 375.07 280.2 376.47 284.6C377.17 286.8 377.47 289.1 377.27 291.2C377.07 293.3 376.47 295.2 375.77 296.7C374.27 299.9 372.57 302.1 371.37 303.6C369.87 305.2 369.07 305.9 369.07 305.8Z" fill="black" stroke="black" stroke-width="0.5" stroke-miterlimit="10"/>
<path d="M370.07 304.6C370.17 304.7 368.97 306.1 366.27 307.3C364.97 307.9 363.27 308.4 361.37 308.6C359.47 308.8 357.27 308.6 355.17 307.9C353.07 307.2 351.17 306.2 349.67 305C348.87 304.4 348.27 303.7 347.67 303.1C347.07 302.5 346.67 301.9 346.17 301.4C345.27 300.4 344.37 300 343.67 299.8C342.97 299.6 342.57 299.7 342.47 299.6C342.47 299.5 342.87 299.2 343.67 299.2C344.57 299.2 345.77 299.6 346.97 300.6C347.57 301.1 348.07 301.6 348.67 302.2C349.27 302.8 349.87 303.3 350.57 303.8C351.97 304.8 353.77 305.8 355.67 306.4C359.57 307.6 363.37 307.1 365.97 306.3C368.47 305.4 369.97 304.4 370.07 304.6Z" fill="black" stroke="black" stroke-width="0.5" stroke-miterlimit="10"/>
<path d="M349.07 296C349.17 295.9 349.57 297 350.77 298.4C351.37 299.1 352.17 299.9 353.37 300.5C354.47 301.2 355.87 301.7 357.47 301.9C359.07 302.1 360.87 301.9 362.67 301.2C364.37 300.5 366.07 299.2 367.37 297.5C369.97 294.2 370.37 288.7 367.97 284.4C366.77 282.3 364.87 280.6 362.77 279.9C360.67 279.1 358.37 279.7 356.47 280.6C352.57 282.5 349.87 285.7 348.97 288.9C348.07 292.1 348.77 294.8 349.57 296.5C350.37 298.2 351.27 298.9 351.17 299C351.17 299.1 350.17 298.5 349.07 296.8C348.07 295.1 347.07 292.2 347.87 288.6C348.67 285.1 351.57 281.4 355.77 279.3C356.87 278.8 357.97 278.3 359.27 278.1C360.57 277.9 361.97 278 363.27 278.4C365.87 279.3 367.97 281.2 369.37 283.6C372.07 288.5 371.57 294.6 368.57 298.4C365.57 302.2 360.87 303.7 357.37 303.1C355.57 302.8 354.07 302.1 352.87 301.3C351.67 300.5 350.87 299.6 350.27 298.8C349.17 297.1 348.97 296 349.07 296Z" fill="black" stroke="black" stroke-width="0.5" stroke-miterlimit="10"/>
<path d="M351.27 298.5C350.87 298.4 351.27 293.8 353.57 288.5C355.77 283.3 358.87 279.8 359.27 280C359.67 280.3 357.27 284.1 355.07 289.1C352.87 294.3 351.77 298.6 351.27 298.5Z" fill="black" stroke="black" stroke-width="0.5" stroke-miterlimit="10"/>
<path d="M364.07 286C364.47 286.2 363.77 288 362.77 290.1C361.77 292.1 360.77 293.8 360.37 293.6C359.97 293.5 360.27 291.5 361.27 289.4C362.37 287.2 363.67 285.8 364.07 286Z" fill="black" stroke="black" stroke-width="0.5" stroke-miterlimit="10"/>
<path d="M363.67 287C364.07 287.3 363.37 289 362.37 291.1C361.37 293.2 360.57 294.9 360.07 294.7C359.67 294.6 359.87 292.6 360.87 290.4C361.87 288.2 363.27 286.8 363.67 287Z" fill="black" stroke="black" stroke-width="0.5" stroke-miterlimit="10"/>
<path d="M36.0962 251.915C37.2654 249.413 37.8888 247.234 37.4885 247.047C37.0883 246.86 35.816 248.736 34.6468 251.238C33.4776 253.739 32.8543 255.919 33.2545 256.106C33.6548 256.293 34.927 254.417 36.0962 251.915Z" fill="black" stroke="black" stroke-width="0.5" stroke-miterlimit="10"/>
<path d="M34.1731 279.576C34.6119 279.524 34.7854 277.926 34.5606 276.006C34.3358 274.087 33.7978 272.572 33.359 272.623C32.9202 272.675 32.7467 274.273 32.9715 276.193C33.1963 278.112 33.7343 279.627 34.1731 279.576Z" fill="black" stroke="black" stroke-width="0.5" stroke-miterlimit="10"/>
<path d="M47.5701 300.8C47.2701 301.1 46.0701 300.6 44.9701 299.6C43.8701 298.6 43.1701 297.5 43.4701 297.2C43.7701 296.9 44.9701 297.4 46.0701 298.4C47.1701 299.4 47.8701 300.4 47.5701 300.8Z" fill="black" stroke="black" stroke-width="0.5" stroke-miterlimit="10"/>
<path d="M54.67 326.9C54.27 326.8 54.67 324.1 54.67 320.9C54.67 317.7 54.27 315 54.77 314.9C55.17 314.8 56.37 317.4 56.37 320.9C56.27 324.4 55.07 327 54.67 326.9Z" fill="black" stroke="black" stroke-width="0.5" stroke-miterlimit="10"/>
<path d="M49.3171 351.102C50.0609 347.986 50.3155 345.377 49.8857 345.275C49.456 345.172 48.5046 347.615 47.7608 350.73C47.017 353.846 46.7624 356.455 47.1922 356.558C47.622 356.66 48.5734 354.218 49.3171 351.102Z" fill="black" stroke="black" stroke-width="0.5" stroke-miterlimit="10"/>
<path d="M45.5901 378.447C46.0062 374.937 45.9877 372.05 45.549 371.998C45.1103 371.946 44.4174 374.749 44.0013 378.259C43.5853 381.768 43.6037 384.656 44.0424 384.708C44.4812 384.76 45.1741 381.957 45.5901 378.447Z" fill="black" stroke="black" stroke-width="0.5" stroke-miterlimit="10"/>
<path d="M46.8696 410.9C46.4696 411 45.4696 408.4 44.6696 405.1C43.8696 401.8 43.6696 399 44.0696 398.9C44.4696 398.8 45.4696 401.4 46.2696 404.7C46.9696 408 47.2696 410.8 46.8696 410.9Z" fill="black" stroke="black" stroke-width="0.5" stroke-miterlimit="10"/>
<path d="M68.0698 434.1C68.0698 434.3 67.1698 434.5 65.7698 434.3C64.3698 434.2 62.4698 433.6 60.5698 432.6C58.6698 431.6 57.2698 430.2 56.3698 429.1C55.4698 428 55.1698 427.2 55.3698 427.1C55.7698 426.8 57.8698 429.3 61.3698 431.2C64.8698 433.1 68.1698 433.6 68.0698 434.1Z" fill="black" stroke="black" stroke-width="0.5" stroke-miterlimit="10"/>
<path d="M92.7698 425.7C92.9698 425.8 92.7698 426.4 92.1698 427.1C91.5698 427.8 90.5698 428.6 89.2698 429.2C87.9698 429.8 86.6698 429.9 85.7698 429.8C84.8698 429.7 84.2698 429.5 84.3698 429.3C84.3698 428.8 86.4698 428.7 88.6698 427.7C90.8698 426.8 92.3698 425.4 92.7698 425.7Z" fill="black" stroke="black" stroke-width="0.5" stroke-miterlimit="10"/>
<path d="M109.37 402.4C109.57 402.4 109.77 403.1 109.77 404.4C109.77 405.6 109.47 407.3 108.67 409C107.87 410.7 106.77 412 105.87 412.8C104.97 413.6 104.27 413.9 104.07 413.7C103.77 413.3 105.77 411.3 107.17 408.2C108.67 405.2 108.97 402.4 109.37 402.4Z" fill="black" stroke="black" stroke-width="0.5" stroke-miterlimit="10"/>
<path d="M111.17 391.1C111.611 391.1 111.97 388.906 111.97 386.2C111.97 383.494 111.611 381.3 111.17 381.3C110.728 381.3 110.37 383.494 110.37 386.2C110.37 388.906 110.728 391.1 111.17 391.1Z" fill="black" stroke="black" stroke-width="0.5" stroke-miterlimit="10"/>
<path d="M117.87 359.9C118.27 360.1 117.47 362.2 116.17 364.6C114.87 366.9 113.37 368.7 113.07 368.4C112.67 368.2 113.47 366.1 114.77 363.7C116.07 361.4 117.57 359.7 117.87 359.9Z" fill="black" stroke="black" stroke-width="0.5" stroke-miterlimit="10"/>
<path d="M135.17 344.6C135.37 345 133.67 346.4 131.37 347.7C129.07 349 126.97 349.8 126.67 349.4C126.37 349 128.17 347.6 130.47 346.3C132.87 344.9 134.97 344.2 135.17 344.6Z" fill="black" stroke="black" stroke-width="0.5" stroke-miterlimit="10"/>
<path d="M68.7699 228.8C68.9699 229.2 67.1699 230.3 65.0699 231.6C62.9699 232.9 61.2699 234 60.9699 233.6C60.6699 233.3 61.9699 231.6 64.2699 230.2C66.5699 228.9 68.6699 228.4 68.7699 228.8Z" fill="black" stroke="black" stroke-width="0.5" stroke-miterlimit="10"/>
<path d="M92.8699 218.9C93.0699 219.3 91.3699 220.8 88.6699 221.5C85.9699 222.3 83.6699 221.9 83.6699 221.5C83.6699 221 85.7699 220.7 88.1699 220C90.5699 219.3 92.5699 218.5 92.8699 218.9Z" fill="black" stroke="black" stroke-width="0.5" stroke-miterlimit="10"/>
<path d="M114.57 202.6C114.97 202.8 113.77 206.2 110.77 209.3C107.77 212.5 104.37 213.7 104.17 213.3C103.97 212.9 106.77 211.1 109.57 208.1C112.47 205.3 114.17 202.4 114.57 202.6Z" fill="black" stroke="black" stroke-width="0.5" stroke-miterlimit="10"/>
<path d="M125.57 180.6C125.97 180.8 125.07 183.2 123.97 186.1C122.97 189 122.17 191.4 121.67 191.4C121.27 191.3 121.37 188.7 122.47 185.6C123.57 182.5 125.27 180.4 125.57 180.6Z" fill="black" stroke="black" stroke-width="0.5" stroke-miterlimit="10"/>
<path d="M143.57 163.1C143.77 163.5 141.87 164.6 139.77 166.1C137.67 167.6 136.17 169 135.77 168.8C135.37 168.5 136.57 166.5 138.77 164.8C141.17 163.1 143.47 162.7 143.57 163.1Z" fill="black" stroke="black" stroke-width="0.5" stroke-miterlimit="10"/>
<path d="M157.89 156.092C160.242 155.763 162.099 155.141 162.038 154.704C161.977 154.266 160.02 154.178 157.668 154.508C155.316 154.837 153.459 155.458 153.521 155.896C153.582 156.333 155.538 156.421 157.89 156.092Z" fill="black" stroke="black" stroke-width="0.5" stroke-miterlimit="10"/>
<path d="M186.77 164.4C186.47 164.8 183.77 163.1 180.67 160.7C177.57 158.3 175.27 156.1 175.57 155.7C175.87 155.3 178.57 157 181.67 159.4C184.77 161.9 186.97 164.1 186.77 164.4Z" fill="black" stroke="black" stroke-width="0.5" stroke-miterlimit="10"/>
<path d="M188.07 188.5C187.67 188.3 187.97 187.1 188.17 185.6C188.37 184.2 188.37 182.9 188.87 182.8C189.27 182.7 190.07 184 189.77 185.8C189.57 187.7 188.47 188.8 188.07 188.5Z" fill="black" stroke="black" stroke-width="0.5" stroke-miterlimit="10"/>
<path d="M178.27 202C177.87 201.7 178.57 200.2 179.67 198.7C180.87 197.1 182.07 196.1 182.47 196.4C182.87 196.7 182.17 198.2 181.07 199.7C179.87 201.2 178.67 202.3 178.27 202Z" fill="black" stroke="black" stroke-width="0.5" stroke-miterlimit="10"/>
<path d="M172.37 221.1C171.97 221.3 170.87 219.4 170.97 216.8C171.07 214.2 172.27 212.4 172.67 212.6C173.07 212.8 172.67 214.6 172.67 216.9C172.47 219 172.77 220.9 172.37 221.1Z" fill="black" stroke="black" stroke-width="0.5" stroke-miterlimit="10"/>
<path d="M180.87 236.7C180.57 237 178.87 236 177.57 234.1C176.17 232.2 175.87 230.3 176.27 230.1C176.67 229.9 177.67 231.4 178.97 233.2C180.07 235 181.17 236.4 180.87 236.7Z" fill="black" stroke="black" stroke-width="0.5" stroke-miterlimit="10"/>
<path d="M200.07 240.8C200.17 241.2 198.57 241.8 196.67 242C194.77 242.2 193.07 242 193.07 241.6C192.97 241.2 194.57 240.6 196.47 240.4C198.37 240.2 200.07 240.3 200.07 240.8Z" fill="black" stroke="black" stroke-width="0.5" stroke-miterlimit="10"/>
<path d="M223.47 225.3C223.87 225.5 223.07 227.9 220.97 230.1C218.87 232.4 216.67 233.4 216.37 233C216.07 232.6 217.87 231 219.77 229C221.67 226.9 223.07 225.1 223.47 225.3Z" fill="black" stroke="black" stroke-width="0.5" stroke-miterlimit="10"/>
<path d="M235.37 211.8C235.67 212.1 234.77 213.8 233.17 215.5C231.67 217.3 230.07 218.5 229.77 218.2C229.47 217.9 230.37 216.2 231.97 214.5C233.57 212.8 234.97 211.5 235.37 211.8Z" fill="black" stroke="black" stroke-width="0.5" stroke-miterlimit="10"/>
<path d="M252.97 198.3C253.27 198.7 251.37 200.4 248.87 202.2C246.37 204 244.07 205.1 243.87 204.7C243.57 204.3 245.47 202.6 247.97 200.8C250.47 199.1 252.67 197.9 252.97 198.3Z" fill="black" stroke="black" stroke-width="0.5" stroke-miterlimit="10"/>
<path d="M277.67 191.5C277.57 192 274.57 191.7 270.97 192.1C267.37 192.4 264.47 193.3 264.27 192.8C264.07 192.4 266.87 190.8 270.77 190.4C274.77 190.1 277.77 191.1 277.67 191.5Z" fill="black" stroke="black" stroke-width="0.5" stroke-miterlimit="10"/>
<path d="M303.87 194.8C303.77 195.2 302.37 195.3 300.87 194.8C299.27 194.4 298.17 193.7 298.27 193.3C298.37 192.9 299.77 192.8 301.27 193.3C302.87 193.7 303.97 194.4 303.87 194.8Z" fill="black" stroke="black" stroke-width="0.5" stroke-miterlimit="10"/>
<path d="M329.17 185C329.37 185.1 329.27 186.1 328.47 187.6C328.07 188.4 327.47 189.2 326.77 190C326.07 190.8 325.07 191.7 324.07 192.4C322.97 193.1 321.87 193.6 320.77 194C319.67 194.3 318.67 194.6 317.87 194.6C316.17 194.7 315.17 194.4 315.17 194.2C315.17 194 316.17 193.8 317.67 193.4C319.17 193 321.17 192.2 323.17 191C325.07 189.7 326.57 188.1 327.57 186.9C328.47 185.8 328.97 184.9 329.17 185Z" fill="black" stroke="black" stroke-width="0.5" stroke-miterlimit="10"/>
<path d="M340.47 166.6C340.87 166.8 340.27 169 339.07 171.5C337.87 174 336.57 175.9 336.17 175.7C335.77 175.5 336.37 173.3 337.57 170.8C338.77 168.3 340.07 166.4 340.47 166.6Z" fill="black" stroke="black" stroke-width="0.5" stroke-miterlimit="10"/>
<path d="M348.97 156.7C349.17 157.1 348.37 157.9 347.17 158.5C345.97 159.1 344.87 159.2 344.67 158.8C344.47 158.4 345.27 157.6 346.47 157C347.67 156.4 348.77 156.3 348.97 156.7Z" fill="black" stroke="black" stroke-width="0.5" stroke-miterlimit="10"/>
<path d="M156.17 356.7C156.07 356.8 153.47 354.3 150.07 349.7C148.37 347.4 146.37 344.5 144.37 341.3C142.37 338 140.37 334.4 138.37 330.4C134.47 322.5 131.47 315.1 129.47 309.8C127.47 304.4 126.27 301.1 126.57 301C126.77 300.9 128.27 304.1 130.57 309.4C132.87 314.6 135.97 321.9 139.87 329.7C141.77 333.6 143.77 337.2 145.67 340.5C147.57 343.8 149.37 346.6 150.97 349C154.17 353.8 156.37 356.5 156.17 356.7Z" fill="black" stroke="black" stroke-width="0.5" stroke-miterlimit="10"/>
<path d="M159.27 282.8C159.37 283 157.77 284.3 154.97 286.3C152.17 288.3 148.17 291 143.67 293.6C139.07 296.3 134.77 298.3 131.57 299.6C128.37 300.9 126.27 301.4 126.17 301.2C126.07 301 128.07 300.1 131.07 298.6C134.17 297.1 138.37 294.9 142.87 292.3C147.37 289.7 151.47 287.2 154.37 285.4C157.27 283.6 159.17 282.6 159.27 282.8Z" fill="black" stroke="black" stroke-width="0.5" stroke-miterlimit="10"/>
<path d="M160.769 285.9C160.869 285.8 161.369 286.6 162.769 287.4C164.069 288.2 166.469 288.9 169.069 288C171.569 287.1 174.269 284.5 174.769 280.9C175.069 279.1 174.869 277.2 174.069 275.4C173.269 273.7 171.869 272.2 169.969 271.3C168.169 270.4 166.069 270.2 164.169 270.7C162.369 271.2 160.769 272.4 159.769 273.9C158.769 275.3 158.169 277 158.069 278.6C158.069 279.4 158.069 280.2 158.269 280.9C158.469 281.6 158.769 282.3 159.069 282.9C160.469 285.3 162.469 286.6 163.869 287.2C165.369 287.8 166.269 287.8 166.269 288C166.269 288.1 165.369 288.3 163.669 287.8C162.069 287.4 159.669 286.2 158.069 283.5C157.669 282.8 157.269 282.1 157.069 281.3C156.769 280.5 156.669 279.6 156.669 278.7C156.669 276.8 157.269 274.9 158.469 273.2C159.669 271.5 161.469 270 163.669 269.4C165.869 268.7 168.369 269 170.569 270.1C172.769 271.1 174.469 272.9 175.369 275C176.269 277.1 176.469 279.4 176.069 281.4C175.669 283.4 174.769 285.2 173.469 286.6C172.169 287.9 170.669 288.9 169.169 289.3C167.669 289.8 166.169 289.7 164.969 289.5C163.769 289.2 162.869 288.7 162.169 288.2C160.969 286.9 160.669 285.9 160.769 285.9Z" fill="black" stroke="black" stroke-width="0.5" stroke-miterlimit="10"/>
<path d="M197.07 319.2C196.97 319.4 195.07 318 192.37 315.5C189.67 313 186.17 309.2 182.77 304.6C179.37 300 176.77 295.6 175.17 292.3C173.47 289 172.77 286.8 172.97 286.7C173.37 286.5 177.47 294.7 184.17 303.6C190.67 312.6 197.37 318.8 197.07 319.2Z" fill="black" stroke="black" stroke-width="0.5" stroke-miterlimit="10"/>
<path d="M197.169 319.7C197.369 319.8 196.369 322.8 193.769 327.4C193.469 328 193.069 328.6 192.769 329.2C192.369 329.8 191.969 330.4 191.569 331.1C190.769 332.4 189.769 333.7 188.769 335.1C186.669 337.8 184.069 340.6 181.169 343.4C178.169 346.1 175.169 348.4 172.269 350.2C170.769 351.1 169.369 352 168.069 352.7C167.369 353.1 166.769 353.4 166.069 353.7C165.469 354 164.769 354.3 164.169 354.6C159.369 356.7 156.269 357.4 156.169 357.3C156.069 357 159.069 355.9 163.669 353.6C164.269 353.3 164.869 353 165.469 352.7C166.069 352.4 166.669 352 167.369 351.6C168.669 350.9 169.969 350 171.469 349C174.269 347.1 177.169 344.8 180.069 342.2C182.969 339.6 185.469 336.8 187.569 334.2C188.569 332.9 189.669 331.6 190.469 330.4C190.869 329.8 191.369 329.2 191.769 328.6C192.169 328 192.469 327.5 192.869 326.9C195.469 322.5 196.869 319.6 197.169 319.7Z" fill="black" stroke="black" stroke-width="0.5" stroke-miterlimit="10"/>
<path d="M153.069 297.2C153.369 297.5 150.369 301.1 145.569 304C140.769 307 136.169 308.1 136.069 307.7C135.869 307.3 140.069 305.5 144.669 302.6C149.369 299.8 152.769 296.9 153.069 297.2Z" fill="black" stroke="black" stroke-width="0.5" stroke-miterlimit="10"/>
<path d="M152.67 303.4C152.87 303.8 150.47 305.8 147.27 307.9C144.07 310 141.17 311.4 140.97 311.1C140.77 310.7 143.17 308.7 146.37 306.6C149.57 304.4 152.37 303 152.67 303.4Z" fill="black" stroke="black" stroke-width="0.5" stroke-miterlimit="10"/>
<path d="M164.87 306.5C165.17 306.9 160.87 310.4 154.97 313.9C149.07 317.4 143.97 319.6 143.77 319.2C143.57 318.8 148.27 316 154.07 312.5C159.87 309 164.57 306.1 164.87 306.5Z" fill="black" stroke="black" stroke-width="0.5" stroke-miterlimit="10"/>
<path d="M172.57 312.9C172.87 313.3 167.17 317.8 159.87 323.1C152.57 328.4 146.47 332.3 146.17 332C145.87 331.6 151.57 327.1 158.87 321.8C166.17 316.5 172.27 312.5 172.57 312.9Z" fill="black" stroke="black" stroke-width="0.5" stroke-miterlimit="10"/>
<path d="M164.87 326.8C165.07 327.2 162.47 329.2 159.17 331.7C155.87 334.2 153.17 336.1 152.87 335.8C152.57 335.5 154.87 332.9 158.17 330.4C161.47 327.9 164.57 326.5 164.87 326.8Z" fill="black" stroke="black" stroke-width="0.5" stroke-miterlimit="10"/>
<path d="M169.07 329.3C169.37 329.6 166.47 332.5 162.67 335.8C158.87 339 155.47 341.4 155.17 341C154.87 340.7 157.77 337.8 161.57 334.5C165.47 331.3 168.77 328.9 169.07 329.3Z" fill="black" stroke="black" stroke-width="0.5" stroke-miterlimit="10"/>
<path d="M58.4698 212.7C58.3698 212.7 58.2698 211.4 59.3698 209.6C59.9698 208.7 60.7698 207.7 61.8698 206.7C62.8698 205.7 64.1698 204.6 65.2698 203.2C67.4698 200.5 68.1698 196.1 67.7698 191.4C67.5698 189.1 66.8698 186.7 65.3698 184.8C63.8698 182.9 61.4698 181.6 58.9698 181.1C56.3698 180.6 53.7698 181.1 51.5698 182.2C49.3698 183.3 47.5698 185.1 46.3698 187C45.0698 188.9 44.3698 191 44.0698 193.1C43.7698 195.1 43.7698 197.1 44.0698 198.8C44.3698 200.6 44.7698 202.1 45.2698 203.4C45.7698 204.7 46.3698 205.9 46.5698 206.9C46.8698 207.9 46.8698 208.8 46.7698 209.3C46.6698 209.9 46.5698 210.1 46.4698 210.1C46.3698 210.1 46.6698 208.9 45.8698 207.1C45.5698 206.2 44.8698 205.1 44.2698 203.8C43.6698 202.5 43.0698 200.9 42.7698 199C42.4698 197.2 42.2698 195.1 42.5698 192.9C42.8698 190.7 43.5698 188.4 44.9698 186.2C46.3698 184.1 48.2698 182.1 50.7698 180.8C53.1698 179.5 56.2698 178.9 59.1698 179.5C62.0698 180 64.7698 181.5 66.5698 183.7C68.3698 185.9 69.0698 188.7 69.2698 191.1C69.4698 193.6 69.2698 195.9 68.7698 198.1C68.2698 200.3 67.3698 202.2 66.1698 203.7C64.9698 205.2 63.5698 206.2 62.4698 207.1C61.3698 208 60.4698 208.9 59.8698 209.6C58.6698 211.6 58.5698 212.7 58.4698 212.7Z" fill="black" stroke="black" stroke-width="0.5" stroke-miterlimit="10"/>
<path d="M57.9701 212.8C58.0701 213 57.4701 213.5 56.3701 213.8C55.2701 214.2 53.5701 214.4 51.8701 214C50.0701 213.7 48.5701 213 47.6701 212.2C46.7701 211.5 46.3701 210.9 46.4701 210.7C46.7701 210.3 48.9701 211.8 52.0701 212.3C55.2701 213 57.8701 212.3 57.9701 212.8Z" fill="black" stroke="black" stroke-width="0.5" stroke-miterlimit="10"/>
<path d="M45.8699 215.3C45.8699 215.5 45.3699 215.7 44.7699 215.5C44.0699 215.3 43.2699 214.5 43.1699 213.2C43.1699 211.9 43.9699 211.1 44.6699 210.9C45.3699 210.6 45.7699 210.8 45.7699 211.1C45.7699 211.3 45.4699 211.6 45.2699 211.9C44.9699 212.2 44.7699 212.8 44.7699 213.2C44.7699 213.7 45.0699 214.2 45.2699 214.5C45.6699 214.8 45.9699 215 45.8699 215.3Z" fill="black" stroke="black" stroke-width="0.5" stroke-miterlimit="10"/>
<path d="M44.2698 219.201C44.1698 219.401 43.7698 219.401 43.3698 219.001C42.9698 218.701 42.5698 218.001 42.6698 217.201C42.6698 216.401 43.0698 215.701 43.4698 215.401C43.8698 215.101 44.2698 215.101 44.3698 215.301C44.4698 215.501 44.4698 215.801 44.3698 216.101C44.2698 216.401 44.2698 216.801 44.2698 217.301C44.2698 217.701 44.2698 218.101 44.3698 218.501C44.3698 218.701 44.3698 219.001 44.2698 219.201Z" fill="black" stroke="black" stroke-width="0.5" stroke-miterlimit="10"/>
<path d="M57.6701 221.5C57.7701 221.7 57.0701 222.2 55.6701 222.7C54.3701 223.1 52.3701 223.4 50.2701 223.1C48.1701 222.8 46.2701 222 45.1701 221.2C43.9701 220.4 43.4701 219.7 43.5701 219.5C43.8701 219.1 46.5701 221 50.4701 221.5C54.3701 222.1 57.5701 221.1 57.6701 221.5Z" fill="black" stroke="black" stroke-width="0.5" stroke-miterlimit="10"/>
<path d="M58.3696 216.3C58.3696 216.1 58.6696 215.9 58.8696 215.6C59.0696 215.3 59.3696 214.9 59.3696 214.5C59.3696 214.1 59.1696 213.7 58.9696 213.4C58.7696 213.1 58.4696 212.9 58.4696 212.6C58.4696 212.4 58.8696 212.2 59.5696 212.4C60.1696 212.6 61.0696 213.3 61.0696 214.5C61.0696 215.7 60.1696 216.4 59.5696 216.6C58.7696 216.8 58.3696 216.5 58.3696 216.3Z" fill="black" stroke="black" stroke-width="0.5" stroke-miterlimit="10"/>
<path d="M55.9697 222.801C55.9697 222.601 56.3697 222.401 56.8697 222.001C57.3697 221.601 57.9697 221.001 58.2697 220.301C58.5697 219.501 58.5697 218.701 58.4697 218.101C58.3697 217.501 58.1697 217.101 58.3697 216.901C58.4697 216.801 59.0697 216.901 59.4697 217.601C59.9697 218.301 60.2697 219.601 59.7697 220.901C59.2697 222.201 58.1697 222.901 57.3697 223.101C56.4697 223.301 55.9697 223.101 55.9697 222.801Z" fill="black" stroke="black" stroke-width="0.5" stroke-miterlimit="10"/>
<path d="M54.7175 206.761C55.8557 203.124 56.4367 200.069 56.015 199.937C55.5933 199.805 54.3287 202.646 53.1904 206.283C52.0521 209.92 51.4712 212.976 51.8929 213.108C52.3146 213.24 53.5792 210.398 54.7175 206.761Z" fill="black" stroke="black" stroke-width="0.5" stroke-miterlimit="10"/>
<path d="M52.4696 195.1C52.8696 194.8 53.9696 195.8 54.5696 197.4C55.2696 199 55.0696 200.5 54.6696 200.5C54.1696 200.6 53.6696 199.4 53.0696 198C52.4696 196.6 52.0696 195.4 52.4696 195.1Z" fill="black" stroke="black" stroke-width="0.5" stroke-miterlimit="10"/>
<path d="M62.0699 196C62.4699 196.3 61.8699 197.6 60.4699 198.7C59.0699 199.8 57.5699 200 57.4699 199.6C57.2699 199.2 58.2699 198.3 59.4699 197.4C60.6699 196.5 61.6699 195.8 62.0699 196Z" fill="black" stroke="black" stroke-width="0.5" stroke-miterlimit="10"/>
<path d="M36.1699 181.7C35.8699 182 34.8698 181.7 33.9698 180.9C33.0698 180.1 32.5698 179.2 32.7698 178.8C33.0698 178.5 34.0698 178.8 34.9698 179.6C35.9698 180.4 36.4699 181.3 36.1699 181.7Z" fill="black" stroke="black" stroke-width="0.5" stroke-miterlimit="10"/>
<path d="M49.2698 168.8C49.6698 168.8 50.1698 170 50.2698 171.5C50.3698 173 50.1698 174.3 49.6698 174.3C49.2698 174.3 48.7698 173.1 48.6698 171.6C48.5698 170.1 48.8698 168.9 49.2698 168.8Z" fill="black" stroke="black" stroke-width="0.5" stroke-miterlimit="10"/>
<path d="M68.0331 175.093C68.5017 174.624 68.6284 173.991 68.3159 173.679C68.0035 173.366 67.3704 173.493 66.9017 173.962C66.4331 174.43 66.3065 175.063 66.6189 175.376C66.9313 175.688 67.5645 175.562 68.0331 175.093Z" fill="black" stroke="black" stroke-width="0.5" stroke-miterlimit="10"/>
<path d="M82.1701 185.1C82.4701 185.5 81.5701 186.5 79.9701 186.8C78.4701 187.1 77.1701 186.5 77.2701 186.1C77.3701 185.6 78.3701 185.5 79.5701 185.2C80.8701 185 81.9701 184.7 82.1701 185.1Z" fill="black" stroke="black" stroke-width="0.5" stroke-miterlimit="10"/>
<path d="M79.47 198.9C79.47 199.4 78.77 199.7 77.87 199.7C76.97 199.7 76.27 199.3 76.27 198.9C76.27 198.5 76.97 198.1 77.87 198.1C78.77 198.1 79.47 198.4 79.47 198.9Z" fill="black" stroke="black" stroke-width="0.5" stroke-miterlimit="10"/>
<path d="M207.27 171.9C207.07 172 205.27 169.7 202.77 165.5C201.57 163.4 200.17 160.9 198.77 158C197.37 155.1 196.07 151.9 194.87 148.4C193.67 144.9 192.67 141.6 191.97 138.5C191.27 135.4 190.77 132.6 190.37 130.2C189.77 125.4 189.67 122.5 189.87 122.4C190.07 122.4 190.57 125.3 191.47 130C191.97 132.3 192.57 135.1 193.37 138.1C194.17 141.1 195.17 144.4 196.37 147.9C197.57 151.3 198.87 154.5 200.17 157.4C201.47 160.3 202.67 162.8 203.77 164.9C205.97 169.2 207.47 171.8 207.27 171.9Z" fill="black" stroke="black" stroke-width="0.5" stroke-miterlimit="10"/>
<path d="M258.27 99.6005C258.37 99.8005 254.77 101.6 248.77 104.2C242.77 106.8 234.37 110.1 224.97 113.3C215.57 116.5 206.87 119 200.57 120.7C194.27 122.3 190.27 123.1 190.27 122.9C190.17 122.7 194.07 121.5 200.27 119.6C206.47 117.7 215.07 115 224.47 111.8C233.87 108.6 242.27 105.4 248.37 103.1C254.37 100.8 258.17 99.4005 258.27 99.6005Z" fill="black" stroke="black" stroke-width="0.5" stroke-miterlimit="10"/>
<path d="M274.37 142.9C274.27 143 272.17 141.3 269.97 137.8C267.67 134.3 265.27 128.9 263.57 122.8C261.77 116.7 260.47 111.2 259.57 107.1C258.67 103.1 258.17 100.5 258.37 100.5C258.57 100.4 259.47 102.9 260.67 106.8C261.87 110.7 263.37 116.3 265.17 122.3C266.87 128.3 268.97 133.6 270.97 137.1C272.87 140.8 274.57 142.7 274.37 142.9Z" fill="black" stroke="black" stroke-width="0.5" stroke-miterlimit="10"/>
<path d="M276.07 143.3C276.17 143.4 275.37 144.1 273.87 145.4C273.17 146 272.17 146.8 271.07 147.6C269.97 148.4 268.77 149.4 267.27 150.3C265.87 151.3 264.27 152.3 262.57 153.4C260.87 154.5 258.97 155.6 256.97 156.7C252.97 158.9 248.47 161.2 243.57 163.2C238.67 165.2 233.97 166.9 229.57 168.2C227.37 168.8 225.27 169.4 223.27 169.9C221.27 170.4 219.47 170.8 217.77 171.1C216.07 171.5 214.57 171.7 213.17 171.9C211.77 172.1 210.67 172.3 209.67 172.3C207.77 172.5 206.67 172.5 206.67 172.4C206.67 172.1 210.87 171.5 217.57 169.9C219.27 169.5 221.07 169.1 222.97 168.5C224.97 168 226.97 167.4 229.17 166.7C233.47 165.3 238.17 163.7 242.97 161.6C247.77 159.6 252.27 157.4 256.27 155.3C258.27 154.2 260.17 153.2 261.87 152.1C263.67 151.1 265.17 150.1 266.67 149.2C272.47 145.7 275.87 143.1 276.07 143.3Z" fill="black" stroke="black" stroke-width="0.5" stroke-miterlimit="10"/>
<path d="M260.17 108.001C260.27 108.101 259.37 108.701 257.77 109.601C256.17 110.601 253.87 111.801 250.87 113.301C247.97 114.801 244.37 116.401 240.37 118.101C236.37 119.801 231.87 121.501 227.07 123.101C222.27 124.701 217.67 126.001 213.47 127.101C209.27 128.101 205.37 129.001 202.17 129.501C198.97 130.101 196.27 130.501 194.47 130.601C192.67 130.801 191.57 130.801 191.57 130.701C191.57 130.501 195.57 129.701 201.97 128.301C205.17 127.601 208.97 126.701 213.17 125.601C217.37 124.501 221.97 123.101 226.67 121.501C231.37 119.901 235.87 118.301 239.87 116.701C243.87 115.101 247.47 113.601 250.47 112.201C256.37 109.601 260.07 107.801 260.17 108.001Z" fill="black" stroke="black" stroke-width="0.5" stroke-miterlimit="10"/>
<path d="M227.77 140.701C227.67 140.801 227.27 140.201 226.47 139.301C225.67 138.501 224.27 137.401 222.27 136.901C221.27 136.701 220.17 136.601 219.07 136.901C217.97 137.201 216.87 137.801 215.87 138.701C214.97 139.601 214.17 140.801 213.97 142.101C213.67 143.501 213.87 145.001 214.47 146.401C215.57 149.201 218.07 151.201 220.47 152.501C222.87 153.801 225.37 154.601 227.37 155.001C231.57 155.801 234.17 155.401 234.27 155.701C234.27 155.901 231.67 156.701 227.17 156.101C224.97 155.801 222.37 155.101 219.77 153.801C218.47 153.101 217.07 152.301 215.87 151.201C214.67 150.101 213.57 148.701 212.97 147.001C212.27 145.301 212.07 143.501 212.47 141.801C212.87 140.101 213.77 138.601 214.97 137.601C216.17 136.601 217.57 135.901 218.87 135.601C220.27 135.301 221.57 135.501 222.67 135.801C224.87 136.501 226.27 137.801 226.97 138.901C227.77 140.001 227.87 140.701 227.77 140.701Z" fill="black" stroke="black" stroke-width="0.5" stroke-miterlimit="10"/>
<path d="M233.97 156.301C233.77 156.201 235.17 153.901 237.37 150.301C238.47 148.501 239.77 146.301 240.87 143.801C241.97 141.301 243.07 138.401 242.57 135.501C242.27 134.101 241.57 132.801 240.57 131.901C239.57 131.001 238.27 130.701 237.07 130.901C235.87 131.101 234.67 131.701 233.67 132.301C232.67 132.901 231.77 133.701 231.07 134.401C229.67 135.901 228.87 137.401 228.37 138.401C227.87 139.501 227.67 140.101 227.57 140.101C227.47 140.101 227.47 139.401 227.77 138.201C228.07 137.001 228.77 135.301 230.17 133.601C230.87 132.701 231.77 131.901 232.87 131.101C233.97 130.401 235.17 129.701 236.77 129.401C237.57 129.301 238.37 129.301 239.27 129.501C240.07 129.701 240.87 130.201 241.57 130.701C242.87 131.801 243.87 133.401 244.17 135.201C244.47 137.001 244.27 138.701 243.87 140.201C243.47 141.801 242.87 143.201 242.27 144.401C240.97 147.001 239.67 149.101 238.37 150.901C235.87 154.401 234.07 156.401 233.97 156.301Z" fill="black" stroke="black" stroke-width="0.5" stroke-miterlimit="10"/>
<path d="M360.37 167.6C359.97 167.7 356.97 158.2 353.77 146.3C350.57 134.4 348.27 124.7 348.67 124.6C349.07 124.5 352.07 134 355.27 145.9C358.57 157.8 360.87 167.5 360.37 167.6Z" fill="black" stroke="black" stroke-width="0.5" stroke-miterlimit="10"/>
<path d="M423.37 147.5C423.47 147.9 409.57 152.7 392.27 158.2C374.97 163.7 360.87 167.8 360.67 167.4C360.57 167 374.47 162.2 391.77 156.7C409.07 151.2 423.17 147.1 423.37 147.5Z" fill="black" stroke="black" stroke-width="0.5" stroke-miterlimit="10"/>
<path d="M361.27 146.2C361.67 146 363.57 150.1 364.87 155.3C366.27 160.6 366.57 165 366.17 165.1C365.67 165.2 364.67 160.9 363.27 155.8C361.97 150.5 360.87 146.3 361.27 146.2Z" fill="black" stroke="black" stroke-width="0.5" stroke-miterlimit="10"/>
<path d="M373.77 141.5C373.87 141.9 371.17 143 367.87 144.3C364.57 145.5 361.87 146.5 361.67 146.1C361.47 145.7 363.97 144.1 367.37 142.8C370.77 141.5 373.67 141.1 373.77 141.5Z" fill="black" stroke="black" stroke-width="0.5" stroke-miterlimit="10"/>
<path d="M379.27 160.2C378.87 160.4 376.67 156.5 375.07 151.2C373.47 145.9 373.17 141.4 373.57 141.4C374.07 141.3 375.07 145.6 376.57 150.8C378.17 155.9 379.67 160 379.27 160.2Z" fill="black" stroke="black" stroke-width="0.5" stroke-miterlimit="10"/>
<path d="M383.87 158.6C383.47 158.7 380.87 150.8 378.07 141C375.27 131.2 373.37 123.1 373.77 123C374.17 122.9 376.77 130.8 379.57 140.6C382.37 150.4 384.37 158.4 383.87 158.6Z" fill="black" stroke="black" stroke-width="0.5" stroke-miterlimit="10"/>
<path d="M384.27 119.3C384.37 119.7 381.97 120.7 378.87 121.4C375.77 122.1 373.27 122.3 373.17 121.9C373.07 121.5 375.47 120.5 378.57 119.8C381.57 119.1 384.17 118.8 384.27 119.3Z" fill="black" stroke="black" stroke-width="0.5" stroke-miterlimit="10"/>
<path d="M394.27 154.7C393.87 154.8 391.07 147.1 388.37 137.4C385.67 127.7 384.07 119.6 384.57 119.5C384.97 119.4 387.27 127.2 389.97 137C392.67 146.7 394.67 154.6 394.27 154.7Z" fill="black" stroke="black" stroke-width="0.5" stroke-miterlimit="10"/>
<path d="M401.67 151.3C401.27 151.4 398.47 142 395.17 130.5C391.87 118.9 389.17 109.6 389.57 109.4C389.97 109.3 393.37 118.4 396.67 130C400.07 141.7 402.07 151.2 401.67 151.3Z" fill="black" stroke="black" stroke-width="0.5" stroke-miterlimit="10"/>
<path d="M398.67 106.2C398.77 106.6 396.77 107.6 394.27 108.3C391.67 109 389.57 109.2 389.37 108.8C389.27 108.4 391.27 107.4 393.77 106.7C396.37 106 398.57 105.8 398.67 106.2Z" fill="black" stroke="black" stroke-width="0.5" stroke-miterlimit="10"/>
<path d="M411.17 151.3C410.97 151.4 409.97 149 408.57 145C407.17 141.1 405.47 135.5 403.77 129.4C402.07 123.2 400.87 117.6 400.07 113.5C399.27 109.4 398.97 106.8 399.17 106.8C399.67 106.7 401.97 116.8 405.27 129.1C408.57 141.3 411.67 151.1 411.17 151.3Z" fill="black" stroke="black" stroke-width="0.5" stroke-miterlimit="10"/>
<path d="M386.67 82.7002C386.77 82.9002 384.17 85.2002 379.77 88.9002C375.37 92.6002 369.37 97.6002 362.77 103.3C356.17 108.9 350.17 114 345.87 117.7C341.57 121.4 338.77 123.6 338.67 123.5C338.57 123.3 340.97 120.8 345.07 116.9C349.17 113 355.07 107.7 361.67 102.1C368.27 96.5002 374.47 91.5002 378.97 88.1002C383.67 84.5002 386.57 82.5002 386.67 82.7002Z" fill="black" stroke="black" stroke-width="0.5" stroke-miterlimit="10"/>
<path d="M391.07 77.3002C391.27 77.7002 387.27 79.9002 381.97 81.9002C376.77 83.9002 372.27 84.9002 372.17 84.5002C372.07 84.1002 376.17 82.3002 381.37 80.4002C386.67 78.4002 390.97 76.9002 391.07 77.3002Z" fill="black" stroke="black" stroke-width="0.5" stroke-miterlimit="10"/>
<path d="M387.07 92.9001C386.67 92.8001 387.37 89.2001 388.47 85.0001C389.67 80.7001 390.77 77.3001 391.17 77.4001C391.57 77.5001 391.17 81.1001 389.97 85.4001C388.87 89.7001 387.47 93.0001 387.07 92.9001Z" fill="black" stroke="black" stroke-width="0.5" stroke-miterlimit="10"/>
</svg>
