<svg width="642" height="559" viewBox="0 0 642 559" fill="none" xmlns="http://www.w3.org/2000/svg">
<path d="M83.9877 50.1929H543.367C556.838 50.1929 567.758 61.1134 567.758 74.5846V204.338C567.758 214.441 559.568 222.632 549.464 222.632H453.224C446.907 222.632 441.103 219.323 437.414 214.196C420.132 190.181 396.185 171.65 368.437 160.969C337.521 149.07 303.571 147.564 271.723 156.68C239.875 165.796 211.863 185.037 191.926 211.493C171.989 237.949 161.212 270.178 161.226 303.305C161.239 336.432 172.043 368.653 192.001 395.092C211.96 421.531 239.988 440.75 271.843 449.84C303.698 458.93 337.647 457.396 368.553 445.471C389.151 437.524 407.65 425.248 422.877 409.617C432.891 399.337 424.564 383.748 410.214 383.748H341.169C331.066 383.748 322.876 375.557 322.876 365.454V322.614C322.876 312.51 331.066 304.32 341.169 304.32H543.367C556.838 304.32 567.758 315.241 567.758 328.712V533.963C567.758 547.435 556.838 558.355 543.367 558.355H83.9877C70.5165 558.355 59.5959 547.435 59.5959 533.963V74.5846C59.5959 61.1134 70.5165 50.1929 83.9877 50.1929Z" fill="#818181"/>
<path fill-rule="evenodd" clip-rule="evenodd" d="M7.27852 547.088C42.9613 588.867 212.406 502.722 385.743 354.678C559.081 206.634 670.672 52.7516 634.989 10.9724C599.306 -30.8068 429.862 55.338 256.524 203.382C83.1868 351.426 -28.4043 505.308 7.27852 547.088ZM116.95 508.946C138.544 532.928 255.298 463.006 377.728 352.769C500.159 242.533 581.902 133.727 560.308 109.744C538.714 85.7614 421.96 155.684 299.53 265.921C177.099 376.157 95.3556 484.963 116.95 508.946Z" fill="#818181"/>
<path d="M452.647 322.718V365.549C452.647 375.653 444.456 383.843 434.353 383.843H340.83C330.726 383.843 322.536 375.653 322.536 365.549V322.718C322.536 312.615 330.726 304.425 340.83 304.425H434.353C444.456 304.425 452.647 312.615 452.647 322.718Z" fill="#818181"/>
</svg>
