<svg width="400" height="400" viewBox="0 0 400 400" fill="none" xmlns="http://www.w3.org/2000/svg">
<rect width="400" height="400" rx="24" fill="#FFCBBC"/>
<path d="M97.6094 220.344H126.25V233H81.1562V164.75H97.6094V220.344ZM187.984 200.281C187.984 206.938 186.75 212.828 184.281 217.953C181.812 223.078 178.297 227.031 173.734 229.812C169.203 232.562 164.031 233.938 158.219 233.938C152.406 233.938 147.25 232.609 142.75 229.953C138.25 227.266 134.734 223.438 132.203 218.469C129.703 213.5 128.391 207.797 128.266 201.359V197.516C128.266 190.828 129.484 184.938 131.922 179.844C134.391 174.719 137.906 170.766 142.469 167.984C147.062 165.203 152.281 163.812 158.125 163.812C163.906 163.812 169.062 165.188 173.594 167.938C178.125 170.688 181.641 174.609 184.141 179.703C186.672 184.766 187.953 190.578 187.984 197.141V200.281ZM171.25 197.422C171.25 190.641 170.109 185.5 167.828 182C165.578 178.469 162.344 176.703 158.125 176.703C149.875 176.703 145.516 182.891 145.047 195.266L145 200.281C145 206.969 146.109 212.109 148.328 215.703C150.547 219.297 153.844 221.094 158.219 221.094C162.375 221.094 165.578 219.328 167.828 215.797C170.078 212.266 171.219 207.188 171.25 200.562V197.422ZM252.344 224.562C249.812 227.375 246.109 229.641 241.234 231.359C236.359 233.078 231.016 233.938 225.203 233.938C216.266 233.938 209.125 231.203 203.781 225.734C198.438 220.266 195.578 212.656 195.203 202.906L195.156 197C195.156 190.281 196.344 184.422 198.719 179.422C201.094 174.391 204.484 170.531 208.891 167.844C213.328 165.125 218.453 163.766 224.266 163.766C232.766 163.766 239.359 165.719 244.047 169.625C248.766 173.5 251.516 179.297 252.297 187.016H236.453C235.891 183.203 234.672 180.484 232.797 178.859C230.922 177.234 228.266 176.422 224.828 176.422C220.703 176.422 217.516 178.172 215.266 181.672C213.016 185.172 211.875 190.172 211.844 196.672V200.797C211.844 207.609 213 212.734 215.312 216.172C217.656 219.578 221.328 221.281 226.328 221.281C230.609 221.281 233.797 220.328 235.891 218.422V207.828H224.453V196.531H252.344V224.562ZM319.703 200.281C319.703 206.938 318.469 212.828 316 217.953C313.531 223.078 310.016 227.031 305.453 229.812C300.922 232.562 295.75 233.938 289.938 233.938C284.125 233.938 278.969 232.609 274.469 229.953C269.969 227.266 266.453 223.438 263.922 218.469C261.422 213.5 260.109 207.797 259.984 201.359V197.516C259.984 190.828 261.203 184.938 263.641 179.844C266.109 174.719 269.625 170.766 274.188 167.984C278.781 165.203 284 163.812 289.844 163.812C295.625 163.812 300.781 165.188 305.312 167.938C309.844 170.688 313.359 174.609 315.859 179.703C318.391 184.766 319.672 190.578 319.703 197.141V200.281ZM302.969 197.422C302.969 190.641 301.828 185.5 299.547 182C297.297 178.469 294.062 176.703 289.844 176.703C281.594 176.703 277.234 182.891 276.766 195.266L276.719 200.281C276.719 206.969 277.828 212.109 280.047 215.703C282.266 219.297 285.562 221.094 289.938 221.094C294.094 221.094 297.297 219.328 299.547 215.797C301.797 212.266 302.938 207.188 302.969 200.562V197.422Z" fill="#A10705"/>
</svg>
