<svg width="589" height="560" viewBox="0 0 589 560" fill="none" xmlns="http://www.w3.org/2000/svg">
<rect width="588.225" height="560" rx="24" fill="#DEDEDE"/>
<path d="M283.988 61.6193C265.589 65.5809 249.566 73.3283 234.687 85.5655C214.527 102.029 204.138 121.221 200.265 148.865C197.447 169.377 197.888 215.685 200.881 224.577C201.497 226.25 203.874 230.739 206.251 234.525C208.628 238.311 211.445 243.417 212.59 245.97C213.734 248.523 216.111 252.309 217.96 254.51C222.274 259.616 224.035 263.842 227.116 276.607C228.525 282.329 231.166 290.165 232.927 294.127C237.505 304.251 238.737 315.96 235.92 321.506C235.568 322.21 231.958 324.499 227.908 326.436C220.777 329.958 217.872 332.071 203.698 344.572C189.436 357.161 166.986 365.085 111.435 377.322C91.7143 381.636 80.3575 384.629 72.8743 387.446C69.1767 388.855 67.7681 389.911 66.3595 392.553C62.1337 400.212 57.0275 417.291 52.3615 439.212C50.6888 447.312 48.1357 458.052 46.7271 463.159C40.7406 484.552 30 542.128 30 553.045V560H294.113H558.225V557.887C558.225 556.743 556.817 545.21 555.144 532.18C549.07 486.225 545.108 465.536 540.442 454.795C535.072 442.47 534.191 439.653 533.135 431.729C531.902 423.102 529.173 416.059 525.123 410.688C520.721 404.878 507.164 395.722 497.48 392.024C480.4 385.333 428.898 366.141 422.912 364.204C413.932 361.211 410.763 358.922 401.431 348.622C391.042 337.089 386.64 332.951 382.591 330.926C373.17 326.172 368.769 317.633 368.857 303.899C368.857 295.535 370.529 288.404 375.195 276.519C377.132 271.413 379.509 264.458 380.39 261.112C382.679 252.309 383.119 251.428 389.369 242.184C395.796 232.676 400.374 222.992 403.367 212.692C404.952 207.233 405.392 203.448 405.48 195.524C405.48 186.369 405.304 185.136 403.543 182.759C401.078 179.502 399.758 167.176 399.758 147.544C399.67 121.133 397.557 110.304 390.074 99.7395C381.446 87.5023 368.328 79.4028 350.545 75.3531C339.276 72.8881 333.025 70.335 326.599 65.5809C324.222 63.8202 320.436 61.8834 318.147 61.1791C312.425 59.4183 292.968 59.6824 283.988 61.6193Z" fill="white"/>
</svg>
